<svg xmlns="http://www.w3.org/2000/svg" xml:space="preserve" width="18.9751mm" height="18.9751mm" version="1.0" shape-rendering="geometricPrecision" text-rendering="geometricPrecision" image-rendering="optimizeQuality" fill-rule="evenodd" clip-rule="evenodd"
viewBox="0 0 12.61 12.61">
 <g id="Warstwa_x0020_1">
  
  <g id="_2811253837424">
   <path fill="#5FF2D4" fill-rule="nonzero" d="M7.78 8.52c-0.14,0 -0.25,0.11 -0.25,0.25 0,0.14 0.11,0.25 0.25,0.25 0.14,0 0.25,-0.11 0.25,-0.25 0,-0.14 -0.11,-0.25 -0.25,-0.25z"/>
   <path fill="#5FF2D4" fill-rule="nonzero" d="M11.38 0l-10.15 0c-0.68,0 -1.23,0.55 -1.23,1.23l0 7.54c0,0.68 0.55,1.23 1.23,1.23l3.84 0 0 1.13 -0.25 0c-0.33,0 -0.64,0.13 -0.87,0.36 -0.23,0.23 -0.36,0.54 -0.36,0.87 0,0.14 0.11,0.25 0.25,0.25l4.93 0c0.14,0 0.25,-0.11 0.25,-0.25 0,-0.68 -0.55,-1.23 -1.23,-1.23l-0.25 0 0 -1.13 3.84 0c0.68,0 1.23,-0.55 1.23,-1.23l0 -7.54c0,-0.68 -0.55,-1.23 -1.23,-1.23zm-10.15 0.49l10.15 0c0.41,0 0.74,0.33 0.74,0.74l0 6.31 -1.13 0 0 -5.67c0,-0.14 -0.11,-0.25 -0.25,-0.25l-1.97 0c-0.14,0 -0.25,0.11 -0.25,0.25l0 5.67 -1.23 0c-0,-0.25 -0.01,-0.51 -0.02,-0.75 -0.04,-1 -0.14,-1.68 -0.19,-1.97 0.51,-0.37 0.65,-1.07 0.34,-1.61l-0.85 -1.48c-0.04,-0.08 -0.13,-0.12 -0.21,-0.12 -0.09,0 -0.17,0.05 -0.21,0.12l-0.85 1.48c-0.29,0.51 -0.19,1.17 0.27,1.55 -0.05,0.29 -0.16,0.99 -0.21,2.02 -0.01,0.25 -0.02,0.5 -0.02,0.75l-1.23 0 0 -3.7c0,-0.04 -0.01,-0.07 -0.02,-0.11 -0,-0 -0,-0 -0,-0l-0.99 -1.97c-0.04,-0.08 -0.13,-0.14 -0.22,-0.14 -0.09,0 -0.18,0.05 -0.22,0.14l-0.99 1.97c-0,0 -0,0 -0,0 -0.02,0.03 -0.02,0.07 -0.02,0.11l0 3.7 -1.13 0 0 -6.31c0,-0.41 0.33,-0.74 0.74,-0.74zm7.78 7.05l0 -5.42 1.48 0 0 0.49 -0.25 0c-0.14,0 -0.25,0.11 -0.25,0.25 0,0.14 0.11,0.25 0.25,0.25l0.25 0 0 0.74 -0.25 0c-0.14,0 -0.25,0.11 -0.25,0.25 0,0.14 0.11,0.25 0.25,0.25l0.25 0 0 0.74 -0.25 0c-0.14,0 -0.25,0.11 -0.25,0.25 0,0.14 0.11,0.25 0.25,0.25l0.25 0 0 0.99 -0.25 0c-0.14,0 -0.25,0.11 -0.25,0.25 0,0.14 0.11,0.25 0.25,0.25l0.25 0 0 0.49 -1.48 0zm-2.67 -2.48c0.09,0 0.18,-0.01 0.27,-0.03 0.05,0.29 0.11,0.81 0.15,1.52l-0.92 0c0.04,-0.71 0.11,-1.24 0.16,-1.54 0.11,0.03 0.22,0.05 0.34,0.05zm0 -0.49c-0.56,0 -0.93,-0.61 -0.64,-1.11l0.64 -1.11 0.64 1.11c0.28,0.49 -0.07,1.11 -0.64,1.11zm-0.52 2.48l0.96 0c0.01,0.16 0.01,0.33 0.01,0.49l-0.98 0c0,-0.17 0.01,-0.33 0.01,-0.49zm-2.72 0.49l0 -3.45 0.49 0 0 3.45 -0.49 0zm-0.99 0l0 -3.45 0.49 0 0 3.45 -0.49 0zm0.15 -3.94l0.59 -1.17 0.59 1.17 -1.17 0zm6.21 8.52l-4.35 0c0.04,-0.1 0.1,-0.2 0.17,-0.28 0.14,-0.14 0.33,-0.22 0.52,-0.22l2.96 0c0.32,0 0.6,0.21 0.7,0.49zm-1.44 -0.99l-1.48 0 0 -1.13 1.48 0 0 1.13zm4.34 -1.63l-10.15 0c-0.41,0 -0.74,-0.33 -0.74,-0.74l0 -0.74 11.63 0 0 0.74c0,0.41 -0.33,0.74 -0.74,0.74z"/>
   <path fill="#5FF2D4" fill-rule="nonzero" d="M6.8 8.52l-1.48 0c-0.14,0 -0.25,0.11 -0.25,0.25 0,0.14 0.11,0.25 0.25,0.25l1.48 0c0.14,0 0.25,-0.11 0.25,-0.25 0,-0.14 -0.11,-0.25 -0.25,-0.25z"/>
  </g>
 </g>
</svg>
