<?xml version="1.0" encoding="UTF-8"?>
<!DOCTYPE svg PUBLIC "-//W3C//DTD SVG 1.0//EN" "http://www.w3.org/TR/2001/REC-SVG-20010904/DTD/svg10.dtd">
<!-- Creator: CorelDRAW 2018 (64-Bit) -->
<svg xmlns="http://www.w3.org/2000/svg" xml:space="preserve" width="22.4814mm" height="14.0506mm" version="1.0" shape-rendering="geometricPrecision" text-rendering="geometricPrecision" image-rendering="optimizeQuality" fill-rule="evenodd" clip-rule="evenodd"
viewBox="0 0 16.9 10.56"
 xmlns:xlink="http://www.w3.org/1999/xlink">
 <g id="Warstwa_x0020_1">
  <metadata id="CorelCorpID_0Corel-Layer"/>
  <g id="_2811258510640">
   <path fill="#AAAAFB" fill-rule="nonzero" d="M8.45 10.56c-0.43,0 -0.99,-0.24 -1.25,-0.41 -0.31,-0.21 -1.89,-1.39 -3.2,-2.49 -0.22,-0.18 -0.54,-0.52 -0.86,-0.85 -0.23,-0.24 -0.44,-0.47 -0.55,-0.56 -0.15,-0.13 -0.17,-0.35 -0.04,-0.5 0.12,-0.15 0.35,-0.17 0.5,-0.04 0.12,0.1 0.35,0.34 0.61,0.61 0.29,0.3 0.61,0.64 0.8,0.8 1.34,1.12 2.89,2.28 3.13,2.44 0.21,0.14 0.63,0.29 0.86,0.29 0.33,0 0.36,-0.08 0.37,-0.12 0.04,-0.11 0.13,-0.19 0.25,-0.22 0.11,-0.03 0.23,0 0.32,0.08 0.14,0.13 0.3,0.1 0.4,0.06 0.22,-0.09 0.39,-0.31 0.42,-0.54 0.01,-0.13 0.1,-0.25 0.23,-0.3 0.13,-0.05 0.27,-0.02 0.37,0.07 0.09,0.08 0.32,0.1 0.55,-0.01 0.09,-0.04 0.29,-0.17 0.27,-0.4 -0.01,-0.14 0.05,-0.27 0.17,-0.34 0.12,-0.07 0.27,-0.07 0.38,0.01 0.1,0.07 0.29,0.03 0.43,-0.09 0.09,-0.08 0.24,-0.26 0.1,-0.53 -0.26,-0.55 -1.44,-1.5 -2.47,-2.34 -0.57,-0.46 -1.12,-0.9 -1.52,-1.28 -0.1,0.04 -0.18,0.08 -0.25,0.11 -0.18,0.08 -0.3,0.13 -0.53,0.17 -0.54,0.72 -1.27,0.97 -2.07,0.71 -0.32,-0.1 -0.53,-0.33 -0.6,-0.63 -0.17,-0.71 0.49,-1.69 0.97,-2.17 1.27,-1.27 2.15,-1.74 3.76,-1.02 1.39,0.62 2.77,1.11 2.79,1.11 0.18,0.06 0.28,0.26 0.22,0.45 -0.06,0.18 -0.26,0.28 -0.45,0.22 -0.01,-0 -1.43,-0.5 -2.84,-1.13 -1.25,-0.56 -1.84,-0.27 -2.98,0.87 -0.48,0.48 -0.85,1.2 -0.78,1.51 0.01,0.05 0.03,0.09 0.14,0.13 0.34,0.12 0.86,0.18 1.36,-0.57 0.06,-0.09 0.15,-0.14 0.26,-0.15 0.24,-0.02 0.3,-0.05 0.47,-0.13 0.12,-0.05 0.26,-0.12 0.5,-0.2 0.13,-0.05 0.27,-0.01 0.37,0.08 0.39,0.39 0.99,0.87 1.63,1.39 1.15,0.93 2.33,1.89 2.66,2.58 0.23,0.49 0.12,1.02 -0.28,1.37 -0.24,0.2 -0.53,0.3 -0.81,0.29 -0.1,0.25 -0.31,0.47 -0.59,0.61 -0.29,0.15 -0.61,0.19 -0.88,0.13 -0.15,0.3 -0.41,0.55 -0.73,0.68 -0.27,0.11 -0.55,0.1 -0.8,0.01 -0.19,0.16 -0.45,0.24 -0.8,0.24z"/>
   <path fill="#AAAAFB" fill-rule="nonzero" d="M7.04 2.11l-3.17 0c-0.19,0 -0.35,-0.16 -0.35,-0.35 0,-0.19 0.16,-0.35 0.35,-0.35l3.17 0c0.19,0 0.35,0.16 0.35,0.35 0,0.19 -0.16,0.35 -0.35,0.35z"/>
   <path fill="#AAAAFB" fill-rule="nonzero" d="M13.05 7.73c-0.11,0 -0.22,-0.05 -0.29,-0.16 -0.11,-0.16 -0.07,-0.38 0.1,-0.49l1.03 -0.69c0.16,-0.11 0.38,-0.07 0.49,0.1 0.11,0.16 0.07,0.38 -0.1,0.49l-1.03 0.69c-0.06,0.04 -0.13,0.06 -0.2,0.06z"/>
   <path fill="#AAAAFB" fill-rule="nonzero" d="M11.97 8.8c-0.08,0 -0.15,-0.02 -0.22,-0.08 -0.37,-0.29 -1.97,-1.96 -2.15,-2.15 -0.13,-0.14 -0.13,-0.36 0.01,-0.5 0.14,-0.14 0.36,-0.13 0.5,0.01 0.7,0.73 1.82,1.88 2.08,2.08 0.15,0.12 0.18,0.34 0.06,0.49 -0.07,0.09 -0.17,0.13 -0.28,0.13z"/>
   <path fill="#AAAAFB" fill-rule="nonzero" d="M10.56 9.5c-0.08,0 -0.15,-0.03 -0.22,-0.08 -0.52,-0.42 -1.79,-1.78 -1.8,-1.8 -0.13,-0.14 -0.12,-0.37 0.02,-0.5 0.14,-0.13 0.37,-0.12 0.5,0.02 0.24,0.26 1.3,1.39 1.72,1.72 0.15,0.12 0.18,0.34 0.05,0.49 -0.07,0.09 -0.17,0.13 -0.28,0.13z"/>
   <path fill="#AAAAFB" fill-rule="nonzero" d="M9.15 10.21c-0.08,0 -0.16,-0.03 -0.23,-0.08 -0.52,-0.44 -1.5,-1.48 -1.79,-1.79 -0.13,-0.14 -0.13,-0.36 0.02,-0.5 0.14,-0.13 0.36,-0.13 0.5,0.02 0.2,0.21 1.23,1.31 1.73,1.73 0.15,0.13 0.17,0.35 0.04,0.5 -0.07,0.08 -0.17,0.13 -0.27,0.13z"/>
   <path fill="#AAAAFB" fill-rule="nonzero" d="M0.7 6.34l1.5 0c0.26,-0.83 1.11,-3.57 1.29,-5.11 -0.44,-0.22 -1.66,-0.41 -2.8,-0.5l0 5.61zm1.76 0.7l-2.11 0c-0.19,0 -0.35,-0.16 -0.35,-0.35l0 -6.34c0,-0.1 0.04,-0.19 0.11,-0.26 0.07,-0.06 0.15,-0.1 0.24,-0.1l0 0c0.01,0 0.01,0 0.02,0 0.73,0.04 3.14,0.23 3.74,0.8 0.08,0.07 0.12,0.18 0.11,0.29 -0.16,1.83 -1.37,5.55 -1.42,5.71 -0.05,0.14 -0.18,0.24 -0.33,0.24z"/>
   <path fill="#AAAAFB" fill-rule="nonzero" d="M14.7 7.04l1.5 0 0 -5.63c-1.67,0.04 -2.83,0.35 -3.37,0.54 0.55,1.17 1.54,4.01 1.87,5.09zm1.85 0.7l-2.11 0c-0.16,0 -0.3,-0.11 -0.34,-0.26 -0.26,-0.95 -1.62,-4.84 -2.06,-5.54 -0.05,-0.09 -0.07,-0.19 -0.04,-0.29 0.03,-0.1 0.1,-0.18 0.19,-0.22 0.06,-0.03 1.6,-0.74 4.36,-0.74 0.19,0 0.35,0.16 0.35,0.35l0 6.34c0,0.19 -0.16,0.35 -0.35,0.35z"/>
  </g>
 </g>
</svg>
