<svg xmlns="http://www.w3.org/2000/svg" xml:space="preserve" width="17.9898mm" height="17.9862mm" version="1.0" shape-rendering="geometricPrecision" text-rendering="geometricPrecision" image-rendering="optimizeQuality" fill-rule="evenodd" clip-rule="evenodd"
viewBox="0 0 12.15 12.14">
 <g id="Warstwa_x0020_1">
  <g id="_2811258540496">
   <path fill="#F47727" fill-rule="nonzero" d="M11.86 10.49l-2.53 -2.53 -0.18 0.18 -0.28 -0.28c1.44,-1.93 1.28,-4.67 -0.47,-6.42 -1.92,-1.92 -5.04,-1.92 -6.96,0 -1.92,1.92 -1.92,5.04 0,6.96 1.75,1.75 4.49,1.91 6.42,0.47l0.28 0.28 -0.18 0.18 2.53 2.53c0.38,0.38 1,0.38 1.37,0 0.38,-0.38 0.38,-0.99 0,-1.37zm-4.53 -3.16c-1.33,1.33 -3.49,1.33 -4.82,0 -1.33,-1.33 -1.33,-3.49 0,-4.82 1.33,-1.33 3.49,-1.33 4.82,0 1.33,1.33 1.33,3.49 0,4.82z"/>
   <path fill="#F47727" fill-rule="nonzero" d="M3.93 4.7c0.05,0.33 0.3,0.74 0.72,0.89 0.17,0.06 0.36,0.06 0.53,0 0.41,-0.15 0.67,-0.56 0.72,-0.89 0.06,-0.01 0.13,-0.08 0.2,-0.36 0.11,-0.38 -0.01,-0.43 -0.1,-0.42 0.02,-0.05 0.03,-0.1 0.04,-0.15 0.16,-0.97 -0.32,-1.01 -0.32,-1.01 0,0 -0.08,-0.15 -0.29,-0.27 -0.14,-0.08 -0.34,-0.15 -0.59,-0.13 -0.08,0.01 -0.16,0.02 -0.23,0.05 -0.09,0.03 -0.18,0.08 -0.26,0.13 -0.1,0.06 -0.19,0.14 -0.27,0.22 -0.13,0.13 -0.24,0.3 -0.29,0.51 -0.04,0.16 -0.03,0.32 0,0.5 0.01,0.05 0.02,0.1 0.04,0.15 -0.1,-0.01 -0.21,0.05 -0.1,0.42 0.08,0.27 0.15,0.35 0.2,0.35z"/>
   <path fill="#F47727" fill-rule="nonzero" d="M6.65 6.03c-0.57,-0.22 -0.91,-0.44 -0.91,-0.44l-0.44 1.39 -0.06 0.19 -0.2 -0.56c0.45,-0.63 -0.04,-0.66 -0.12,-0.66l-0.01 0c-0.08,0 -0.57,0.03 -0.12,0.66l-0.2 0.56 -0.06 -0.19 -0.44 -1.39c0,0 -0.34,0.22 -0.91,0.44 -0.31,0.11 -0.45,0.29 -0.53,0.56 0.08,0.11 0.17,0.22 0.27,0.32 1.1,1.1 2.87,1.1 3.97,0 0.1,-0.1 0.19,-0.21 0.27,-0.32 -0.07,-0.27 -0.21,-0.45 -0.52,-0.56z"/>
  </g>
 </g>
</svg>
