<?xml version="1.0" encoding="UTF-8" standalone="no"?>
<svg
   xmlns:dc="http://purl.org/dc/elements/1.1/"
   xmlns:cc="http://creativecommons.org/ns#"
   xmlns:rdf="http://www.w3.org/1999/02/22-rdf-syntax-ns#"
   xmlns:svg="http://www.w3.org/2000/svg"
   xmlns="http://www.w3.org/2000/svg"
   height="207"
   width="276"
   id="svg54"
   version="1.1"
   viewBox="0 0 276 207">
  <metadata
     id="metadata58">
    <rdf:RDF>
      <cc:Work
         rdf:about="">
        <dc:format>image/svg+xml</dc:format>
        <dc:type
           rdf:resource="http://purl.org/dc/dcmitype/StillImage" />
        <dc:title>Zasób 1our story</dc:title>
      </cc:Work>
    </rdf:RDF>
  </metadata>
  <defs
     id="defs4">
    <style
       id="style2">.cls-1,.cls-5{fill:#231f20;}.cls-2{fill:#f15a29;}.cls-3{font-size:109.61px;}.cls-3,.cls-7,.cls-8{fill:#6d6e71;}.cls-3,.cls-6,.cls-7{font-family:LEIXO-DEMO, LEIXO;}.cls-4{letter-spacing:0em;}.cls-5{font-size:50.81px;font-family:MyriadPro-Regular, Myriad Pro;}.cls-9{letter-spacing:0em;}.cls-10{fill:none;stroke:#ed1c24;stroke-miterlimit:10;stroke-width:0.01px;}</style>
  </defs>
  <title
     id="title6">Zasób 1our story</title>
  <g
     transform="matrix(0.249,0,0,0.249,1,1)"
     data-name="Warstwa 2"
     id="Warstwa_2">
    <g
       data-name="Warstwa 1"
       id="Warstwa_1-2">
      <path
         style="fill:#231f20"
         id="path8"
         d="m 302,0 h 798 L 781,400 v 23 l 319,399 H 950 Q 786,622 623,423 V 401 L 859,117 H 386"
         class="cls-1" />
      <path
         style="fill:#231f20"
         id="path10"
         d="m 243,705 h 473 l 84,117 H 0 Q 160,622 321,422 V 399 L 0.71,0.24 152,0 479,399 v 22 Q 361,563 243,705 Z"
         class="cls-1" />
      <polygon
         style="fill:#f15a29"
         id="polygon12"
         points="243,705 479,421 479,399 498,420 498,436 296,678 698,678 716,705 "
         class="cls-2" />
      <polygon
         style="fill:#f15a29"
         id="polygon14"
         points="860,117 623,401 623,423 604,401 604,386 807,144 405,144 386,117 "
         class="cls-2" />
      <text
         style="font-size:109.61px;font-family:LEIXO-DEMO, LEIXO;fill:#6d6e71"
         id="text20"
         transform="translate(386,270)"
         class="cls-3">Z <tspan
   style="fill:#f15a29"
   id="tspan16"
   y="0"
   x="121"
   class="cls-2">M</tspan>
<tspan
   style="letter-spacing:0em"
   id="tspan18"
   xml:space="preserve"
   y="0"
   x="202"
   class="cls-4"> P</tspan></text>
      <text
         style="font-size:50.81px;font-family:MyriadPro-Regular, 'Myriad Pro';fill:#231f20"
         id="text48"
         transform="translate(319,662)"
         class="cls-5">-<tspan
   style="font-family:LEIXO-DEMO, LEIXO"
   id="tspan22"
   y="0"
   x="15.6"
   class="cls-6" />
<tspan
   style="font-family:LEIXO-DEMO, LEIXO;fill:#6d6e71"
   id="tspan24"
   y="0"
   x="37.5"
   class="cls-7">G</tspan>
<tspan
   id="tspan26"
   y="0"
   x="101">-</tspan>
<tspan
   style="font-family:LEIXO-DEMO, LEIXO"
   id="tspan28"
   y="0"
   x="116"
   class="cls-6" />
<tspan
   style="font-family:LEIXO-DEMO, LEIXO;fill:#6d6e71"
   id="tspan30"
   y="0"
   x="138"
   class="cls-7">R</tspan>
<tspan
   id="tspan32"
   y="0"
   x="193">-</tspan>
<tspan
   style="font-family:LEIXO-DEMO, LEIXO;fill:#6d6e71"
   id="tspan34"
   xml:space="preserve"
   y="0"
   x="208"
   class="cls-7"> O </tspan><tspan
   id="tspan36"
   y="0"
   x="294">-</tspan>
<tspan
   style="fill:#6d6e71"
   id="tspan38"
   y="0"
   x="309"
   class="cls-8" />
<tspan
   style="font-family:LEIXO-DEMO, LEIXO;fill:#6d6e71"
   id="tspan40"
   y="0"
   x="320"
   class="cls-7">U</tspan>
<tspan
   style="letter-spacing:0em"
   id="tspan42"
   y="0"
   x="375"
   class="cls-9">-</tspan>
<tspan
   style="font-family:LEIXO-DEMO, LEIXO;fill:#6d6e71"
   id="tspan44"
   xml:space="preserve"
   y="0"
   x="391"
   class="cls-7"> P </tspan><tspan
   id="tspan46"
   y="0"
   x="466">-</tspan>
</text>
      <line
         style="fill:none;stroke:#ed1c24;stroke-width:0.01px;stroke-miterlimit:10"
         id="line50"
         y2="420"
         x2="498"
         y1="399"
         x1="479"
         class="cls-10" />
    </g>
  </g>
</svg>
