<svg width="9.8631mm" height="9.863mm" viewBox="0 0 3.67 3.67">
 <g id="Warstwa_x0020_1">
  <path fill="#F46C6E" fill-rule="nonzero" d="M3.67 1.83c0,1.01 -0.82,1.83 -1.83,1.83 -1.01,0 -1.83,-0.82 -1.83,-1.83 0,-1.01 0.82,-1.83 1.83,-1.83 1.01,0 1.83,0.82 1.83,1.83z"/>
  <path fill="#FEFBF5" fill-rule="nonzero" d="M1.45 0.82l0.65 0c0.19,0 0.34,0.04 0.44,0.11 0.1,0.07 0.15,0.18 0.15,0.32 0,0.26 -0.13,0.42 -0.4,0.5l0 0.01c0.08,0.03 0.14,0.07 0.19,0.14 0.05,0.06 0.07,0.14 0.07,0.24 0,0.2 -0.07,0.36 -0.2,0.47 -0.14,0.11 -0.33,0.17 -0.58,0.17l-0.73 0 0.41 -1.96zm0.36 0.75l0.1 0c0.08,0 0.14,-0.02 0.18,-0.05 0.04,-0.03 0.06,-0.09 0.06,-0.16 0,-0.09 -0.06,-0.14 -0.17,-0.14l-0.08 0 -0.08 0.35zm-0.08 0.39l-0.09 0.41 0.11 0c0.08,0 0.14,-0.02 0.19,-0.06 0.05,-0.04 0.08,-0.1 0.08,-0.16 0,-0.06 -0.01,-0.11 -0.04,-0.14 -0.03,-0.03 -0.08,-0.05 -0.16,-0.05l-0.09 0z"/>
 </g>
</svg>
