<svg width="9.8631mm" height="9.8628mm" viewBox="0 0 3.67 3.67">
 <g id="Warstwa_x0020_1">
  <path fill="#F46C6E" fill-rule="nonzero" d="M3.67 1.83c0,1.01 -0.82,1.83 -1.83,1.83 -1.01,0 -1.83,-0.82 -1.83,-1.83 0,-1.01 0.82,-1.83 1.83,-1.83 1.01,0 1.83,0.82 1.83,1.83z"/>
  <path fill="#FEFBF5" fill-rule="nonzero" d="M2.14 2.41l-0.6 0 -0.17 0.37 -0.54 0 1 -1.96 0.67 0 0.16 1.96 -0.51 0 -0.01 -0.37zm-0.41 -0.42l0.39 0 -0.02 -0.57 -0 -0.12c0,-0.07 0,-0.13 0.01,-0.18 -0.02,0.08 -0.05,0.15 -0.08,0.22l-0.29 0.64z"/>
 </g>
</svg>
