<svg width="9.8631mm" height="9.8628mm"
viewBox="0 0 3.67 3.67">
 <g id="Warstwa_x0020_1">
  <path fill="#F46C6E" fill-rule="nonzero" d="M3.67 1.83c0,1.01 -0.82,1.83 -1.83,1.83 -1.01,0 -1.83,-0.82 -1.83,-1.83 0,-1.01 0.82,-1.83 1.83,-1.83 1.01,0 1.83,0.82 1.83,1.83z"/>
  <path fill="#FEFBF5" fill-rule="nonzero" d="M1.98 1.22c-0.1,0 -0.18,0.03 -0.26,0.1 -0.08,0.07 -0.14,0.17 -0.18,0.29 -0.04,0.12 -0.07,0.25 -0.07,0.4 0,0.12 0.03,0.21 0.07,0.27 0.05,0.06 0.12,0.09 0.22,0.09 0.07,0 0.15,-0.01 0.22,-0.03 0.08,-0.02 0.16,-0.05 0.27,-0.09l0 0.43c-0.18,0.08 -0.38,0.12 -0.59,0.12 -0.23,0 -0.41,-0.07 -0.54,-0.2 -0.13,-0.13 -0.19,-0.32 -0.19,-0.56 0,-0.24 0.05,-0.46 0.14,-0.65 0.09,-0.2 0.21,-0.35 0.37,-0.45 0.16,-0.1 0.33,-0.15 0.53,-0.15 0.24,0 0.45,0.06 0.64,0.17l-0.2 0.41c-0.08,-0.05 -0.16,-0.09 -0.23,-0.11 -0.07,-0.02 -0.14,-0.04 -0.22,-0.04z"/>
 </g>
</svg>
