<?xml version="1.0" encoding="UTF-8"?>
<!DOCTYPE svg PUBLIC "-//W3C//DTD SVG 1.0//EN" "http://www.w3.org/TR/2001/REC-SVG-20010904/DTD/svg10.dtd">
<!-- Creator: CorelDRAW 2018 (64-Bit) -->
<svg xmlns="http://www.w3.org/2000/svg" xml:space="preserve" width="30.5602mm" height="27.3188mm" version="1.0" shape-rendering="geometricPrecision" text-rendering="geometricPrecision" image-rendering="optimizeQuality" fill-rule="evenodd" clip-rule="evenodd"
viewBox="0 0 31.29 27.98"
 xmlns:xlink="http://www.w3.org/1999/xlink">
 <g id="Warstwa_x0020_1">
  <metadata id="CorelCorpID_0Corel-Layer"/>
  <path fill="#5FF2D4" fill-rule="nonzero" d="M-0 11.96l0 -5.9c0,-0.14 0.11,-0.25 0.25,-0.25l12.36 0c0.77,0 1.39,0.62 1.39,1.39l0 3.61c0,0.77 -0.62,1.39 -1.39,1.39l-12.36 0c-0.14,0 -0.25,-0.11 -0.25,-0.25zm0.49 -5.65l0 5.41 12.11 0c0.5,0 0.9,-0.4 0.9,-0.9l0 -3.61c0,-0.5 -0.4,-0.9 -0.9,-0.9l-12.11 0zm0.73 3.68l0 -1.96c0,-0.14 0.11,-0.25 0.25,-0.25 0.14,0 0.25,0.11 0.25,0.25l0 1.96c0,0.14 -0.11,0.25 -0.25,0.25 -0.14,0 -0.25,-0.11 -0.25,-0.25zm2.37 -0.98c0,-1.12 0.91,-2.03 2.03,-2.03 1.12,0 2.03,0.91 2.03,2.03 0,1.12 -0.91,2.03 -2.03,2.03 -1.12,0 -2.03,-0.91 -2.03,-2.03zm3.56 0c0,-0.85 -0.69,-1.54 -1.54,-1.54 -0.85,0 -1.54,0.69 -1.54,1.54 0,0.85 0.69,1.54 1.54,1.54 0.85,0 1.54,-0.69 1.54,-1.54zm-2.42 0c0,-0.49 0.4,-0.88 0.88,-0.88 0.49,0 0.88,0.39 0.88,0.88 0,0.49 -0.4,0.88 -0.88,0.88 -0.49,0 -0.88,-0.4 -0.88,-0.88zm1.27 0c0,-0.21 -0.17,-0.39 -0.39,-0.39 -0.21,0 -0.39,0.17 -0.39,0.39 0,0.21 0.17,0.39 0.39,0.39 0.21,0 0.39,-0.17 0.39,-0.39zm2.57 0c0,-1.12 0.91,-2.03 2.03,-2.03 1.12,0 2.03,0.91 2.03,2.03 0,1.12 -0.91,2.03 -2.03,2.03 -1.12,0 -2.03,-0.91 -2.03,-2.03zm3.56 0c0,-0.85 -0.69,-1.54 -1.54,-1.54 -0.85,0 -1.54,0.69 -1.54,1.54 0,0.85 0.69,1.54 1.54,1.54 0.85,0 1.54,-0.69 1.54,-1.54zm-2.42 0c0,-0.49 0.4,-0.88 0.88,-0.88 0.49,0 0.88,0.39 0.88,0.88 0,0.49 -0.4,0.88 -0.88,0.88 -0.49,0 -0.88,-0.4 -0.88,-0.88zm1.27 0c0,-0.21 -0.17,-0.39 -0.39,-0.39 -0.21,0 -0.39,0.17 -0.39,0.39 0,0.21 0.17,0.39 0.39,0.39 0.21,0 0.39,-0.17 0.39,-0.39z"/>
  <g>
   <path fill="#5FF2D4" fill-rule="nonzero" d="M1.51 21.61c0,-0.72 0.58,-1.3 1.3,-1.3l0.41 0 0 -0.18c0,-0.14 0.11,-0.25 0.25,-0.25 0.14,0 0.25,0.11 0.25,0.25l0 0.18 0.37 0 0 -0.18c0,-0.14 0.11,-0.25 0.25,-0.25 0.14,0 0.25,0.11 0.25,0.25l0 0.18 0.37 0 0 -0.18c0,-0.14 0.11,-0.25 0.25,-0.25 0.14,0 0.25,0.11 0.25,0.25l0 0.18 0.37 0 0 -0.18c0,-0.14 0.11,-0.25 0.25,-0.25 0.14,0 0.25,0.11 0.25,0.25l0 0.18 0.37 0 0 -0.18c0,-0.14 0.11,-0.25 0.25,-0.25 0.14,0 0.25,0.11 0.25,0.25l0 0.18 0.41 0c0.72,0 1.3,0.58 1.3,1.3l0 6.11c0,0.14 -0.11,0.25 -0.25,0.25l-6.88 0c-0.14,0 -0.25,-0.11 -0.25,-0.25l0 -6.11zm0.49 5.87l6.39 0 0 -5.87c0,-0.45 -0.36,-0.81 -0.81,-0.81l-4.77 0c-0.45,0 -0.81,0.36 -0.81,0.81l0 5.87zm3.2 -0.73c-0.69,0 -1.25,-0.56 -1.25,-1.25 0,-0.69 0.56,-1.25 1.25,-1.25 0.69,0 1.25,0.56 1.25,1.25 0,0.69 -0.56,1.25 -1.25,1.25zm0 -2.01c-0.42,0 -0.76,0.34 -0.76,0.76 0,0.42 0.34,0.76 0.76,0.76 0.42,0 0.76,-0.34 0.76,-0.76 0,-0.42 -0.34,-0.76 -0.76,-0.76z"/>
  </g>
  <path fill="#5FF2D4" fill-rule="nonzero" d="M-0 17.95l0 -5.9c0,-0.14 0.11,-0.25 0.25,-0.25l12.36 0c0.77,0 1.39,0.62 1.39,1.39l0 3.61c0,0.77 -0.62,1.39 -1.39,1.39l-12.36 0c-0.14,0 -0.25,-0.11 -0.25,-0.25zm0.49 -5.65l0 5.41 12.11 0c0.5,0 0.9,-0.4 0.9,-0.9l0 -3.61c0,-0.5 -0.4,-0.9 -0.9,-0.9l-12.11 0zm0.73 3.68l0 -1.96c0,-0.14 0.11,-0.25 0.25,-0.25 0.14,0 0.25,0.11 0.25,0.25l0 1.96c0,0.14 -0.11,0.25 -0.25,0.25 -0.14,0 -0.25,-0.11 -0.25,-0.25zm2.37 -0.98c0,-1.12 0.91,-2.03 2.03,-2.03 1.12,0 2.03,0.91 2.03,2.03 0,1.12 -0.91,2.03 -2.03,2.03 -1.12,0 -2.03,-0.91 -2.03,-2.03zm3.56 0c0,-0.85 -0.69,-1.54 -1.54,-1.54 -0.85,0 -1.54,0.69 -1.54,1.54 0,0.85 0.69,1.54 1.54,1.54 0.85,0 1.54,-0.69 1.54,-1.54zm-2.42 0c0,-0.49 0.4,-0.88 0.88,-0.88 0.49,0 0.88,0.39 0.88,0.88 0,0.49 -0.4,0.88 -0.88,0.88 -0.49,0 -0.88,-0.4 -0.88,-0.88zm1.27 0c0,-0.21 -0.17,-0.39 -0.39,-0.39 -0.21,0 -0.39,0.17 -0.39,0.39 0,0.21 0.17,0.39 0.39,0.39 0.21,0 0.39,-0.17 0.39,-0.39zm2.57 0c0,-1.12 0.91,-2.03 2.03,-2.03 1.12,0 2.03,0.91 2.03,2.03 0,1.12 -0.91,2.03 -2.03,2.03 -1.12,0 -2.03,-0.91 -2.03,-2.03zm3.56 0c0,-0.85 -0.69,-1.54 -1.54,-1.54 -0.85,0 -1.54,0.69 -1.54,1.54 0,0.85 0.69,1.54 1.54,1.54 0.85,0 1.54,-0.69 1.54,-1.54zm-2.42 0c0,-0.49 0.4,-0.88 0.88,-0.88 0.49,0 0.88,0.39 0.88,0.88 0,0.49 -0.4,0.88 -0.88,0.88 -0.49,0 -0.88,-0.4 -0.88,-0.88zm1.27 0c0,-0.21 -0.17,-0.39 -0.39,-0.39 -0.21,0 -0.39,0.17 -0.39,0.39 0,0.21 0.17,0.39 0.39,0.39 0.21,0 0.39,-0.17 0.39,-0.39z"/>
  <path fill="#5FF2D4" fill-rule="nonzero" d="M-0 6.14l0 -5.9c0,-0.14 0.11,-0.25 0.25,-0.25l12.36 0c0.77,0 1.39,0.62 1.39,1.39l0 3.61c0,0.77 -0.62,1.39 -1.39,1.39l-12.36 0c-0.14,0 -0.25,-0.11 -0.25,-0.25zm0.49 -5.65l0 5.41 12.11 0c0.5,0 0.9,-0.4 0.9,-0.9l0 -3.61c0,-0.5 -0.4,-0.9 -0.9,-0.9l-12.11 0zm0.73 3.68l0 -1.96c0,-0.14 0.11,-0.25 0.25,-0.25 0.14,0 0.25,0.11 0.25,0.25l0 1.96c0,0.14 -0.11,0.25 -0.25,0.25 -0.14,0 -0.25,-0.11 -0.25,-0.25zm2.37 -0.98c0,-1.12 0.91,-2.03 2.03,-2.03 1.12,0 2.03,0.91 2.03,2.03 0,1.12 -0.91,2.03 -2.03,2.03 -1.12,0 -2.03,-0.91 -2.03,-2.03zm3.56 0c0,-0.85 -0.69,-1.54 -1.54,-1.54 -0.85,0 -1.54,0.69 -1.54,1.54 0,0.85 0.69,1.54 1.54,1.54 0.85,0 1.54,-0.69 1.54,-1.54zm-2.42 0c0,-0.49 0.4,-0.88 0.88,-0.88 0.49,0 0.88,0.4 0.88,0.88 0,0.49 -0.4,0.88 -0.88,0.88 -0.49,0 -0.88,-0.4 -0.88,-0.88zm1.27 0c0,-0.21 -0.17,-0.39 -0.39,-0.39 -0.21,0 -0.39,0.17 -0.39,0.39 0,0.21 0.17,0.39 0.39,0.39 0.21,0 0.39,-0.17 0.39,-0.39zm2.57 0c0,-1.12 0.91,-2.03 2.03,-2.03 1.12,0 2.03,0.91 2.03,2.03 0,1.12 -0.91,2.03 -2.03,2.03 -1.12,0 -2.03,-0.91 -2.03,-2.03zm3.56 0c0,-0.85 -0.69,-1.54 -1.54,-1.54 -0.85,0 -1.54,0.69 -1.54,1.54 0,0.85 0.69,1.54 1.54,1.54 0.85,0 1.54,-0.69 1.54,-1.54zm-2.42 0c0,-0.49 0.4,-0.88 0.88,-0.88 0.49,0 0.88,0.4 0.88,0.88 0,0.49 -0.4,0.88 -0.88,0.88 -0.49,0 -0.88,-0.4 -0.88,-0.88zm1.27 0c0,-0.21 -0.17,-0.39 -0.39,-0.39 -0.21,0 -0.39,0.17 -0.39,0.39 0,0.21 0.17,0.39 0.39,0.39 0.21,0 0.39,-0.17 0.39,-0.39z"/>
  <path fill="#5FF2D4" fill-rule="nonzero" d="M31.29 11.96l0 -5.9c0,-0.14 -0.11,-0.25 -0.25,-0.25l-12.36 0c-0.77,0 -1.39,0.62 -1.39,1.39l0 3.61c0,0.77 0.62,1.39 1.39,1.39l12.36 0c0.14,0 0.25,-0.11 0.25,-0.25zm-0.49 -5.65l0 5.41 -12.11 0c-0.5,0 -0.9,-0.4 -0.9,-0.9l0 -3.61c0,-0.5 0.4,-0.9 0.9,-0.9l12.11 0zm-0.73 3.68l0 -1.96c0,-0.14 -0.11,-0.25 -0.25,-0.25 -0.14,0 -0.25,0.11 -0.25,0.25l0 1.96c0,0.14 0.11,0.25 0.25,0.25 0.14,0 0.25,-0.11 0.25,-0.25zm-2.37 -0.98c0,-1.12 -0.91,-2.03 -2.03,-2.03 -1.12,0 -2.03,0.91 -2.03,2.03 0,1.12 0.91,2.03 2.03,2.03 1.12,0 2.03,-0.91 2.03,-2.03zm-3.56 0c0,-0.85 0.69,-1.54 1.54,-1.54 0.85,0 1.54,0.69 1.54,1.54 0,0.85 -0.69,1.54 -1.54,1.54 -0.85,0 -1.54,-0.69 -1.54,-1.54zm2.42 0c0,-0.49 -0.4,-0.88 -0.88,-0.88 -0.49,0 -0.88,0.39 -0.88,0.88 0,0.49 0.4,0.88 0.88,0.88 0.49,0 0.88,-0.4 0.88,-0.88zm-1.27 0c0,-0.21 0.17,-0.39 0.39,-0.39 0.21,0 0.39,0.17 0.39,0.39 0,0.21 -0.17,0.39 -0.39,0.39 -0.21,0 -0.39,-0.17 -0.39,-0.39zm-2.57 0c0,-1.12 -0.91,-2.03 -2.03,-2.03 -1.12,0 -2.03,0.91 -2.03,2.03 0,1.12 0.91,2.03 2.03,2.03 1.12,0 2.03,-0.91 2.03,-2.03zm-3.56 0c0,-0.85 0.69,-1.54 1.54,-1.54 0.85,0 1.54,0.69 1.54,1.54 0,0.85 -0.69,1.54 -1.54,1.54 -0.85,0 -1.54,-0.69 -1.54,-1.54zm2.42 0c0,-0.49 -0.4,-0.88 -0.88,-0.88 -0.49,0 -0.88,0.39 -0.88,0.88 0,0.49 0.4,0.88 0.88,0.88 0.49,0 0.88,-0.4 0.88,-0.88zm-1.27 0c0,-0.21 0.17,-0.39 0.39,-0.39 0.21,0 0.39,0.17 0.39,0.39 0,0.21 -0.17,0.39 -0.39,0.39 -0.21,0 -0.39,-0.17 -0.39,-0.39z"/>
  <path fill="#5FF2D4" fill-rule="nonzero" d="M31.29 17.95l0 -5.9c0,-0.14 -0.11,-0.25 -0.25,-0.25l-12.36 0c-0.77,0 -1.39,0.62 -1.39,1.39l0 3.61c0,0.77 0.62,1.39 1.39,1.39l12.36 0c0.14,0 0.25,-0.11 0.25,-0.25zm-0.49 -5.65l0 5.41 -12.11 0c-0.5,0 -0.9,-0.4 -0.9,-0.9l0 -3.61c0,-0.5 0.4,-0.9 0.9,-0.9l12.11 0zm-0.73 3.68l0 -1.96c0,-0.14 -0.11,-0.25 -0.25,-0.25 -0.14,0 -0.25,0.11 -0.25,0.25l0 1.96c0,0.14 0.11,0.25 0.25,0.25 0.14,0 0.25,-0.11 0.25,-0.25zm-2.37 -0.98c0,-1.12 -0.91,-2.03 -2.03,-2.03 -1.12,0 -2.03,0.91 -2.03,2.03 0,1.12 0.91,2.03 2.03,2.03 1.12,0 2.03,-0.91 2.03,-2.03zm-3.56 0c0,-0.85 0.69,-1.54 1.54,-1.54 0.85,0 1.54,0.69 1.54,1.54 0,0.85 -0.69,1.54 -1.54,1.54 -0.85,0 -1.54,-0.69 -1.54,-1.54zm2.42 0c0,-0.49 -0.4,-0.88 -0.88,-0.88 -0.49,0 -0.88,0.39 -0.88,0.88 0,0.49 0.4,0.88 0.88,0.88 0.49,0 0.88,-0.4 0.88,-0.88zm-1.27 0c0,-0.21 0.17,-0.39 0.39,-0.39 0.21,0 0.39,0.17 0.39,0.39 0,0.21 -0.17,0.39 -0.39,0.39 -0.21,0 -0.39,-0.17 -0.39,-0.39zm-2.57 0c0,-1.12 -0.91,-2.03 -2.03,-2.03 -1.12,0 -2.03,0.91 -2.03,2.03 0,1.12 0.91,2.03 2.03,2.03 1.12,0 2.03,-0.91 2.03,-2.03zm-3.56 0c0,-0.85 0.69,-1.54 1.54,-1.54 0.85,0 1.54,0.69 1.54,1.54 0,0.85 -0.69,1.54 -1.54,1.54 -0.85,0 -1.54,-0.69 -1.54,-1.54zm2.42 0c0,-0.49 -0.4,-0.88 -0.88,-0.88 -0.49,0 -0.88,0.39 -0.88,0.88 0,0.49 0.4,0.88 0.88,0.88 0.49,0 0.88,-0.4 0.88,-0.88zm-1.27 0c0,-0.21 0.17,-0.39 0.39,-0.39 0.21,0 0.39,0.17 0.39,0.39 0,0.21 -0.17,0.39 -0.39,0.39 -0.21,0 -0.39,-0.17 -0.39,-0.39z"/>
  <path fill="#5FF2D4" fill-rule="nonzero" d="M31.29 6.14l0 -5.9c0,-0.14 -0.11,-0.25 -0.25,-0.25l-12.36 0c-0.77,0 -1.39,0.62 -1.39,1.39l0 3.61c0,0.77 0.62,1.39 1.39,1.39l12.36 0c0.14,0 0.25,-0.11 0.25,-0.25zm-0.49 -5.65l0 5.41 -12.11 0c-0.5,0 -0.9,-0.4 -0.9,-0.9l0 -3.61c0,-0.5 0.4,-0.9 0.9,-0.9l12.11 0zm-0.73 3.68l0 -1.96c0,-0.14 -0.11,-0.25 -0.25,-0.25 -0.14,0 -0.25,0.11 -0.25,0.25l0 1.96c0,0.14 0.11,0.25 0.25,0.25 0.14,0 0.25,-0.11 0.25,-0.25zm-2.37 -0.98c0,-1.12 -0.91,-2.03 -2.03,-2.03 -1.12,0 -2.03,0.91 -2.03,2.03 0,1.12 0.91,2.03 2.03,2.03 1.12,0 2.03,-0.91 2.03,-2.03zm-3.56 0c0,-0.85 0.69,-1.54 1.54,-1.54 0.85,0 1.54,0.69 1.54,1.54 0,0.85 -0.69,1.54 -1.54,1.54 -0.85,0 -1.54,-0.69 -1.54,-1.54zm2.42 0c0,-0.49 -0.4,-0.88 -0.88,-0.88 -0.49,0 -0.88,0.4 -0.88,0.88 0,0.49 0.4,0.88 0.88,0.88 0.49,0 0.88,-0.4 0.88,-0.88zm-1.27 0c0,-0.21 0.17,-0.39 0.39,-0.39 0.21,0 0.39,0.17 0.39,0.39 0,0.21 -0.17,0.39 -0.39,0.39 -0.21,0 -0.39,-0.17 -0.39,-0.39zm-2.57 0c0,-1.12 -0.91,-2.03 -2.03,-2.03 -1.12,0 -2.03,0.91 -2.03,2.03 0,1.12 0.91,2.03 2.03,2.03 1.12,0 2.03,-0.91 2.03,-2.03zm-3.56 0c0,-0.85 0.69,-1.54 1.54,-1.54 0.85,0 1.54,0.69 1.54,1.54 0,0.85 -0.69,1.54 -1.54,1.54 -0.85,0 -1.54,-0.69 -1.54,-1.54zm2.42 0c0,-0.49 -0.4,-0.88 -0.88,-0.88 -0.49,0 -0.88,0.4 -0.88,0.88 0,0.49 0.4,0.88 0.88,0.88 0.49,0 0.88,-0.4 0.88,-0.88zm-1.27 0c0,-0.21 0.17,-0.39 0.39,-0.39 0.21,0 0.39,0.17 0.39,0.39 0,0.21 -0.17,0.39 -0.39,0.39 -0.21,0 -0.39,-0.17 -0.39,-0.39z"/>
  <g>
   <path fill="#5FF2D4" fill-rule="nonzero" d="M8.34 21.61c0,-0.72 0.58,-1.3 1.3,-1.3l0.41 0 0 -0.18c0,-0.14 0.11,-0.25 0.25,-0.25 0.14,0 0.25,0.11 0.25,0.25l0 0.18 0.37 0 0 -0.18c0,-0.14 0.11,-0.25 0.25,-0.25 0.14,0 0.25,0.11 0.25,0.25l0 0.18 0.37 0 0 -0.18c0,-0.14 0.11,-0.25 0.25,-0.25 0.14,0 0.25,0.11 0.25,0.25l0 0.18 0.37 0 0 -0.18c0,-0.14 0.11,-0.25 0.25,-0.25 0.14,0 0.25,0.11 0.25,0.25l0 0.18 0.37 0 0 -0.18c0,-0.14 0.11,-0.25 0.25,-0.25 0.14,0 0.25,0.11 0.25,0.25l0 0.18 0.41 0c0.72,0 1.3,0.58 1.3,1.3l0 6.11c0,0.14 -0.11,0.25 -0.25,0.25l-6.88 0c-0.14,0 -0.25,-0.11 -0.25,-0.25l0 -6.11zm0.49 5.87l6.39 0 0 -5.87c0,-0.45 -0.36,-0.81 -0.81,-0.81l-4.77 0c-0.45,0 -0.81,0.36 -0.81,0.81l0 5.87zm3.2 -0.73c-0.69,0 -1.25,-0.56 -1.25,-1.25 0,-0.69 0.56,-1.25 1.25,-1.25 0.69,0 1.25,0.56 1.25,1.25 0,0.69 -0.56,1.25 -1.25,1.25zm0 -2.01c-0.42,0 -0.76,0.34 -0.76,0.76 0,0.42 0.34,0.76 0.76,0.76 0.42,0 0.76,-0.34 0.76,-0.76 0,-0.42 -0.34,-0.76 -0.76,-0.76z"/>
  </g>
  <g>
   <path fill="#5FF2D4" fill-rule="nonzero" d="M15.25 21.61c0,-0.72 0.58,-1.3 1.3,-1.3l0.41 0 0 -0.18c0,-0.14 0.11,-0.25 0.25,-0.25 0.14,0 0.25,0.11 0.25,0.25l0 0.18 0.37 0 0 -0.18c0,-0.14 0.11,-0.25 0.25,-0.25 0.14,0 0.25,0.11 0.25,0.25l0 0.18 0.37 0 0 -0.18c0,-0.14 0.11,-0.25 0.25,-0.25 0.14,0 0.25,0.11 0.25,0.25l0 0.18 0.37 0 0 -0.18c0,-0.14 0.11,-0.25 0.25,-0.25 0.14,0 0.25,0.11 0.25,0.25l0 0.18 0.37 0 0 -0.18c0,-0.14 0.11,-0.25 0.25,-0.25 0.14,0 0.25,0.11 0.25,0.25l0 0.18 0.41 0c0.72,0 1.3,0.58 1.3,1.3l0 6.11c0,0.14 -0.11,0.25 -0.25,0.25l-6.88 0c-0.14,0 -0.25,-0.11 -0.25,-0.25l0 -6.11zm0.49 5.87l6.39 0 0 -5.87c0,-0.45 -0.36,-0.81 -0.81,-0.81l-4.77 0c-0.45,0 -0.81,0.36 -0.81,0.81l0 5.87zm3.2 -0.73c-0.69,0 -1.25,-0.56 -1.25,-1.25 0,-0.69 0.56,-1.25 1.25,-1.25 0.69,0 1.25,0.56 1.25,1.25 0,0.69 -0.56,1.25 -1.25,1.25zm0 -2.01c-0.42,0 -0.76,0.34 -0.76,0.76 0,0.42 0.34,0.76 0.76,0.76 0.42,0 0.76,-0.34 0.76,-0.76 0,-0.42 -0.34,-0.76 -0.76,-0.76z"/>
  </g>
  <g>
   <path fill="#5FF2D4" fill-rule="nonzero" d="M22.16 21.61c0,-0.72 0.58,-1.3 1.3,-1.3l0.41 0 0 -0.18c0,-0.14 0.11,-0.25 0.25,-0.25 0.14,0 0.25,0.11 0.25,0.25l0 0.18 0.37 0 0 -0.18c0,-0.14 0.11,-0.25 0.25,-0.25 0.14,0 0.25,0.11 0.25,0.25l0 0.18 0.37 0 0 -0.18c0,-0.14 0.11,-0.25 0.25,-0.25 0.14,0 0.25,0.11 0.25,0.25l0 0.18 0.37 0 0 -0.18c0,-0.14 0.11,-0.25 0.25,-0.25 0.14,0 0.25,0.11 0.25,0.25l0 0.18 0.37 0 0 -0.18c0,-0.14 0.11,-0.25 0.25,-0.25 0.14,0 0.25,0.11 0.25,0.25l0 0.18 0.41 0c0.72,0 1.3,0.58 1.3,1.3l0 6.11c0,0.14 -0.11,0.25 -0.25,0.25l-6.88 0c-0.14,0 -0.25,-0.11 -0.25,-0.25l0 -6.11zm0.49 5.87l6.39 0 0 -5.87c0,-0.45 -0.36,-0.81 -0.81,-0.81l-4.77 0c-0.45,0 -0.81,0.36 -0.81,0.81l0 5.87zm3.2 -0.73c-0.69,0 -1.25,-0.56 -1.25,-1.25 0,-0.69 0.56,-1.25 1.25,-1.25 0.69,0 1.25,0.56 1.25,1.25 0,0.69 -0.56,1.25 -1.25,1.25zm0 -2.01c-0.42,0 -0.76,0.34 -0.76,0.76 0,0.42 0.34,0.76 0.76,0.76 0.42,0 0.76,-0.34 0.76,-0.76 0,-0.42 -0.34,-0.76 -0.76,-0.76z"/>
  </g>
 </g>
</svg>
