<?xml version="1.0" encoding="UTF-8"?>
<!DOCTYPE svg PUBLIC "-//W3C//DTD SVG 1.0//EN" "http://www.w3.org/TR/2001/REC-SVG-20010904/DTD/svg10.dtd">
<!-- Creator: CorelDRAW 2018 (64-Bit) -->
<svg xmlns="http://www.w3.org/2000/svg" xml:space="preserve" width="17.7708mm" height="21.7192mm" version="1.0" shape-rendering="geometricPrecision" text-rendering="geometricPrecision" image-rendering="optimizeQuality" fill-rule="evenodd" clip-rule="evenodd"
viewBox="0 0 11.84 14.48"
 xmlns:xlink="http://www.w3.org/1999/xlink">
 <g id="Warstwa_x0020_1">
  <metadata id="CorelCorpID_0Corel-Layer"/>
  <path fill="#89EF40" fill-rule="nonzero" d="M11.67 14.48l-4.14 0c-0.1,0 -0.17,-0.08 -0.17,-0.17l0 -13.33c0,-0.54 0.44,-0.98 0.98,-0.98l2.53 0c0.54,0 0.98,0.44 0.98,0.98l0 13.33c0,0.1 -0.08,0.17 -0.17,0.17zm-3.96 -0.34l3.79 0 0 -13.15c0,-0.35 -0.28,-0.63 -0.63,-0.63l-2.53 0c-0.35,0 -0.63,0.28 -0.63,0.63l0 13.15zm-3.4 0.34l-4.14 0c-0.1,0 -0.17,-0.08 -0.17,-0.17l0 -13.33c0,-0.54 0.44,-0.98 0.98,-0.98l2.53 0c0.54,0 0.98,0.44 0.98,0.98l0 13.33c0,0.1 -0.08,0.17 -0.17,0.17zm-3.96 -0.34l3.79 0 0 -13.15c0,-0.35 -0.28,-0.63 -0.63,-0.63l-2.53 0c-0.35,0 -0.63,0.28 -0.63,0.63l0 13.15zm9.94 -0.51l-1.37 0c-0.1,0 -0.17,-0.08 -0.17,-0.17 0,-0.1 0.08,-0.17 0.17,-0.17l1.37 0c0.1,0 0.17,0.08 0.17,0.17 0,0.1 -0.08,0.17 -0.17,0.17zm-7.36 0l-1.37 0c-0.1,0 -0.17,-0.08 -0.17,-0.17 0,-0.1 0.08,-0.17 0.17,-0.17l1.37 0c0.1,0 0.17,0.08 0.17,0.17 0,0.1 -0.08,0.17 -0.17,0.17zm6.68 -6.33c-0.78,0 -1.42,-0.64 -1.42,-1.42 0,-0.78 0.64,-1.42 1.42,-1.42 0.78,0 1.42,0.64 1.42,1.42 0,0.78 -0.64,1.42 -1.42,1.42zm0 -2.5c-0.59,0 -1.08,0.48 -1.08,1.08 0,0.59 0.48,1.08 1.08,1.08 0.59,0 1.08,-0.48 1.08,-1.08 0,-0.59 -0.48,-1.08 -1.08,-1.08zm-7.36 2.5c-0.78,0 -1.42,-0.64 -1.42,-1.42 0,-0.78 0.64,-1.42 1.42,-1.42 0.78,0 1.42,0.64 1.42,1.42 0,0.78 -0.64,1.42 -1.42,1.42zm0 -2.5c-0.59,0 -1.08,0.48 -1.08,1.08 0,0.59 0.48,1.08 1.08,1.08 0.59,0 1.08,-0.48 1.08,-1.08 0,-0.59 -0.48,-1.08 -1.08,-1.08zm7.36 1.69c-0.34,0 -0.62,-0.28 -0.62,-0.62 0,-0.34 0.28,-0.62 0.62,-0.62 0.34,0 0.62,0.28 0.62,0.62 0,0.34 -0.28,0.62 -0.62,0.62zm0 -0.89c-0.15,0 -0.27,0.12 -0.27,0.27 0,0.15 0.12,0.27 0.27,0.27 0.15,0 0.27,-0.12 0.27,-0.27 0,-0.15 -0.12,-0.27 -0.27,-0.27zm-7.36 0.89c-0.34,0 -0.62,-0.28 -0.62,-0.62 0,-0.34 0.28,-0.62 0.62,-0.62 0.34,0 0.62,0.28 0.62,0.62 0,0.34 -0.28,0.62 -0.62,0.62zm0 -0.89c-0.15,0 -0.27,0.12 -0.27,0.27 0,0.15 0.12,0.27 0.27,0.27 0.15,0 0.27,-0.12 0.27,-0.27 0,-0.15 -0.12,-0.27 -0.27,-0.27zm7.36 -1.81c-0.78,0 -1.42,-0.64 -1.42,-1.42 0,-0.78 0.64,-1.42 1.42,-1.42 0.78,0 1.42,0.64 1.42,1.42 0,0.78 -0.64,1.42 -1.42,1.42zm0 -2.5c-0.59,0 -1.08,0.48 -1.08,1.08 0,0.59 0.48,1.08 1.08,1.08 0.59,0 1.08,-0.48 1.08,-1.08 0,-0.59 -0.48,-1.08 -1.08,-1.08zm-7.36 2.5c-0.78,0 -1.42,-0.64 -1.42,-1.42 0,-0.78 0.64,-1.42 1.42,-1.42 0.78,0 1.42,0.64 1.42,1.42 0,0.78 -0.64,1.42 -1.42,1.42zm0 -2.5c-0.59,0 -1.08,0.48 -1.08,1.08 0,0.59 0.48,1.08 1.08,1.08 0.59,0 1.08,-0.48 1.08,-1.08 0,-0.59 -0.48,-1.08 -1.08,-1.08zm7.36 1.69c-0.34,0 -0.62,-0.28 -0.62,-0.62 0,-0.34 0.28,-0.62 0.62,-0.62 0.34,0 0.62,0.28 0.62,0.62 0,0.34 -0.28,0.62 -0.62,0.62zm0 -0.89c-0.15,0 -0.27,0.12 -0.27,0.27 0,0.15 0.12,0.27 0.27,0.27 0.15,0 0.27,-0.12 0.27,-0.27 0,-0.15 -0.12,-0.27 -0.27,-0.27zm-7.36 0.89c-0.34,0 -0.62,-0.28 -0.62,-0.62 0,-0.34 0.28,-0.62 0.62,-0.62 0.34,0 0.62,0.28 0.62,0.62 0,0.34 -0.28,0.62 -0.62,0.62zm0 -0.89c-0.15,0 -0.27,0.12 -0.27,0.27 0,0.15 0.12,0.27 0.27,0.27 0.15,0 0.27,-0.12 0.27,-0.27 0,-0.15 -0.12,-0.27 -0.27,-0.27z"/>
 </g>
</svg>
