<?xml version="1.0" encoding="UTF-8"?>
<!DOCTYPE svg PUBLIC "-//W3C//DTD SVG 1.0//EN" "http://www.w3.org/TR/2001/REC-SVG-20010904/DTD/svg10.dtd">
<!-- Creator: CorelDRAW 2018 (64-Bit) -->
<svg xmlns="http://www.w3.org/2000/svg" xml:space="preserve" width="26.9698mm" height="23.6528mm" version="1.0" shape-rendering="geometricPrecision" text-rendering="geometricPrecision" image-rendering="optimizeQuality" fill-rule="evenodd" clip-rule="evenodd"
viewBox="0 0 25.97 22.78"
 xmlns:xlink="http://www.w3.org/1999/xlink">
 <g id="Warstwa_x0020_1">
  <metadata id="CorelCorpID_0Corel-Layer"/>
  <path fill="#F47727" fill-rule="nonzero" d="M25.7 22.78l-6.51 0c-0.15,0 -0.27,-0.12 -0.27,-0.27l0 -20.97c0,-0.85 0.69,-1.54 1.54,-1.54l3.98 0c0.85,0 1.54,0.69 1.54,1.54l0 20.97c0,0.15 -0.12,0.27 -0.27,0.27zm-6.24 -0.54l5.97 0 0 -20.7c0,-0.55 -0.45,-0.99 -0.99,-0.99l-3.98 0c-0.55,0 -0.99,0.45 -0.99,0.99l0 20.7zm-2.67 0.54l-7.59 0c-0.15,0 -0.27,-0.12 -0.27,-0.27l0 -6.75c0,-0.79 0.64,-1.43 1.43,-1.43l0.45 0 0 -0.19c0,-0.15 0.12,-0.27 0.27,-0.27 0.15,0 0.27,0.12 0.27,0.27l0 0.19 0.41 0 0 -0.19c0,-0.15 0.12,-0.27 0.27,-0.27 0.15,0 0.27,0.12 0.27,0.27l0 0.19 0.41 0 0 -0.19c0,-0.15 0.12,-0.27 0.27,-0.27 0.15,0 0.27,0.12 0.27,0.27l0 0.19 0.41 0 0 -0.19c0,-0.15 0.12,-0.27 0.27,-0.27 0.15,0 0.27,0.12 0.27,0.27l0 0.19 0.41 0 0 -0.19c0,-0.15 0.12,-0.27 0.27,-0.27 0.15,0 0.27,0.12 0.27,0.27l0 0.19 0.45 0c0.79,0 1.43,0.64 1.43,1.43l0 6.75c0,0.15 -0.12,0.27 -0.27,0.27zm-7.32 -0.54l7.05 0 0 -6.47c0,-0.49 -0.4,-0.89 -0.89,-0.89l-5.27 0c-0.49,0 -0.89,0.4 -0.89,0.89l0 6.47zm-2.69 0.54l-6.51 0c-0.15,0 -0.27,-0.12 -0.27,-0.27l0 -20.97c0,-0.85 0.69,-1.54 1.54,-1.54l3.98 0c0.85,0 1.54,0.69 1.54,1.54l0 20.97c0,0.15 -0.12,0.27 -0.27,0.27zm-6.24 -0.54l5.97 0 0 -20.7c0,-0.55 -0.45,-0.99 -0.99,-0.99l-3.98 0c-0.55,0 -0.99,0.45 -0.99,0.99l0 20.7zm22.98 -0.81l-2.16 0c-0.15,0 -0.27,-0.12 -0.27,-0.27 0,-0.15 0.12,-0.27 0.27,-0.27l2.16 0c0.15,0 0.27,0.12 0.27,0.27 0,0.15 -0.12,0.27 -0.27,0.27zm-10.53 0c-0.76,0 -1.38,-0.62 -1.38,-1.38 0,-0.76 0.62,-1.38 1.38,-1.38 0.76,0 1.38,0.62 1.38,1.38 0,0.76 -0.62,1.38 -1.38,1.38zm0 -2.22c-0.46,0 -0.84,0.38 -0.84,0.84 0,0.46 0.38,0.84 0.84,0.84 0.46,0 0.84,-0.38 0.84,-0.84 0,-0.46 -0.38,-0.84 -0.84,-0.84zm-8.39 2.22l-2.16 0c-0.15,0 -0.27,-0.12 -0.27,-0.27 0,-0.15 0.12,-0.27 0.27,-0.27l2.16 0c0.15,0 0.27,0.12 0.27,0.27 0,0.15 -0.12,0.27 -0.27,0.27zm17.84 -9.95c-1.23,0 -2.24,-1 -2.24,-2.24 0,-1.23 1,-2.24 2.24,-2.24 1.23,0 2.24,1 2.24,2.24 0,1.23 -1,2.24 -2.24,2.24zm0 -3.93c-0.93,0 -1.69,0.76 -1.69,1.69 0,0.93 0.76,1.69 1.69,1.69 0.93,0 1.69,-0.76 1.69,-1.69 0,-0.93 -0.76,-1.69 -1.69,-1.69zm-18.92 3.93c-1.23,0 -2.24,-1 -2.24,-2.24 0,-1.23 1,-2.24 2.24,-2.24 1.23,0 2.24,1 2.24,2.24 0,1.23 -1,2.24 -2.24,2.24zm0 -3.93c-0.93,0 -1.69,0.76 -1.69,1.69 0,0.93 0.76,1.69 1.69,1.69 0.93,0 1.69,-0.76 1.69,-1.69 0,-0.93 -0.76,-1.69 -1.69,-1.69zm18.92 2.67c-0.54,0 -0.97,-0.44 -0.97,-0.97 0,-0.54 0.44,-0.97 0.97,-0.97 0.54,0 0.97,0.44 0.97,0.97 0,0.54 -0.44,0.97 -0.97,0.97zm0 -1.4c-0.24,0 -0.43,0.19 -0.43,0.43 0,0.24 0.19,0.43 0.43,0.43 0.24,0 0.43,-0.19 0.43,-0.43 0,-0.24 -0.19,-0.43 -0.43,-0.43zm-18.92 1.4c-0.54,0 -0.97,-0.44 -0.97,-0.97 0,-0.54 0.44,-0.97 0.97,-0.97 0.54,0 0.97,0.44 0.97,0.97 0,0.54 -0.44,0.97 -0.97,0.97zm0 -1.4c-0.24,0 -0.43,0.19 -0.43,0.43 0,0.24 0.19,0.43 0.43,0.43 0.24,0 0.43,-0.19 0.43,-0.43 0,-0.24 -0.19,-0.43 -0.43,-0.43zm18.92 -2.84c-1.23,0 -2.24,-1 -2.24,-2.24 0,-1.23 1,-2.24 2.24,-2.24 1.23,0 2.24,1 2.24,2.24 0,1.23 -1,2.24 -2.24,2.24zm0 -3.93c-0.93,0 -1.69,0.76 -1.69,1.69 0,0.93 0.76,1.69 1.69,1.69 0.93,0 1.69,-0.76 1.69,-1.69 0,-0.93 -0.76,-1.69 -1.69,-1.69zm-18.92 3.93c-1.23,0 -2.24,-1 -2.24,-2.24 0,-1.23 1,-2.24 2.24,-2.24 1.23,0 2.24,1 2.24,2.24 0,1.23 -1,2.24 -2.24,2.24zm0 -3.93c-0.93,0 -1.69,0.76 -1.69,1.69 0,0.93 0.76,1.69 1.69,1.69 0.93,0 1.69,-0.76 1.69,-1.69 0,-0.93 -0.76,-1.69 -1.69,-1.69zm18.92 2.67c-0.54,0 -0.97,-0.44 -0.97,-0.97 0,-0.54 0.44,-0.97 0.97,-0.97 0.54,0 0.97,0.44 0.97,0.97 0,0.54 -0.44,0.97 -0.97,0.97zm0 -1.4c-0.24,0 -0.43,0.19 -0.43,0.43 0,0.24 0.19,0.43 0.43,0.43 0.24,0 0.43,-0.19 0.43,-0.43 0,-0.24 -0.19,-0.43 -0.43,-0.43zm-18.92 1.4c-0.54,0 -0.97,-0.44 -0.97,-0.97 0,-0.54 0.44,-0.97 0.97,-0.97 0.54,0 0.97,0.44 0.97,0.97 0,0.54 -0.44,0.97 -0.97,0.97zm0 -1.4c-0.24,0 -0.43,0.19 -0.43,0.43 0,0.24 0.19,0.43 0.43,0.43 0.24,0 0.43,-0.19 0.43,-0.43 0,-0.24 -0.19,-0.43 -0.43,-0.43z"/>
 </g>
</svg>
