<?xml version="1.0" encoding="utf-8"?>
<!-- Generator: Adobe Illustrator 24.0.2, SVG Export Plug-In . SVG Version: 6.00 Build 0)  -->
<svg version="1.1" id="Warstwa_1" xmlns="http://www.w3.org/2000/svg" xmlns:xlink="http://www.w3.org/1999/xlink" x="0px" y="0px"
	 viewBox="0 0 216.7 72" style="enable-background:new 0 0 216.7 72;" xml:space="preserve">
<style type="text/css">
	.st0{fill:#164194;}
	.st1{fill:#FFED00;}
</style>
<g>
	<rect x="137.5" y="14.9" class="st0" width="64.1" height="42.8"/>
	<polygon class="st1" points="168.2,24.3 169.6,23.3 170.9,24.3 170.4,22.7 171.8,21.7 170.1,21.7 169.6,20.1 169,21.7 167.3,21.7 
		168.7,22.7 	"/>
	<polygon class="st1" points="161.2,26.1 162.6,25.2 163.9,26.1 163.4,24.5 164.8,23.6 163.1,23.6 162.6,21.9 162,23.6 160.3,23.6 
		161.7,24.5 	"/>
	<polygon class="st1" points="157.4,27.1 156.9,28.7 155.2,28.7 156.6,29.7 156.1,31.3 157.4,30.3 158.8,31.3 158.3,29.7 
		159.6,28.7 158,28.7 	"/>
	<polygon class="st1" points="155.6,37.3 156.9,38.3 156.4,36.7 157.8,35.7 156.1,35.7 155.6,34.1 155,35.7 153.3,35.7 154.7,36.7 
		154.2,38.3 	"/>
	<polygon class="st1" points="158,42.7 157.4,41.1 156.9,42.7 155.2,42.7 156.6,43.7 156.1,45.3 157.4,44.3 158.8,45.3 158.3,43.7 
		159.6,42.7 	"/>
	<polygon class="st1" points="163.1,47.8 162.6,46.2 162,47.8 160.4,47.8 161.7,48.8 161.2,50.4 162.6,49.4 163.9,50.4 163.4,48.8 
		164.8,47.8 	"/>
	<polygon class="st1" points="170.1,49.7 169.6,48.1 169,49.7 167.3,49.7 168.7,50.7 168.2,52.3 169.6,51.3 170.9,52.3 170.4,50.7 
		171.8,49.7 	"/>
	<polygon class="st1" points="177.1,47.8 176.6,46.2 176,47.8 174.3,47.8 175.7,48.8 175.2,50.4 176.6,49.4 177.9,50.4 177.4,48.8 
		178.8,47.8 	"/>
	<polygon class="st1" points="182.2,42.7 181.7,41.1 181.2,42.7 179.5,42.7 180.9,43.7 180.3,45.3 181.7,44.3 183,45.3 182.5,43.7 
		183.9,42.7 	"/>
	<polygon class="st1" points="185.8,35.7 184.1,35.7 183.6,34.1 183,35.7 181.3,35.7 182.7,36.7 182.2,38.3 183.6,37.3 184.9,38.3 
		184.4,36.7 	"/>
	<polygon class="st1" points="180.3,31.3 181.7,30.3 183,31.3 182.5,29.7 183.9,28.7 182.2,28.7 181.7,27.1 181.2,28.7 179.5,28.7 
		180.9,29.7 	"/>
	<polygon class="st1" points="176.6,21.9 176.1,23.6 174.4,23.6 175.7,24.5 175.2,26.1 176.6,25.2 177.9,26.1 177.4,24.5 
		178.8,23.6 177.1,23.6 	"/>
	<g>
		<path d="M18.7,28.5c-0.7,0-1.3-0.1-1.8-0.3c-0.5-0.2-0.9-0.5-1.3-0.9c-0.3-0.4-0.6-0.8-0.7-1.3c-0.2-0.5-0.2-1-0.2-1.6v-6.4h1.9
			v6.2c0,0.5,0.1,0.9,0.2,1.2c0.1,0.3,0.3,0.6,0.4,0.8c0.2,0.2,0.4,0.4,0.7,0.5c0.3,0.1,0.6,0.1,0.9,0.1c0.3,0,0.6,0,0.9-0.1
			c0.3-0.1,0.5-0.3,0.7-0.5c0.2-0.2,0.3-0.5,0.4-0.8c0.1-0.3,0.2-0.7,0.2-1.2v-6.2h1.9v6.4c0,0.6-0.1,1.1-0.2,1.6
			c-0.2,0.5-0.4,0.9-0.7,1.3c-0.3,0.4-0.8,0.6-1.3,0.9C20,28.4,19.4,28.5,18.7,28.5z"/>
		<path d="M25,20.8c0.3-0.1,0.8-0.2,1.3-0.3c0.6-0.1,1.2-0.1,1.8-0.1c0.6,0,1.2,0.1,1.6,0.3c0.4,0.2,0.8,0.4,1,0.7
			c0.3,0.3,0.4,0.7,0.5,1.1c0.1,0.4,0.2,0.9,0.2,1.4v4.4h-1.8v-4.1c0-0.4,0-0.8-0.1-1.1c-0.1-0.3-0.1-0.5-0.3-0.7s-0.3-0.3-0.5-0.4
			C28.7,22,28.4,22,28.1,22c-0.2,0-0.5,0-0.7,0c-0.2,0-0.4,0.1-0.5,0.1v6.3H25V20.8z"/>
		<path d="M35.7,18.3c0,0.3-0.1,0.6-0.3,0.8c-0.2,0.2-0.5,0.3-0.8,0.3c-0.3,0-0.6-0.1-0.8-0.3c-0.2-0.2-0.3-0.5-0.3-0.8
			c0-0.3,0.1-0.6,0.3-0.8c0.2-0.2,0.5-0.3,0.8-0.3c0.3,0,0.6,0.1,0.8,0.3C35.6,17.7,35.7,18,35.7,18.3z M35.5,28.3h-1.8v-7.8h1.8
			V28.3z"/>
		<path d="M40.4,20.4c0.6,0,1.1,0.1,1.5,0.2c0.4,0.1,0.7,0.4,1,0.6c0.2,0.3,0.4,0.6,0.5,1c0.1,0.4,0.2,0.8,0.2,1.3v4.7
			c-0.3,0.1-0.7,0.1-1.3,0.2c-0.6,0.1-1.2,0.1-1.9,0.1c-0.5,0-0.9,0-1.3-0.1c-0.4-0.1-0.7-0.2-1-0.4c-0.3-0.2-0.5-0.5-0.6-0.8
			c-0.2-0.3-0.2-0.7-0.2-1.2c0-0.4,0.1-0.8,0.3-1.1c0.2-0.3,0.4-0.6,0.7-0.7c0.3-0.2,0.6-0.3,1-0.4c0.4-0.1,0.8-0.1,1.2-0.1
			c0.2,0,0.4,0,0.6,0c0.2,0,0.4,0.1,0.7,0.1v-0.3c0-0.2,0-0.4-0.1-0.6c0-0.2-0.1-0.4-0.3-0.5c-0.1-0.1-0.3-0.3-0.5-0.3
			c-0.2-0.1-0.5-0.1-0.8-0.1c-0.4,0-0.8,0-1.1,0.1c-0.3,0.1-0.6,0.1-0.8,0.2L38,20.7c0.2-0.1,0.6-0.2,1-0.2
			C39.4,20.4,39.9,20.4,40.4,20.4z M40.5,27.1c0.6,0,1,0,1.3-0.1v-2c-0.1,0-0.2-0.1-0.4-0.1c-0.2,0-0.4,0-0.6,0c-0.2,0-0.4,0-0.6,0
			c-0.2,0-0.4,0.1-0.5,0.2c-0.2,0.1-0.3,0.2-0.4,0.3c-0.1,0.1-0.1,0.3-0.1,0.5c0,0.4,0.1,0.7,0.4,0.9C39.7,27,40.1,27.1,40.5,27.1z"
			/>
		<path d="M49.3,28.3V18.1h6.6v1.6h-4.7v2.5h4.2v1.6h-4.2v3h5.1v1.6H49.3z"/>
	</g>
	<g>
		<path d="M64,28.1c-0.3,0.1-0.8,0.2-1.3,0.3c-0.6,0.1-1.2,0.1-1.8,0.1c-0.6,0-1.1-0.1-1.6-0.3c-0.4-0.2-0.8-0.4-1-0.7
			c-0.3-0.3-0.4-0.7-0.5-1.1c-0.1-0.4-0.2-0.9-0.2-1.4v-4.3h1.8v4.1c0,0.8,0.1,1.4,0.4,1.8c0.2,0.4,0.7,0.5,1.3,0.5
			c0.2,0,0.4,0,0.7,0c0.2,0,0.4,0,0.5-0.1v-6.3H64V28.1z"/>
		<path d="M70.7,22.2c-0.1,0-0.4-0.1-0.6-0.2C69.8,22,69.5,22,69.1,22c-0.2,0-0.4,0-0.6,0.1c-0.2,0-0.4,0.1-0.5,0.1v6.2h-1.8v-7.4
			c0.3-0.1,0.8-0.2,1.3-0.4c0.5-0.1,1.1-0.2,1.7-0.2c0.1,0,0.3,0,0.4,0c0.2,0,0.3,0,0.5,0.1c0.2,0,0.3,0.1,0.5,0.1
			c0.1,0,0.3,0.1,0.4,0.1L70.7,22.2z"/>
		<path d="M79.2,24.4c0,0.6-0.1,1.2-0.3,1.7c-0.2,0.5-0.4,0.9-0.8,1.3c-0.3,0.4-0.7,0.6-1.2,0.8c-0.5,0.2-1,0.3-1.5,0.3
			c-0.6,0-1.1-0.1-1.5-0.3c-0.5-0.2-0.8-0.5-1.2-0.8c-0.3-0.4-0.6-0.8-0.8-1.3c-0.2-0.5-0.3-1.1-0.3-1.7s0.1-1.2,0.3-1.7
			c0.2-0.5,0.4-0.9,0.8-1.3c0.3-0.4,0.7-0.6,1.2-0.8c0.5-0.2,1-0.3,1.5-0.3c0.5,0,1,0.1,1.5,0.3c0.5,0.2,0.9,0.5,1.2,0.8
			c0.3,0.4,0.6,0.8,0.8,1.3C79.1,23.3,79.2,23.8,79.2,24.4z M77.4,24.4c0-0.8-0.2-1.4-0.5-1.8c-0.3-0.4-0.8-0.7-1.4-0.7
			c-0.6,0-1.1,0.2-1.4,0.7c-0.3,0.4-0.5,1.1-0.5,1.8c0,0.8,0.2,1.4,0.5,1.9c0.3,0.5,0.8,0.7,1.4,0.7c0.6,0,1.1-0.2,1.4-0.7
			C77.2,25.8,77.4,25.2,77.4,24.4z"/>
		<path d="M88.1,24.5c0,0.6-0.1,1.1-0.2,1.6c-0.2,0.5-0.4,0.9-0.7,1.3c-0.3,0.4-0.6,0.6-1.1,0.8c-0.4,0.2-0.9,0.3-1.5,0.3
			c-0.4,0-0.7,0-1-0.1c-0.3-0.1-0.6-0.2-0.8-0.3v3h-1.8V20.8c0.4-0.1,0.8-0.2,1.3-0.3c0.5-0.1,1.1-0.1,1.7-0.1
			c0.6,0,1.2,0.1,1.6,0.3c0.5,0.2,0.9,0.5,1.2,0.8c0.3,0.4,0.6,0.8,0.8,1.3C88,23.3,88.1,23.8,88.1,24.5z M86.2,24.5
			c0-0.8-0.2-1.4-0.5-1.9c-0.4-0.4-0.9-0.7-1.7-0.7c-0.2,0-0.3,0-0.5,0c-0.2,0-0.4,0-0.5,0.1v4.4c0.2,0.1,0.4,0.2,0.6,0.3
			c0.3,0.1,0.5,0.1,0.8,0.1c0.7,0,1.1-0.2,1.4-0.7C86.1,25.8,86.2,25.2,86.2,24.5z"/>
		<path d="M89.5,24.5c0-0.7,0.1-1.3,0.3-1.8c0.2-0.5,0.5-0.9,0.8-1.3c0.3-0.3,0.7-0.6,1.2-0.8c0.4-0.2,0.9-0.3,1.3-0.3
			c1.1,0,1.9,0.3,2.5,1c0.6,0.7,0.9,1.7,0.9,3c0,0.1,0,0.2,0,0.3c0,0.1,0,0.2,0,0.3h-5.1c0,0.6,0.3,1.1,0.7,1.4
			c0.4,0.3,1,0.5,1.7,0.5c0.4,0,0.8,0,1.2-0.1c0.4-0.1,0.6-0.2,0.9-0.3l0.2,1.5c-0.1,0-0.2,0.1-0.4,0.2c-0.2,0.1-0.4,0.1-0.6,0.1
			c-0.2,0-0.5,0.1-0.7,0.1c-0.3,0-0.5,0-0.8,0c-0.7,0-1.3-0.1-1.8-0.3c-0.5-0.2-0.9-0.5-1.2-0.8c-0.3-0.4-0.6-0.8-0.7-1.3
			C89.6,25.6,89.5,25.1,89.5,24.5z M94.7,23.7c0-0.2,0-0.5-0.1-0.7c-0.1-0.2-0.2-0.4-0.3-0.6c-0.1-0.2-0.3-0.3-0.5-0.4
			c-0.2-0.1-0.4-0.1-0.7-0.1c-0.3,0-0.5,0.1-0.7,0.2c-0.2,0.1-0.4,0.2-0.5,0.4c-0.1,0.2-0.3,0.4-0.3,0.6c-0.1,0.2-0.1,0.4-0.2,0.7
			H94.7z"/>
		<path d="M97.4,31.1c-0.1,0-0.3,0-0.5,0c-0.2,0-0.4-0.1-0.6-0.1l0.2-1.5c0.2,0.1,0.5,0.1,0.8,0.1c0.4,0,0.7-0.1,0.9-0.4
			c0.2-0.2,0.3-0.6,0.3-1.1v-7.5h1.8v7.5c0,1-0.2,1.8-0.7,2.2C99,30.8,98.3,31.1,97.4,31.1z M100.4,18.3c0,0.3-0.1,0.6-0.3,0.8
			c-0.2,0.2-0.5,0.3-0.8,0.3c-0.3,0-0.6-0.1-0.8-0.3c-0.2-0.2-0.3-0.5-0.3-0.8c0-0.3,0.1-0.6,0.3-0.8c0.2-0.2,0.5-0.3,0.8-0.3
			c0.3,0,0.6,0.1,0.8,0.3C100.3,17.7,100.4,18,100.4,18.3z"/>
		<path d="M104.4,27c0.5,0,0.8-0.1,1-0.2c0.2-0.1,0.3-0.3,0.3-0.6c0-0.3-0.1-0.5-0.3-0.6c-0.2-0.2-0.6-0.4-1.1-0.5
			c-0.3-0.1-0.6-0.2-0.9-0.4c-0.3-0.1-0.5-0.3-0.7-0.5c-0.2-0.2-0.4-0.4-0.5-0.6c-0.1-0.3-0.2-0.6-0.2-0.9c0-0.7,0.3-1.3,0.8-1.7
			c0.5-0.4,1.2-0.6,2.1-0.6c0.5,0,0.9,0,1.3,0.1c0.4,0.1,0.7,0.2,0.9,0.2l-0.3,1.5c-0.2-0.1-0.4-0.2-0.8-0.2
			c-0.3-0.1-0.7-0.1-1.1-0.1c-0.4,0-0.7,0.1-0.9,0.2c-0.2,0.1-0.3,0.3-0.3,0.6c0,0.1,0,0.2,0.1,0.3c0,0.1,0.1,0.2,0.2,0.3
			c0.1,0.1,0.3,0.2,0.4,0.3c0.2,0.1,0.4,0.2,0.7,0.3c0.4,0.2,0.8,0.3,1.1,0.5c0.3,0.2,0.5,0.3,0.7,0.5c0.2,0.2,0.3,0.4,0.4,0.7
			c0.1,0.2,0.1,0.5,0.1,0.9c0,0.7-0.3,1.3-0.8,1.7c-0.5,0.4-1.3,0.6-2.3,0.6c-0.7,0-1.2-0.1-1.6-0.2c-0.4-0.1-0.7-0.2-0.9-0.3
			l0.3-1.5c0.3,0.1,0.6,0.2,1,0.3C103.5,27,103.9,27,104.4,27z"/>
		<path d="M111,23.6c0.2-0.2,0.5-0.5,0.7-0.8c0.3-0.3,0.5-0.5,0.8-0.8c0.2-0.3,0.5-0.5,0.7-0.8c0.2-0.3,0.4-0.5,0.6-0.7h2.1
			c-0.5,0.6-1,1.1-1.6,1.7c-0.5,0.6-1.1,1.2-1.6,1.7c0.3,0.2,0.6,0.5,0.9,0.9c0.3,0.4,0.6,0.7,0.9,1.1c0.3,0.4,0.6,0.8,0.9,1.2
			c0.3,0.4,0.5,0.8,0.7,1.1H114c-0.2-0.3-0.4-0.6-0.6-1c-0.2-0.3-0.5-0.7-0.7-1c-0.3-0.3-0.5-0.6-0.8-0.9c-0.3-0.3-0.5-0.5-0.8-0.7
			v3.6h-1.8V17.1l1.8-0.3V23.6z"/>
		<path d="M120,20.4c0.6,0,1.1,0.1,1.5,0.2c0.4,0.1,0.7,0.4,1,0.6c0.2,0.3,0.4,0.6,0.5,1c0.1,0.4,0.2,0.8,0.2,1.3v4.7
			c-0.3,0.1-0.7,0.1-1.3,0.2c-0.6,0.1-1.2,0.1-1.9,0.1c-0.5,0-0.9,0-1.3-0.1c-0.4-0.1-0.7-0.2-1-0.4c-0.3-0.2-0.5-0.5-0.6-0.8
			c-0.2-0.3-0.2-0.7-0.2-1.2c0-0.4,0.1-0.8,0.3-1.1c0.2-0.3,0.4-0.6,0.7-0.7c0.3-0.2,0.6-0.3,1-0.4c0.4-0.1,0.8-0.1,1.2-0.1
			c0.2,0,0.4,0,0.6,0c0.2,0,0.4,0.1,0.7,0.1v-0.3c0-0.2,0-0.4-0.1-0.6c0-0.2-0.1-0.4-0.3-0.5c-0.1-0.1-0.3-0.3-0.5-0.3
			s-0.5-0.1-0.8-0.1c-0.4,0-0.8,0-1.1,0.1c-0.3,0.1-0.6,0.1-0.8,0.2l-0.2-1.5c0.2-0.1,0.6-0.2,1-0.2C119,20.4,119.5,20.4,120,20.4z
			 M120.1,27.1c0.6,0,1,0,1.3-0.1v-2c-0.1,0-0.2-0.1-0.4-0.1c-0.2,0-0.4,0-0.6,0c-0.2,0-0.4,0-0.6,0c-0.2,0-0.4,0.1-0.5,0.2
			s-0.3,0.2-0.4,0.3c-0.1,0.1-0.1,0.3-0.1,0.5c0,0.4,0.1,0.7,0.4,0.9C119.3,27,119.7,27.1,120.1,27.1z"/>
	</g>
	<g>
		<path d="M37.6,42.7v-6.9h4.2v0.8h-3.3v2.1h2.9v0.8h-2.9v2.4h3.5v0.8H37.6z"/>
	</g>
	<g>
		<path d="M47.2,42.6c-0.2,0.1-0.5,0.1-0.8,0.2c-0.4,0.1-0.8,0.1-1.2,0.1c-0.4,0-0.7-0.1-1-0.2c-0.3-0.1-0.5-0.3-0.7-0.5
			c-0.2-0.2-0.3-0.5-0.4-0.8c-0.1-0.3-0.1-0.6-0.1-1v-2.9H44v2.7c0,0.6,0.1,1.1,0.3,1.4c0.2,0.3,0.5,0.4,1,0.4c0.1,0,0.2,0,0.3,0
			c0.1,0,0.2,0,0.3,0c0.1,0,0.2,0,0.3,0c0.1,0,0.1,0,0.2,0v-4.4h0.9V42.6z"/>
		<path d="M50.7,37.4c0.1,0,0.2,0,0.3,0c0.1,0,0.2,0,0.3,0c0.1,0,0.2,0,0.3,0.1c0.1,0,0.1,0,0.2,0l-0.2,0.8c-0.1,0-0.2-0.1-0.4-0.1
			c-0.2,0-0.4-0.1-0.7-0.1c-0.2,0-0.3,0-0.5,0.1c-0.2,0-0.3,0.1-0.3,0.1v4.4h-0.9v-5c0.2-0.1,0.5-0.2,0.8-0.2
			C50,37.4,50.3,37.4,50.7,37.4z"/>
		<path d="M57.3,40.1c0,0.4-0.1,0.8-0.2,1.1c-0.1,0.3-0.3,0.6-0.5,0.9c-0.2,0.2-0.5,0.4-0.8,0.6c-0.3,0.1-0.6,0.2-1,0.2
			c-0.4,0-0.7-0.1-1-0.2c-0.3-0.1-0.6-0.3-0.8-0.6s-0.4-0.5-0.5-0.9c-0.1-0.3-0.2-0.7-0.2-1.1c0-0.4,0.1-0.8,0.2-1.1
			c0.1-0.3,0.3-0.6,0.5-0.9c0.2-0.2,0.5-0.4,0.8-0.6c0.3-0.1,0.6-0.2,1-0.2c0.4,0,0.7,0.1,1,0.2c0.3,0.1,0.6,0.3,0.8,0.6
			c0.2,0.2,0.4,0.5,0.5,0.9C57.2,39.3,57.3,39.7,57.3,40.1z M56.3,40.1c0-0.6-0.1-1.1-0.4-1.4c-0.3-0.3-0.6-0.5-1.1-0.5
			c-0.5,0-0.8,0.2-1.1,0.5c-0.3,0.3-0.4,0.8-0.4,1.4c0,0.6,0.1,1.1,0.4,1.4c0.3,0.3,0.6,0.5,1.1,0.5c0.5,0,0.8-0.2,1.1-0.5
			C56.2,41.2,56.3,40.7,56.3,40.1z"/>
		<path d="M63.2,40.1c0,0.4-0.1,0.8-0.2,1.1c-0.1,0.3-0.3,0.6-0.5,0.9c-0.2,0.2-0.4,0.4-0.7,0.6c-0.3,0.1-0.6,0.2-1,0.2
			c-0.3,0-0.6,0-0.8-0.1c-0.2-0.1-0.4-0.2-0.5-0.2v2.1h-0.9v-6.9c0.2-0.1,0.5-0.1,0.8-0.2c0.3-0.1,0.7-0.1,1.1-0.1
			c0.4,0,0.8,0.1,1.1,0.2c0.3,0.1,0.6,0.3,0.8,0.5c0.2,0.2,0.4,0.5,0.5,0.9C63.1,39.3,63.2,39.7,63.2,40.1z M62.2,40.1
			c0-0.6-0.2-1.1-0.5-1.4c-0.3-0.3-0.7-0.5-1.2-0.5c-0.3,0-0.5,0-0.7,0c-0.2,0-0.3,0-0.4,0.1v3.3c0.1,0.1,0.3,0.2,0.5,0.3
			c0.2,0.1,0.4,0.1,0.7,0.1c0.3,0,0.5,0,0.7-0.1c0.2-0.1,0.3-0.2,0.5-0.4c0.1-0.2,0.2-0.4,0.3-0.6C62.2,40.6,62.2,40.4,62.2,40.1z"
			/>
		<path d="M64.2,40.1c0-0.5,0.1-0.9,0.2-1.2c0.1-0.3,0.3-0.6,0.5-0.9c0.2-0.2,0.5-0.4,0.8-0.5c0.3-0.1,0.6-0.2,0.9-0.2
			c0.7,0,1.2,0.2,1.6,0.7c0.4,0.4,0.6,1.1,0.6,2c0,0,0,0.1,0,0.2c0,0.1,0,0.1,0,0.2h-3.6c0,0.5,0.2,1,0.5,1.2
			c0.3,0.3,0.7,0.4,1.3,0.4c0.3,0,0.6,0,0.8-0.1c0.2-0.1,0.4-0.1,0.5-0.2l0.1,0.8c-0.1,0.1-0.3,0.1-0.6,0.2c-0.3,0.1-0.6,0.1-1,0.1
			c-0.5,0-0.8-0.1-1.2-0.2c-0.3-0.1-0.6-0.3-0.8-0.6c-0.2-0.2-0.4-0.5-0.5-0.9C64.3,40.9,64.2,40.5,64.2,40.1z M67.8,39.6
			c0-0.4-0.1-0.8-0.3-1c-0.2-0.3-0.5-0.4-0.9-0.4c-0.2,0-0.4,0-0.6,0.1c-0.2,0.1-0.3,0.2-0.4,0.3c-0.1,0.1-0.2,0.3-0.3,0.5
			c-0.1,0.2-0.1,0.4-0.1,0.5H67.8z"/>
		<path d="M69.2,44.6c-0.1,0-0.2,0-0.3,0c-0.1,0-0.2,0-0.3-0.1l0.1-0.8c0.1,0,0.1,0,0.2,0.1c0.1,0,0.2,0,0.2,0
			c0.3,0,0.5-0.1,0.7-0.3c0.1-0.2,0.2-0.5,0.2-0.9v-5.1H71v5.1c0,0.7-0.2,1.2-0.5,1.5C70.3,44.4,69.8,44.6,69.2,44.6z M70.5,36.6
			c-0.2,0-0.3-0.1-0.4-0.2c-0.1-0.1-0.2-0.3-0.2-0.4c0-0.2,0.1-0.3,0.2-0.4c0.1-0.1,0.3-0.2,0.4-0.2s0.3,0.1,0.4,0.2
			c0.1,0.1,0.2,0.3,0.2,0.4c0,0.2-0.1,0.3-0.2,0.4C70.9,36.5,70.7,36.6,70.5,36.6z"/>
		<path d="M73.8,42.1c0.4,0,0.7,0,0.8-0.1c0.2-0.1,0.3-0.3,0.3-0.5c0-0.2-0.1-0.4-0.3-0.5c-0.2-0.1-0.5-0.3-0.9-0.5
			c-0.2-0.1-0.4-0.2-0.6-0.2s-0.3-0.2-0.5-0.3c-0.1-0.1-0.2-0.3-0.3-0.4c-0.1-0.2-0.1-0.4-0.1-0.6c0-0.5,0.2-0.8,0.5-1.1
			c0.3-0.3,0.8-0.4,1.4-0.4c0.1,0,0.3,0,0.4,0c0.1,0,0.3,0,0.4,0.1c0.1,0,0.2,0,0.3,0.1c0.1,0,0.2,0.1,0.2,0.1l-0.2,0.8
			c-0.1-0.1-0.3-0.1-0.5-0.2c-0.2-0.1-0.5-0.1-0.8-0.1c-0.3,0-0.5,0.1-0.7,0.2c-0.2,0.1-0.3,0.3-0.3,0.5c0,0.1,0,0.2,0.1,0.3
			c0,0.1,0.1,0.2,0.2,0.2c0.1,0.1,0.2,0.1,0.3,0.2c0.1,0.1,0.3,0.1,0.5,0.2c0.2,0.1,0.5,0.2,0.7,0.3c0.2,0.1,0.4,0.2,0.5,0.3
			c0.1,0.1,0.2,0.3,0.3,0.4c0.1,0.2,0.1,0.4,0.1,0.6c0,0.5-0.2,0.8-0.5,1.1c-0.4,0.2-0.9,0.4-1.5,0.4c-0.5,0-0.8,0-1.1-0.1
			c-0.3-0.1-0.4-0.1-0.5-0.2l0.2-0.8c0.1,0,0.3,0.1,0.5,0.2C73.1,42,73.4,42.1,73.8,42.1z"/>
		<path d="M79,39.9c0.2,0.2,0.4,0.3,0.6,0.6c0.2,0.2,0.4,0.5,0.7,0.7c0.2,0.3,0.4,0.5,0.6,0.8c0.2,0.3,0.4,0.5,0.5,0.8h-1.1
			c-0.1-0.2-0.3-0.5-0.5-0.7c-0.2-0.2-0.4-0.5-0.6-0.7c-0.2-0.2-0.4-0.4-0.6-0.6c-0.2-0.2-0.4-0.3-0.6-0.5v2.5h-0.9v-7.6L78,35v4.7
			c0.2-0.2,0.3-0.3,0.5-0.5c0.2-0.2,0.4-0.4,0.6-0.6c0.2-0.2,0.4-0.4,0.5-0.6c0.2-0.2,0.3-0.3,0.4-0.5h1.1c-0.2,0.2-0.3,0.4-0.5,0.6
			c-0.2,0.2-0.4,0.4-0.6,0.6c-0.2,0.2-0.4,0.4-0.6,0.6C79.3,39.5,79.1,39.7,79,39.9z"/>
		<path d="M82.8,36.6c-0.2,0-0.3-0.1-0.4-0.2c-0.1-0.1-0.2-0.3-0.2-0.4c0-0.2,0.1-0.3,0.2-0.4c0.1-0.1,0.3-0.2,0.4-0.2
			s0.3,0.1,0.4,0.2c0.1,0.1,0.2,0.3,0.2,0.4c0,0.2-0.1,0.3-0.2,0.4C83.1,36.5,82.9,36.6,82.8,36.6z M83.2,42.7h-0.9v-5.2h0.9V42.7z"
			/>
		<path d="M87.2,42.7v-6.9h4.2v0.8h-3.2v2.1H91v0.8h-2.9v3.2H87.2z"/>
	</g>
	<g>
		<path d="M96.4,42.6c-0.2,0.1-0.5,0.1-0.8,0.2c-0.4,0.1-0.8,0.1-1.2,0.1c-0.4,0-0.7-0.1-1-0.2c-0.3-0.1-0.5-0.3-0.7-0.5
			c-0.2-0.2-0.3-0.5-0.4-0.8c-0.1-0.3-0.1-0.6-0.1-1v-2.9h0.9v2.7c0,0.6,0.1,1.1,0.3,1.4c0.2,0.3,0.5,0.4,1,0.4c0.1,0,0.2,0,0.3,0
			c0.1,0,0.2,0,0.3,0c0.1,0,0.2,0,0.3,0c0.1,0,0.1,0,0.2,0v-4.4h0.9V42.6z"/>
		<path d="M98,37.7c0.2-0.1,0.5-0.1,0.9-0.2c0.4-0.1,0.8-0.1,1.2-0.1c0.4,0,0.8,0.1,1,0.2c0.3,0.1,0.5,0.3,0.7,0.5
			c0.2,0.2,0.3,0.5,0.3,0.8c0.1,0.3,0.1,0.6,0.1,1v2.9h-0.9V40c0-0.3,0-0.6-0.1-0.8c0-0.2-0.1-0.4-0.2-0.6c-0.1-0.1-0.2-0.2-0.4-0.3
			c-0.2-0.1-0.4-0.1-0.6-0.1c-0.1,0-0.2,0-0.3,0c-0.1,0-0.2,0-0.3,0c-0.1,0-0.2,0-0.3,0c-0.1,0-0.1,0-0.2,0v4.4H98V37.7z"/>
		<path d="M107.1,35.1l0.9-0.2v7.6c-0.2,0.1-0.5,0.1-0.8,0.2c-0.3,0.1-0.7,0.1-1.2,0.1c-0.4,0-0.8-0.1-1.1-0.2
			c-0.3-0.1-0.6-0.3-0.8-0.5c-0.2-0.2-0.4-0.5-0.5-0.9c-0.1-0.3-0.2-0.7-0.2-1.1c0-0.4,0.1-0.8,0.2-1.1c0.1-0.3,0.3-0.6,0.5-0.9
			c0.2-0.2,0.4-0.4,0.7-0.6c0.3-0.1,0.6-0.2,1-0.2c0.3,0,0.6,0,0.8,0.1c0.2,0.1,0.4,0.2,0.5,0.2V35.1z M107.1,38.6
			c-0.1-0.1-0.3-0.2-0.5-0.3c-0.2-0.1-0.4-0.1-0.7-0.1c-0.3,0-0.5,0-0.7,0.1c-0.2,0.1-0.3,0.2-0.5,0.4c-0.1,0.2-0.2,0.4-0.3,0.6
			c-0.1,0.2-0.1,0.5-0.1,0.8c0,0.6,0.2,1.1,0.5,1.4c0.3,0.3,0.7,0.5,1.2,0.5c0.3,0,0.5,0,0.6,0c0.2,0,0.3,0,0.4-0.1V38.6z"/>
		<path d="M113.8,42.6c-0.2,0.1-0.5,0.1-0.8,0.2c-0.4,0.1-0.8,0.1-1.2,0.1c-0.4,0-0.7-0.1-1-0.2c-0.3-0.1-0.5-0.3-0.7-0.5
			c-0.2-0.2-0.3-0.5-0.4-0.8c-0.1-0.3-0.1-0.6-0.1-1v-2.9h0.9v2.7c0,0.6,0.1,1.1,0.3,1.4c0.2,0.3,0.5,0.4,1,0.4c0.1,0,0.2,0,0.3,0
			c0.1,0,0.2,0,0.3,0c0.1,0,0.2,0,0.3,0c0.1,0,0.1,0,0.2,0v-4.4h0.9V42.6z"/>
		<path d="M116.6,42.1c0.4,0,0.7,0,0.8-0.1c0.2-0.1,0.3-0.3,0.3-0.5c0-0.2-0.1-0.4-0.3-0.5s-0.5-0.3-0.9-0.5
			c-0.2-0.1-0.4-0.2-0.6-0.2s-0.3-0.2-0.5-0.3c-0.1-0.1-0.2-0.3-0.3-0.4c-0.1-0.2-0.1-0.4-0.1-0.6c0-0.5,0.2-0.8,0.5-1.1
			c0.3-0.3,0.8-0.4,1.4-0.4c0.1,0,0.3,0,0.4,0c0.1,0,0.3,0,0.4,0.1c0.1,0,0.2,0,0.3,0.1c0.1,0,0.2,0.1,0.2,0.1l-0.2,0.8
			c-0.1-0.1-0.3-0.1-0.5-0.2c-0.2-0.1-0.5-0.1-0.8-0.1c-0.3,0-0.5,0.1-0.7,0.2c-0.2,0.1-0.3,0.3-0.3,0.5c0,0.1,0,0.2,0.1,0.3
			c0,0.1,0.1,0.2,0.2,0.2c0.1,0.1,0.2,0.1,0.3,0.2c0.1,0.1,0.3,0.1,0.5,0.2c0.2,0.1,0.5,0.2,0.7,0.3c0.2,0.1,0.4,0.2,0.5,0.3
			c0.1,0.1,0.2,0.3,0.3,0.4c0.1,0.2,0.1,0.4,0.1,0.6c0,0.5-0.2,0.8-0.5,1.1c-0.4,0.2-0.9,0.4-1.5,0.4c-0.5,0-0.8,0-1.1-0.1
			c-0.3-0.1-0.4-0.1-0.5-0.2l0.2-0.8c0.1,0,0.3,0.1,0.5,0.2C115.9,42,116.2,42.1,116.6,42.1z"/>
		<path d="M123.3,38.2c-0.1,0.2-0.3,0.4-0.6,0.7c-0.2,0.3-0.5,0.6-0.7,0.9c-0.3,0.3-0.5,0.7-0.8,1.1c-0.3,0.4-0.5,0.7-0.7,1.1h2.9
			v0.8h-4v-0.6c0.2-0.3,0.4-0.6,0.6-1c0.2-0.4,0.5-0.7,0.7-1.1c0.3-0.4,0.5-0.7,0.8-1c0.2-0.3,0.5-0.6,0.6-0.8h-2.6v-0.8h3.8V38.2z"
			/>
	</g>
	<g>
		<path d="M24.3,51c0.1,0.1,0.2,0.3,0.4,0.5c0.2,0.2,0.3,0.5,0.5,0.7c0.2,0.3,0.3,0.5,0.5,0.8c0.2,0.3,0.3,0.6,0.4,0.8h-1.1
			c-0.1-0.3-0.3-0.5-0.4-0.8c-0.2-0.3-0.3-0.5-0.5-0.7c-0.2-0.2-0.3-0.5-0.5-0.7c-0.2-0.2-0.3-0.4-0.4-0.5c-0.1,0-0.2,0-0.3,0
			c-0.1,0-0.2,0-0.3,0h-0.9v2.7h-1v-6.8c0.3-0.1,0.6-0.1,0.9-0.1c0.3,0,0.6,0,0.9,0c1,0,1.7,0.2,2.2,0.6c0.5,0.4,0.8,0.9,0.8,1.6
			c0,0.5-0.1,0.9-0.4,1.2C25.2,50.6,24.8,50.9,24.3,51z M22.8,47.8c-0.4,0-0.7,0-1,0v2.6h0.7c0.3,0,0.6,0,0.9,0
			c0.3,0,0.5-0.1,0.7-0.2c0.2-0.1,0.3-0.2,0.4-0.4c0.1-0.2,0.2-0.4,0.2-0.7c0-0.3-0.1-0.5-0.2-0.7c-0.1-0.2-0.2-0.3-0.4-0.4
			c-0.2-0.1-0.4-0.2-0.6-0.2C23.4,47.8,23.1,47.8,22.8,47.8z"/>
		<path d="M31.8,51.3c0,0.4-0.1,0.8-0.2,1.1s-0.3,0.6-0.5,0.9c-0.2,0.2-0.5,0.4-0.8,0.6c-0.3,0.1-0.6,0.2-1,0.2
			c-0.4,0-0.7-0.1-1-0.2c-0.3-0.1-0.6-0.3-0.8-0.6c-0.2-0.2-0.4-0.5-0.5-0.9s-0.2-0.7-0.2-1.1c0-0.4,0.1-0.8,0.2-1.1
			c0.1-0.3,0.3-0.6,0.5-0.9c0.2-0.2,0.5-0.4,0.8-0.6c0.3-0.1,0.6-0.2,1-0.2c0.4,0,0.7,0.1,1,0.2c0.3,0.1,0.6,0.3,0.8,0.6
			s0.4,0.5,0.5,0.9C31.7,50.6,31.8,50.9,31.8,51.3z M30.8,51.3c0-0.6-0.1-1.1-0.4-1.4c-0.3-0.3-0.6-0.5-1.1-0.5
			c-0.5,0-0.8,0.2-1.1,0.5c-0.3,0.3-0.4,0.8-0.4,1.4s0.1,1.1,0.4,1.4c0.3,0.3,0.6,0.5,1.1,0.5c0.5,0,0.8-0.2,1.1-0.5
			C30.7,52.4,30.8,51.9,30.8,51.3z"/>
	</g>
	<g>
		<path d="M36.3,49.4c-0.1,0.2-0.3,0.4-0.6,0.7c-0.2,0.3-0.5,0.6-0.7,0.9c-0.3,0.3-0.5,0.7-0.8,1.1c-0.3,0.4-0.5,0.7-0.7,1.1h2.9
			v0.8h-4v-0.6c0.2-0.3,0.4-0.6,0.6-1c0.2-0.4,0.5-0.7,0.7-1.1c0.3-0.4,0.5-0.7,0.8-1c0.2-0.3,0.5-0.6,0.6-0.8h-2.6v-0.8h3.8V49.4z"
			/>
		<path d="M41.8,53.9c-0.2-0.5-0.4-1-0.6-1.6c-0.2-0.6-0.4-1.3-0.6-1.9c-0.2,0.7-0.4,1.3-0.6,1.9c-0.2,0.6-0.4,1.2-0.6,1.6h-0.8
			c-0.3-0.7-0.6-1.5-0.9-2.4c-0.3-0.9-0.6-1.8-0.8-2.9h1c0.1,0.3,0.1,0.7,0.2,1c0.1,0.4,0.2,0.7,0.3,1.1s0.2,0.7,0.3,1.1
			c0.1,0.3,0.2,0.6,0.3,0.9c0.1-0.3,0.2-0.6,0.3-1c0.1-0.4,0.2-0.7,0.3-1.1c0.1-0.4,0.2-0.7,0.3-1.1c0.1-0.3,0.2-0.7,0.2-1h0.8
			c0.1,0.3,0.1,0.6,0.2,1c0.1,0.3,0.2,0.7,0.3,1.1c0.1,0.4,0.2,0.7,0.3,1.1c0.1,0.4,0.2,0.7,0.3,1c0.1-0.3,0.2-0.6,0.3-0.9
			c0.1-0.3,0.2-0.7,0.3-1.1c0.1-0.4,0.2-0.7,0.3-1.1c0.1-0.4,0.2-0.7,0.2-1h1c-0.3,1-0.5,2-0.8,2.9c-0.3,0.9-0.6,1.7-0.9,2.4H41.8z"
			/>
	</g>
	<g>
		<path d="M49.8,51.3c0,0.4-0.1,0.8-0.2,1.1c-0.1,0.3-0.3,0.6-0.5,0.9c-0.2,0.2-0.5,0.4-0.8,0.6c-0.3,0.1-0.6,0.2-1,0.2
			c-0.4,0-0.7-0.1-1-0.2c-0.3-0.1-0.6-0.3-0.8-0.6c-0.2-0.2-0.4-0.5-0.5-0.9C45,52.1,45,51.8,45,51.3c0-0.4,0.1-0.8,0.2-1.1
			c0.1-0.3,0.3-0.6,0.5-0.9s0.5-0.4,0.8-0.6c0.3-0.1,0.6-0.2,1-0.2c0.4,0,0.7,0.1,1,0.2c0.3,0.1,0.6,0.3,0.8,0.6
			c0.2,0.2,0.4,0.5,0.5,0.9C49.8,50.6,49.8,50.9,49.8,51.3z M48.9,51.3c0-0.6-0.1-1.1-0.4-1.4c-0.3-0.3-0.6-0.5-1.1-0.5
			c-0.5,0-0.8,0.2-1.1,0.5c-0.3,0.3-0.4,0.8-0.4,1.4s0.1,1.1,0.4,1.4c0.3,0.3,0.6,0.5,1.1,0.5c0.5,0,0.8-0.2,1.1-0.5
			C48.7,52.4,48.9,51.9,48.9,51.3z"/>
		<path d="M50.3,55.8c-0.1,0-0.2,0-0.3,0c-0.1,0-0.2,0-0.3-0.1l0.1-0.8c0.1,0,0.1,0,0.2,0.1c0.1,0,0.2,0,0.2,0
			c0.3,0,0.5-0.1,0.7-0.3c0.1-0.2,0.2-0.5,0.2-0.9v-5.1h0.9v5.1c0,0.7-0.2,1.2-0.5,1.5C51.3,55.7,50.9,55.8,50.3,55.8z M51.6,47.8
			c-0.2,0-0.3-0.1-0.4-0.2c-0.1-0.1-0.2-0.3-0.2-0.4c0-0.2,0.1-0.3,0.2-0.4c0.1-0.1,0.3-0.2,0.4-0.2s0.3,0.1,0.4,0.2
			c0.1,0.1,0.2,0.3,0.2,0.4c0,0.2-0.1,0.3-0.2,0.4C51.9,47.7,51.8,47.8,51.6,47.8z"/>
		<path d="M57.8,53.8c-0.2,0.1-0.5,0.1-0.8,0.2c-0.4,0.1-0.8,0.1-1.2,0.1c-0.4,0-0.7-0.1-1-0.2c-0.3-0.1-0.5-0.3-0.7-0.5
			c-0.2-0.2-0.3-0.5-0.4-0.8c-0.1-0.3-0.1-0.6-0.1-1v-2.9h0.9v2.7c0,0.6,0.1,1.1,0.3,1.4c0.2,0.3,0.5,0.4,1,0.4c0.1,0,0.2,0,0.3,0
			c0.1,0,0.2,0,0.3,0c0.1,0,0.2,0,0.3,0c0.1,0,0.1,0,0.2,0v-4.4h0.9V53.8z"/>
		<path d="M65.2,51c0.1,0.1,0.2,0.3,0.4,0.5c0.2,0.2,0.3,0.5,0.5,0.7c0.2,0.3,0.3,0.5,0.5,0.8c0.2,0.3,0.3,0.6,0.4,0.8H66
			c-0.1-0.3-0.3-0.5-0.4-0.8c-0.2-0.3-0.3-0.5-0.5-0.7c-0.2-0.2-0.3-0.5-0.5-0.7c-0.2-0.2-0.3-0.4-0.4-0.5c-0.1,0-0.2,0-0.3,0
			c-0.1,0-0.2,0-0.3,0h-0.9v2.7h-1v-6.8c0.3-0.1,0.6-0.1,0.9-0.1c0.3,0,0.6,0,0.9,0c1,0,1.7,0.2,2.2,0.6c0.5,0.4,0.8,0.9,0.8,1.6
			c0,0.5-0.1,0.9-0.4,1.2C66,50.6,65.7,50.9,65.2,51z M63.7,47.8c-0.4,0-0.7,0-1,0v2.6h0.7c0.3,0,0.6,0,0.9,0c0.3,0,0.5-0.1,0.7-0.2
			c0.2-0.1,0.3-0.2,0.4-0.4c0.1-0.2,0.2-0.4,0.2-0.7c0-0.3-0.1-0.5-0.2-0.7c-0.1-0.2-0.2-0.3-0.4-0.4c-0.2-0.1-0.4-0.2-0.6-0.2
			C64.2,47.8,64,47.8,63.7,47.8z"/>
		<path d="M67.7,51.4c0-0.5,0.1-0.9,0.2-1.2c0.1-0.3,0.3-0.6,0.5-0.9c0.2-0.2,0.5-0.4,0.8-0.5c0.3-0.1,0.6-0.2,0.9-0.2
			c0.7,0,1.2,0.2,1.6,0.7c0.4,0.4,0.6,1.1,0.6,2c0,0,0,0.1,0,0.2c0,0.1,0,0.1,0,0.2h-3.6c0,0.5,0.2,1,0.5,1.2
			c0.3,0.3,0.7,0.4,1.3,0.4c0.3,0,0.6,0,0.8-0.1c0.2-0.1,0.4-0.1,0.5-0.2l0.1,0.8c-0.1,0.1-0.3,0.1-0.6,0.2c-0.3,0.1-0.6,0.1-1,0.1
			c-0.5,0-0.8-0.1-1.2-0.2c-0.3-0.1-0.6-0.3-0.8-0.6c-0.2-0.2-0.4-0.5-0.5-0.9C67.8,52.1,67.7,51.7,67.7,51.4z M71.3,50.8
			c0-0.4-0.1-0.8-0.3-1c-0.2-0.3-0.5-0.4-0.9-0.4c-0.2,0-0.4,0-0.6,0.1c-0.2,0.1-0.3,0.2-0.4,0.3c-0.1,0.1-0.2,0.3-0.3,0.5
			c-0.1,0.2-0.1,0.4-0.1,0.5H71.3z"/>
		<path d="M76.9,53.4c-0.1,0.1-0.2,0.1-0.5,0.2c-0.2,0.1-0.5,0.1-0.8,0.1c-0.3,0-0.6,0-0.9-0.2c-0.3-0.1-0.5-0.3-0.7-0.5
			c-0.2-0.2-0.4-0.5-0.5-0.8c-0.1-0.3-0.2-0.7-0.2-1.1c0-0.4,0.1-0.7,0.2-1c0.1-0.3,0.3-0.6,0.5-0.8c0.2-0.2,0.5-0.4,0.8-0.5
			c0.3-0.1,0.7-0.2,1.1-0.2c0.4,0,0.8,0,1.1,0.1c0.3,0.1,0.6,0.1,0.8,0.2v4.6c0,0.8-0.2,1.4-0.6,1.7c-0.4,0.4-1,0.5-1.9,0.5
			c-0.3,0-0.6,0-0.9-0.1c-0.3-0.1-0.5-0.1-0.8-0.2l0.2-0.8c0.2,0.1,0.4,0.1,0.7,0.2C74.8,55,75,55,75.3,55c0.6,0,1-0.1,1.2-0.3
			c0.2-0.2,0.4-0.6,0.4-1.1V53.4z M76.9,49.6c-0.1,0-0.2-0.1-0.4-0.1c-0.2,0-0.4,0-0.6,0c-0.5,0-0.9,0.2-1.2,0.5
			c-0.3,0.3-0.4,0.8-0.4,1.3c0,0.3,0,0.6,0.1,0.8c0.1,0.2,0.2,0.4,0.3,0.5c0.1,0.1,0.3,0.2,0.5,0.3c0.2,0.1,0.3,0.1,0.5,0.1
			c0.2,0,0.5,0,0.7-0.1c0.2-0.1,0.4-0.2,0.5-0.2V49.6z"/>
		<path d="M79.9,47.8c-0.2,0-0.3-0.1-0.4-0.2c-0.1-0.1-0.2-0.3-0.2-0.4c0-0.2,0.1-0.3,0.2-0.4c0.1-0.1,0.3-0.2,0.4-0.2
			s0.3,0.1,0.4,0.2c0.1,0.1,0.2,0.3,0.2,0.4c0,0.2-0.1,0.3-0.2,0.4C80.2,47.7,80,47.8,79.9,47.8z M80.3,53.9h-0.9v-5.2h0.9V53.9z"/>
		<path d="M86.5,51.3c0,0.4-0.1,0.8-0.2,1.1s-0.3,0.6-0.5,0.9c-0.2,0.2-0.5,0.4-0.8,0.6c-0.3,0.1-0.6,0.2-1,0.2
			c-0.4,0-0.7-0.1-1-0.2c-0.3-0.1-0.6-0.3-0.8-0.6c-0.2-0.2-0.4-0.5-0.5-0.9s-0.2-0.7-0.2-1.1c0-0.4,0.1-0.8,0.2-1.1
			c0.1-0.3,0.3-0.6,0.5-0.9c0.2-0.2,0.5-0.4,0.8-0.6c0.3-0.1,0.6-0.2,1-0.2c0.4,0,0.7,0.1,1,0.2c0.3,0.1,0.6,0.3,0.8,0.6
			c0.2,0.2,0.4,0.5,0.5,0.9C86.5,50.6,86.5,50.9,86.5,51.3z M85.6,51.3c0-0.6-0.1-1.1-0.4-1.4c-0.3-0.3-0.6-0.5-1.1-0.5
			c-0.5,0-0.8,0.2-1.1,0.5c-0.3,0.3-0.4,0.8-0.4,1.4s0.1,1.1,0.4,1.4c0.3,0.3,0.6,0.5,1.1,0.5c0.5,0,0.8-0.2,1.1-0.5
			C85.4,52.4,85.6,51.9,85.6,51.3z"/>
		<path d="M87.9,48.9c0.2-0.1,0.5-0.1,0.9-0.2c0.4-0.1,0.8-0.1,1.2-0.1c0.4,0,0.8,0.1,1,0.2c0.3,0.1,0.5,0.3,0.7,0.5
			c0.2,0.2,0.3,0.5,0.3,0.8c0.1,0.3,0.1,0.6,0.1,1v2.9h-0.9v-2.7c0-0.3,0-0.6-0.1-0.8c0-0.2-0.1-0.4-0.2-0.6
			c-0.1-0.1-0.2-0.2-0.4-0.3c-0.2-0.1-0.4-0.1-0.6-0.1c-0.1,0-0.2,0-0.3,0c-0.1,0-0.2,0-0.3,0c-0.1,0-0.2,0-0.3,0
			c-0.1,0-0.1,0-0.2,0v4.4h-0.9V48.9z"/>
		<path d="M95.3,48.6c0.4,0,0.7,0,0.9,0.1c0.3,0.1,0.5,0.2,0.6,0.4c0.2,0.2,0.3,0.4,0.3,0.6c0.1,0.2,0.1,0.5,0.1,0.8v3.3
			c-0.1,0-0.2,0-0.3,0.1c-0.1,0-0.3,0-0.5,0.1c-0.2,0-0.4,0-0.6,0.1c-0.2,0-0.4,0-0.6,0c-0.3,0-0.6,0-0.8-0.1
			c-0.2-0.1-0.5-0.2-0.6-0.3c-0.2-0.1-0.3-0.3-0.4-0.5c-0.1-0.2-0.1-0.5-0.1-0.8c0-0.3,0.1-0.5,0.2-0.7c0.1-0.2,0.3-0.4,0.5-0.5
			c0.2-0.1,0.4-0.2,0.7-0.3c0.3-0.1,0.5-0.1,0.8-0.1c0.1,0,0.2,0,0.3,0c0.1,0,0.2,0,0.3,0c0.1,0,0.2,0,0.2,0c0.1,0,0.1,0,0.1,0v-0.3
			c0-0.2,0-0.3-0.1-0.5c0-0.2-0.1-0.3-0.2-0.4c-0.1-0.1-0.2-0.2-0.4-0.3c-0.1-0.1-0.3-0.1-0.6-0.1c-0.3,0-0.6,0-0.8,0.1
			c-0.2,0-0.4,0.1-0.5,0.1l-0.1-0.8c0.1-0.1,0.3-0.1,0.6-0.2C94.6,48.6,95,48.6,95.3,48.6z M95.4,53.3c0.2,0,0.4,0,0.6,0
			c0.2,0,0.3,0,0.4-0.1v-1.6c-0.1,0-0.2-0.1-0.3-0.1c-0.1,0-0.3,0-0.5,0c-0.1,0-0.3,0-0.4,0c-0.2,0-0.3,0.1-0.4,0.1
			c-0.1,0.1-0.2,0.2-0.3,0.3c-0.1,0.1-0.1,0.3-0.1,0.4c0,0.3,0.1,0.6,0.3,0.7C94.7,53.2,95,53.3,95.4,53.3z"/>
		<path d="M100.4,54c-0.6,0-1-0.1-1.2-0.4c-0.2-0.2-0.4-0.6-0.4-1.1v-6.2l0.9-0.2v6.3c0,0.2,0,0.3,0,0.4c0,0.1,0.1,0.2,0.1,0.2
			c0.1,0.1,0.1,0.1,0.2,0.1c0.1,0,0.2,0.1,0.4,0.1L100.4,54z"/>
		<path d="M101.6,48.9c0.2-0.1,0.5-0.1,0.9-0.2c0.4-0.1,0.8-0.1,1.2-0.1c0.4,0,0.8,0.1,1,0.2c0.3,0.1,0.5,0.3,0.7,0.5
			c0.2,0.2,0.3,0.5,0.3,0.8c0.1,0.3,0.1,0.6,0.1,1v2.9h-0.9v-2.7c0-0.3,0-0.6-0.1-0.8c0-0.2-0.1-0.4-0.2-0.6
			c-0.1-0.1-0.2-0.2-0.4-0.3c-0.2-0.1-0.4-0.1-0.6-0.1c-0.1,0-0.2,0-0.3,0c-0.1,0-0.2,0-0.3,0c-0.1,0-0.2,0-0.3,0
			c-0.1,0-0.1,0-0.2,0v4.4h-0.9V48.9z"/>
		<path d="M107,51.4c0-0.5,0.1-0.9,0.2-1.2c0.1-0.3,0.3-0.6,0.5-0.9c0.2-0.2,0.5-0.4,0.8-0.5c0.3-0.1,0.6-0.2,0.9-0.2
			c0.7,0,1.2,0.2,1.6,0.7c0.4,0.4,0.6,1.1,0.6,2c0,0,0,0.1,0,0.2c0,0.1,0,0.1,0,0.2H108c0,0.5,0.2,1,0.5,1.2
			c0.3,0.3,0.7,0.4,1.3,0.4c0.3,0,0.6,0,0.8-0.1c0.2-0.1,0.4-0.1,0.5-0.2l0.1,0.8c-0.1,0.1-0.3,0.1-0.6,0.2c-0.3,0.1-0.6,0.1-1,0.1
			c-0.5,0-0.8-0.1-1.2-0.2c-0.3-0.1-0.6-0.3-0.8-0.6c-0.2-0.2-0.4-0.5-0.5-0.9C107.1,52.1,107,51.7,107,51.4z M110.6,50.8
			c0-0.4-0.1-0.8-0.3-1c-0.2-0.3-0.5-0.4-0.9-0.4c-0.2,0-0.4,0-0.6,0.1c-0.2,0.1-0.3,0.2-0.4,0.3c-0.1,0.1-0.2,0.3-0.3,0.5
			c-0.1,0.2-0.1,0.4-0.1,0.5H110.6z"/>
		<path d="M116.2,53.4c-0.1,0.1-0.2,0.1-0.5,0.2c-0.2,0.1-0.5,0.1-0.8,0.1c-0.3,0-0.6,0-0.9-0.2c-0.3-0.1-0.5-0.3-0.7-0.5
			c-0.2-0.2-0.4-0.5-0.5-0.8c-0.1-0.3-0.2-0.7-0.2-1.1c0-0.4,0.1-0.7,0.2-1c0.1-0.3,0.3-0.6,0.5-0.8c0.2-0.2,0.5-0.4,0.8-0.5
			c0.3-0.1,0.7-0.2,1.1-0.2c0.4,0,0.8,0,1.1,0.1c0.3,0.1,0.6,0.1,0.8,0.2v4.6c0,0.8-0.2,1.4-0.6,1.7c-0.4,0.4-1,0.5-1.9,0.5
			c-0.3,0-0.6,0-0.9-0.1c-0.3-0.1-0.5-0.1-0.8-0.2l0.2-0.8c0.2,0.1,0.4,0.1,0.7,0.2c0.3,0.1,0.6,0.1,0.8,0.1c0.6,0,1-0.1,1.2-0.3
			c0.2-0.2,0.4-0.6,0.4-1.1V53.4z M116.2,49.6c-0.1,0-0.2-0.1-0.4-0.1s-0.4,0-0.6,0c-0.5,0-0.9,0.2-1.2,0.5
			c-0.3,0.3-0.4,0.8-0.4,1.3c0,0.3,0,0.6,0.1,0.8c0.1,0.2,0.2,0.4,0.3,0.5c0.1,0.1,0.3,0.2,0.5,0.3c0.2,0.1,0.3,0.1,0.5,0.1
			c0.2,0,0.5,0,0.7-0.1c0.2-0.1,0.4-0.2,0.5-0.2V49.6z"/>
		<path d="M123.3,51.3c0,0.4-0.1,0.8-0.2,1.1c-0.1,0.3-0.3,0.6-0.5,0.9c-0.2,0.2-0.5,0.4-0.8,0.6c-0.3,0.1-0.6,0.2-1,0.2
			c-0.4,0-0.7-0.1-1-0.2c-0.3-0.1-0.6-0.3-0.8-0.6c-0.2-0.2-0.4-0.5-0.5-0.9c-0.1-0.3-0.2-0.7-0.2-1.1c0-0.4,0.1-0.8,0.2-1.1
			c0.1-0.3,0.3-0.6,0.5-0.9c0.2-0.2,0.5-0.4,0.8-0.6c0.3-0.1,0.6-0.2,1-0.2c0.4,0,0.7,0.1,1,0.2c0.3,0.1,0.6,0.3,0.8,0.6
			c0.2,0.2,0.4,0.5,0.5,0.9C123.2,50.6,123.3,50.9,123.3,51.3z M122.3,51.3c0-0.6-0.1-1.1-0.4-1.4c-0.3-0.3-0.6-0.5-1.1-0.5
			c-0.5,0-0.8,0.2-1.1,0.5c-0.3,0.3-0.4,0.8-0.4,1.4s0.1,1.1,0.4,1.4c0.3,0.3,0.6,0.5,1.1,0.5c0.5,0,0.8-0.2,1.1-0.5
			C122.2,52.4,122.3,51.9,122.3,51.3z"/>
	</g>
</g>
</svg>
