<?xml version="1.0" encoding="utf-8"?>
<!-- Generator: Adobe Illustrator 24.0.2, SVG Export Plug-In . SVG Version: 6.00 Build 0)  -->
<svg version="1.1" id="Warstwa_1" xmlns="http://www.w3.org/2000/svg" xmlns:xlink="http://www.w3.org/1999/xlink" x="0px" y="0px"
	 viewBox="0 0 170.2 88.5" style="enable-background:new 0 0 170.2 88.5;" xml:space="preserve">
<style type="text/css">
	.st0{fill-rule:evenodd;clip-rule:evenodd;fill:#164194;}
	.st1{fill-rule:evenodd;clip-rule:evenodd;fill:#FFED00;}
	.st2{fill-rule:evenodd;clip-rule:evenodd;fill:#E30613;}
	.st3{fill-rule:evenodd;clip-rule:evenodd;fill:#FFFFFF;}
</style>
<g>
	<path d="M150.6,67.8c0.1,0,0.2,0.1,0.3,0.1c0.1,0,0.2,0,0.4,0c0.4,0,0.7-0.1,0.9-0.3c0.2-0.2,0.4-0.5,0.6-0.8
		c-0.4-0.9-0.9-1.8-1.3-2.7c-0.4-1-0.7-1.9-1-2.9h1.1c0.1,0.3,0.2,0.7,0.3,1c0.1,0.4,0.2,0.8,0.4,1.1c0.1,0.4,0.3,0.8,0.4,1.2
		c0.2,0.4,0.3,0.8,0.5,1.1c0.3-0.7,0.5-1.5,0.7-2.2c0.2-0.7,0.4-1.5,0.6-2.3h1c-0.3,1-0.5,2.1-0.9,3c-0.3,1-0.7,1.9-1,2.7
		c-0.1,0.3-0.3,0.6-0.4,0.8c-0.2,0.2-0.3,0.4-0.5,0.6c-0.2,0.1-0.4,0.3-0.6,0.3c-0.2,0.1-0.5,0.1-0.8,0.1c-0.1,0-0.2,0-0.2,0
		c-0.1,0-0.2,0-0.3,0c-0.1,0-0.2,0-0.2-0.1c-0.1,0-0.1,0-0.1-0.1L150.6,67.8z M145.3,61.4c0.2-0.1,0.5-0.1,0.9-0.2
		c0.4-0.1,0.8-0.1,1.3-0.1c0.4,0,0.8,0.1,1.1,0.2c0.3,0.1,0.5,0.3,0.7,0.5c0.2,0.2,0.3,0.5,0.4,0.8c0.1,0.3,0.1,0.7,0.1,1v3.1h-1
		v-2.9c0-0.3,0-0.6-0.1-0.9c0-0.2-0.1-0.4-0.2-0.6c-0.1-0.1-0.2-0.3-0.4-0.3c-0.2-0.1-0.4-0.1-0.7-0.1c-0.1,0-0.2,0-0.3,0
		c-0.1,0-0.2,0-0.3,0c-0.1,0-0.2,0-0.3,0c-0.1,0-0.1,0-0.2,0v4.7h-1V61.4z M144.1,66.9c-0.6,0-1-0.1-1.3-0.4
		c-0.3-0.2-0.4-0.6-0.4-1.2v-6.7l1-0.2v6.7c0,0.2,0,0.3,0,0.4c0,0.1,0.1,0.2,0.1,0.3c0.1,0.1,0.2,0.1,0.3,0.1c0.1,0,0.2,0.1,0.4,0.1
		L144.1,66.9z M138.6,61.1c0.4,0,0.7,0.1,1,0.2c0.3,0.1,0.5,0.2,0.7,0.4c0.2,0.2,0.3,0.4,0.4,0.7c0.1,0.3,0.1,0.5,0.1,0.9v3.5
		c-0.1,0-0.2,0-0.4,0.1c-0.2,0-0.3,0-0.5,0.1c-0.2,0-0.4,0-0.6,0.1c-0.2,0-0.4,0-0.7,0c-0.3,0-0.6,0-0.9-0.1
		c-0.3-0.1-0.5-0.2-0.7-0.3c-0.2-0.1-0.3-0.3-0.4-0.6c-0.1-0.2-0.2-0.5-0.2-0.8c0-0.3,0.1-0.6,0.2-0.8c0.1-0.2,0.3-0.4,0.5-0.5
		c0.2-0.1,0.5-0.2,0.7-0.3c0.3-0.1,0.6-0.1,0.9-0.1c0.1,0,0.2,0,0.3,0c0.1,0,0.2,0,0.3,0c0.1,0,0.2,0,0.3,0c0.1,0,0.1,0,0.2,0v-0.3
		c0-0.2,0-0.3-0.1-0.5c0-0.2-0.1-0.3-0.2-0.4c-0.1-0.1-0.2-0.2-0.4-0.3c-0.2-0.1-0.4-0.1-0.6-0.1c-0.3,0-0.6,0-0.9,0.1
		c-0.2,0-0.4,0.1-0.5,0.1l-0.1-0.8c0.1-0.1,0.3-0.1,0.6-0.2C137.9,61.1,138.3,61.1,138.6,61.1z M138.7,66.1c0.2,0,0.4,0,0.6,0
		c0.2,0,0.3,0,0.5-0.1v-1.7c-0.1,0-0.2-0.1-0.3-0.1c-0.2,0-0.4,0-0.6,0c-0.1,0-0.3,0-0.5,0c-0.2,0-0.3,0.1-0.5,0.1
		c-0.1,0.1-0.3,0.2-0.3,0.3c-0.1,0.1-0.1,0.3-0.1,0.5c0,0.4,0.1,0.6,0.3,0.7C138,66,138.3,66.1,138.7,66.1z M130.7,61.4
		c0.2-0.1,0.5-0.1,0.9-0.2c0.4-0.1,0.8-0.1,1.3-0.1c0.4,0,0.8,0.1,1.1,0.2c0.3,0.1,0.5,0.3,0.7,0.5c0.2,0.2,0.3,0.5,0.4,0.8
		c0.1,0.3,0.1,0.7,0.1,1v3.1h-1v-2.9c0-0.3,0-0.6-0.1-0.9c0-0.2-0.1-0.4-0.2-0.6c-0.1-0.1-0.2-0.3-0.4-0.3c-0.2-0.1-0.4-0.1-0.7-0.1
		c-0.1,0-0.2,0-0.3,0c-0.1,0-0.2,0-0.3,0c-0.1,0-0.2,0-0.3,0c-0.1,0-0.1,0-0.2,0v4.7h-1V61.4z M128.3,64c0-0.6-0.1-1.1-0.4-1.5
		c-0.3-0.4-0.7-0.6-1.1-0.6c-0.5,0-0.9,0.2-1.1,0.6c-0.3,0.4-0.4,0.9-0.4,1.5c0,0.6,0.1,1.1,0.4,1.5c0.3,0.4,0.7,0.6,1.1,0.6
		c0.5,0,0.9-0.2,1.1-0.6C128.1,65.1,128.3,64.6,128.3,64z M129.3,64c0,0.4-0.1,0.8-0.2,1.2c-0.1,0.4-0.3,0.7-0.5,0.9
		c-0.2,0.3-0.5,0.5-0.8,0.6c-0.3,0.1-0.7,0.2-1,0.2c-0.4,0-0.7-0.1-1-0.2c-0.3-0.1-0.6-0.3-0.8-0.6c-0.2-0.3-0.4-0.6-0.5-0.9
		c-0.1-0.4-0.2-0.8-0.2-1.2c0-0.4,0.1-0.8,0.2-1.2c0.1-0.4,0.3-0.7,0.5-0.9c0.2-0.3,0.5-0.5,0.8-0.6c0.3-0.1,0.7-0.2,1-0.2
		c0.4,0,0.7,0.1,1,0.2c0.3,0.1,0.6,0.3,0.8,0.6c0.2,0.3,0.4,0.6,0.5,0.9C129.2,63.2,129.3,63.6,129.3,64z M122.2,60.2
		c-0.2,0-0.3-0.1-0.5-0.2c-0.1-0.1-0.2-0.3-0.2-0.5c0-0.2,0.1-0.4,0.2-0.5c0.1-0.1,0.3-0.2,0.5-0.2c0.2,0,0.3,0.1,0.5,0.2
		c0.1,0.1,0.2,0.3,0.2,0.5c0,0.2-0.1,0.4-0.2,0.5C122.5,60.2,122.4,60.2,122.2,60.2z M122.7,66.8h-1v-5.6h1V66.8z M119,62.1
		c-0.1,0-0.2-0.1-0.4-0.1c-0.2,0-0.4,0-0.7,0c-0.5,0-0.9,0.2-1.2,0.5c-0.3,0.3-0.4,0.8-0.4,1.4c0,0.3,0,0.6,0.1,0.8
		c0.1,0.2,0.2,0.4,0.3,0.6c0.1,0.1,0.3,0.3,0.5,0.3c0.2,0.1,0.4,0.1,0.6,0.1c0.3,0,0.5,0,0.7-0.1c0.2-0.1,0.4-0.2,0.5-0.3V62.1z
		 M119,66.2c-0.1,0.1-0.3,0.1-0.5,0.2c-0.2,0.1-0.5,0.1-0.9,0.1c-0.3,0-0.6-0.1-0.9-0.2c-0.3-0.1-0.6-0.3-0.8-0.5
		c-0.2-0.2-0.4-0.5-0.5-0.8c-0.1-0.3-0.2-0.7-0.2-1.2c0-0.4,0.1-0.8,0.2-1.1c0.1-0.3,0.3-0.6,0.5-0.9c0.2-0.2,0.5-0.4,0.8-0.6
		c0.3-0.1,0.7-0.2,1.1-0.2c0.5,0,0.9,0,1.2,0.1c0.3,0.1,0.6,0.1,0.9,0.2v5c0,0.9-0.2,1.5-0.7,1.9c-0.4,0.4-1.1,0.6-2,0.6
		c-0.3,0-0.7,0-1-0.1c-0.3-0.1-0.6-0.1-0.8-0.2l0.2-0.9c0.2,0.1,0.4,0.1,0.7,0.2c0.3,0.1,0.6,0.1,0.9,0.1c0.6,0,1-0.1,1.3-0.4
		c0.3-0.2,0.4-0.6,0.4-1.1V66.2z M113,63.5c0-0.4-0.1-0.8-0.3-1.1c-0.2-0.3-0.5-0.4-1-0.4c-0.2,0-0.4,0-0.6,0.1
		c-0.2,0.1-0.3,0.2-0.4,0.3c-0.1,0.1-0.2,0.3-0.3,0.5c-0.1,0.2-0.1,0.4-0.1,0.6H113z M109.2,64c0-0.5,0.1-0.9,0.2-1.3
		c0.1-0.4,0.3-0.7,0.6-0.9c0.2-0.2,0.5-0.4,0.8-0.5c0.3-0.1,0.6-0.2,0.9-0.2c0.7,0,1.3,0.2,1.7,0.7c0.4,0.5,0.6,1.2,0.6,2.1
		c0,0,0,0.1,0,0.2c0,0.1,0,0.1,0,0.2h-3.8c0,0.6,0.2,1,0.5,1.3c0.3,0.3,0.7,0.4,1.4,0.4c0.3,0,0.6,0,0.9-0.1
		c0.2-0.1,0.4-0.1,0.5-0.2l0.1,0.8c-0.1,0.1-0.3,0.1-0.6,0.2c-0.3,0.1-0.6,0.1-1,0.1c-0.5,0-0.9-0.1-1.3-0.2
		c-0.4-0.1-0.6-0.3-0.9-0.6c-0.2-0.3-0.4-0.6-0.5-0.9C109.3,64.8,109.2,64.4,109.2,64z M104.9,60.2c-0.4,0-0.8,0-1,0V63h0.7
		c0.4,0,0.7,0,1-0.1c0.3,0,0.5-0.1,0.7-0.2c0.2-0.1,0.3-0.2,0.5-0.4c0.1-0.2,0.2-0.4,0.2-0.7c0-0.3-0.1-0.5-0.2-0.7
		c-0.1-0.2-0.3-0.3-0.4-0.4c-0.2-0.1-0.4-0.2-0.6-0.2C105.5,60.2,105.2,60.2,104.9,60.2z M106.5,63.7c0.1,0.1,0.3,0.3,0.4,0.6
		c0.2,0.2,0.4,0.5,0.5,0.8c0.2,0.3,0.4,0.6,0.5,0.9c0.2,0.3,0.3,0.6,0.5,0.9h-1.1c-0.1-0.3-0.3-0.5-0.5-0.8
		c-0.2-0.3-0.3-0.5-0.5-0.8c-0.2-0.3-0.3-0.5-0.5-0.7c-0.2-0.2-0.3-0.4-0.5-0.6c-0.1,0-0.2,0-0.3,0c-0.1,0-0.2,0-0.3,0h-0.9v2.9h-1
		v-7.3c0.3-0.1,0.6-0.1,1-0.1c0.4,0,0.7,0,1,0c1,0,1.8,0.2,2.4,0.6c0.5,0.4,0.8,1,0.8,1.8c0,0.5-0.1,0.9-0.4,1.3
		C107.4,63.3,107,63.5,106.5,63.7z M91.2,61.4c0.2-0.1,0.5-0.1,0.9-0.2c0.4-0.1,0.8-0.1,1.3-0.1c0.4,0,0.7,0,0.9,0.1
		c0.2,0.1,0.4,0.2,0.6,0.4c0,0,0.1-0.1,0.2-0.1c0.1-0.1,0.2-0.1,0.4-0.2c0.2-0.1,0.3-0.1,0.5-0.2c0.2,0,0.4-0.1,0.6-0.1
		c0.4,0,0.8,0.1,1,0.2c0.3,0.1,0.5,0.3,0.6,0.5c0.2,0.2,0.3,0.5,0.3,0.8c0.1,0.3,0.1,0.7,0.1,1v3.1h-1v-2.9c0-0.3,0-0.6,0-0.8
		c0-0.2-0.1-0.4-0.2-0.6c-0.1-0.2-0.2-0.3-0.4-0.3C97,62,96.8,62,96.5,62c-0.3,0-0.6,0-0.8,0.1c-0.2,0.1-0.4,0.2-0.4,0.2
		c0.1,0.2,0.1,0.4,0.1,0.6c0,0.2,0,0.5,0,0.7v3.1h-1v-2.9c0-0.3,0-0.6-0.1-0.8c0-0.2-0.1-0.4-0.2-0.6c-0.1-0.2-0.2-0.3-0.4-0.3
		C93.7,62,93.5,62,93.3,62c-0.1,0-0.2,0-0.3,0c-0.1,0-0.2,0-0.3,0c-0.1,0-0.2,0-0.3,0c-0.1,0-0.1,0-0.2,0v4.7h-1V61.4z M87.4,61.1
		c0.4,0,0.7,0.1,1,0.2c0.3,0.1,0.5,0.2,0.7,0.4c0.2,0.2,0.3,0.4,0.4,0.7c0.1,0.3,0.1,0.5,0.1,0.9v3.5c-0.1,0-0.2,0-0.4,0.1
		c-0.2,0-0.3,0-0.5,0.1c-0.2,0-0.4,0-0.6,0.1c-0.2,0-0.4,0-0.7,0c-0.3,0-0.6,0-0.9-0.1c-0.3-0.1-0.5-0.2-0.7-0.3
		c-0.2-0.1-0.3-0.3-0.4-0.6c-0.1-0.2-0.2-0.5-0.2-0.8c0-0.3,0.1-0.6,0.2-0.8c0.1-0.2,0.3-0.4,0.5-0.5c0.2-0.1,0.5-0.2,0.7-0.3
		c0.3-0.1,0.6-0.1,0.9-0.1c0.1,0,0.2,0,0.3,0c0.1,0,0.2,0,0.3,0c0.1,0,0.2,0,0.3,0c0.1,0,0.1,0,0.1,0v-0.3c0-0.2,0-0.3-0.1-0.5
		c0-0.2-0.1-0.3-0.2-0.4c-0.1-0.1-0.2-0.2-0.4-0.3C87.8,62,87.6,62,87.3,62c-0.3,0-0.6,0-0.9,0.1c-0.2,0-0.4,0.1-0.5,0.1l-0.1-0.8
		c0.1-0.1,0.3-0.1,0.6-0.2C86.7,61.1,87,61.1,87.4,61.1z M87.5,66.1c0.2,0,0.4,0,0.6,0c0.2,0,0.3,0,0.5-0.1v-1.7
		c-0.1,0-0.2-0.1-0.3-0.1c-0.2,0-0.4,0-0.6,0c-0.1,0-0.3,0-0.5,0c-0.2,0-0.3,0.1-0.5,0.1c-0.1,0.1-0.3,0.2-0.3,0.3
		c-0.1,0.1-0.1,0.3-0.1,0.5c0,0.4,0.1,0.6,0.3,0.7C86.8,66,87.1,66.1,87.5,66.1z M83.5,61.1c0.1,0,0.2,0,0.3,0c0.1,0,0.2,0,0.3,0
		c0.1,0,0.2,0,0.3,0.1c0.1,0,0.2,0,0.2,0l-0.2,0.9c-0.1,0-0.2-0.1-0.4-0.1c-0.2,0-0.4-0.1-0.7-0.1c-0.2,0-0.4,0-0.6,0.1
		c-0.2,0-0.3,0.1-0.4,0.1v4.7h-1v-5.3c0.2-0.1,0.5-0.2,0.9-0.2C82.7,61.2,83.1,61.1,83.5,61.1z M78.8,62.1c-0.1,0-0.2-0.1-0.4-0.1
		c-0.2,0-0.4,0-0.7,0c-0.5,0-0.9,0.2-1.2,0.5c-0.3,0.3-0.4,0.8-0.4,1.4c0,0.3,0,0.6,0.1,0.8c0.1,0.2,0.2,0.4,0.3,0.6
		c0.1,0.1,0.3,0.3,0.5,0.3c0.2,0.1,0.4,0.1,0.6,0.1c0.3,0,0.5,0,0.7-0.1c0.2-0.1,0.4-0.2,0.5-0.3V62.1z M78.8,66.2
		c-0.1,0.1-0.3,0.1-0.5,0.2c-0.2,0.1-0.5,0.1-0.9,0.1c-0.3,0-0.6-0.1-0.9-0.2c-0.3-0.1-0.6-0.3-0.8-0.5c-0.2-0.2-0.4-0.5-0.5-0.8
		c-0.1-0.3-0.2-0.7-0.2-1.2c0-0.4,0.1-0.8,0.2-1.1c0.1-0.3,0.3-0.6,0.5-0.9c0.2-0.2,0.5-0.4,0.8-0.6c0.3-0.1,0.7-0.2,1.1-0.2
		c0.5,0,0.9,0,1.2,0.1c0.3,0.1,0.6,0.1,0.9,0.2v5c0,0.9-0.2,1.5-0.7,1.9c-0.4,0.4-1.1,0.6-2,0.6c-0.3,0-0.7,0-1-0.1
		c-0.3-0.1-0.6-0.1-0.8-0.2l0.2-0.9c0.2,0.1,0.4,0.1,0.7,0.2c0.3,0.1,0.6,0.1,0.9,0.1c0.6,0,1-0.1,1.3-0.4c0.3-0.2,0.4-0.6,0.4-1.1
		V66.2z M72.9,64c0-0.6-0.1-1.1-0.4-1.5c-0.3-0.4-0.7-0.6-1.1-0.6c-0.5,0-0.9,0.2-1.1,0.6c-0.3,0.4-0.4,0.9-0.4,1.5
		c0,0.6,0.1,1.1,0.4,1.5c0.3,0.4,0.7,0.6,1.1,0.6c0.5,0,0.9-0.2,1.1-0.6C72.7,65.1,72.9,64.6,72.9,64z M73.9,64
		c0,0.4-0.1,0.8-0.2,1.2c-0.1,0.4-0.3,0.7-0.5,0.9c-0.2,0.3-0.5,0.5-0.8,0.6c-0.3,0.1-0.7,0.2-1,0.2c-0.4,0-0.7-0.1-1-0.2
		c-0.3-0.1-0.6-0.3-0.8-0.6c-0.2-0.3-0.4-0.6-0.5-0.9c-0.1-0.4-0.2-0.8-0.2-1.2c0-0.4,0.1-0.8,0.2-1.2c0.1-0.4,0.3-0.7,0.5-0.9
		c0.2-0.3,0.5-0.5,0.8-0.6c0.3-0.1,0.7-0.2,1-0.2c0.4,0,0.7,0.1,1,0.2c0.3,0.1,0.6,0.3,0.8,0.6c0.2,0.3,0.4,0.6,0.5,0.9
		C73.8,63.2,73.9,63.6,73.9,64z M66.9,61.1c0.1,0,0.2,0,0.3,0c0.1,0,0.2,0,0.3,0c0.1,0,0.2,0,0.3,0.1c0.1,0,0.2,0,0.2,0l-0.2,0.9
		c-0.1,0-0.2-0.1-0.4-0.1c-0.2,0-0.4-0.1-0.7-0.1c-0.2,0-0.4,0-0.5,0.1c-0.2,0-0.3,0.1-0.4,0.1v4.7h-1v-5.3c0.2-0.1,0.5-0.2,0.9-0.2
		C66.1,61.2,66.5,61.1,66.9,61.1z M60.5,60.2c-0.4,0-0.8,0-1,0v2.9h0.8c0.4,0,0.7,0,1-0.1c0.3,0,0.5-0.1,0.7-0.2
		c0.2-0.1,0.3-0.3,0.5-0.5c0.1-0.2,0.2-0.4,0.2-0.7c0-0.3-0.1-0.5-0.2-0.7c-0.1-0.2-0.3-0.3-0.4-0.4c-0.2-0.1-0.4-0.2-0.7-0.2
		C61,60.2,60.8,60.2,60.5,60.2z M60.4,59.3c1,0,1.8,0.2,2.4,0.6c0.6,0.4,0.8,1,0.8,1.8c0,0.4-0.1,0.8-0.2,1.1
		c-0.2,0.3-0.4,0.5-0.7,0.7c-0.3,0.2-0.6,0.3-1.1,0.4C61.3,64,60.8,64,60.3,64h-0.8v2.7h-1v-7.3c0.3-0.1,0.6-0.1,1-0.1
		C59.8,59.3,60.1,59.3,60.4,59.3z"/>
	<path d="M138.2,47.2c0-0.3,0-0.5-0.1-0.7c-0.1-0.2-0.2-0.4-0.3-0.6c-0.1-0.2-0.3-0.3-0.5-0.4c-0.2-0.1-0.4-0.1-0.7-0.1
		c-0.3,0-0.5,0.1-0.8,0.2c-0.2,0.1-0.4,0.2-0.5,0.4c-0.1,0.2-0.3,0.4-0.3,0.6c-0.1,0.2-0.1,0.5-0.2,0.7H138.2z M132.8,48
		c0-0.7,0.1-1.3,0.3-1.9c0.2-0.5,0.5-1,0.8-1.3c0.3-0.4,0.7-0.6,1.2-0.8c0.5-0.2,0.9-0.3,1.4-0.3c1.1,0,2,0.3,2.6,1
		c0.6,0.7,0.9,1.7,0.9,3.1c0,0.1,0,0.2,0,0.3c0,0.1,0,0.2,0,0.3h-5.3c0.1,0.6,0.3,1.1,0.7,1.5c0.4,0.4,1,0.5,1.8,0.5
		c0.5,0,0.9,0,1.2-0.1c0.4-0.1,0.7-0.2,0.9-0.3l0.2,1.5c-0.1,0.1-0.2,0.1-0.4,0.2c-0.2,0.1-0.4,0.1-0.6,0.2c-0.2,0-0.5,0.1-0.7,0.1
		c-0.3,0-0.5,0-0.8,0c-0.7,0-1.3-0.1-1.8-0.3c-0.5-0.2-1-0.5-1.3-0.9c-0.3-0.4-0.6-0.8-0.8-1.3C132.9,49.2,132.8,48.6,132.8,48z
		 M131.1,41.6c0,0.3-0.1,0.6-0.3,0.8c-0.2,0.2-0.5,0.3-0.8,0.3c-0.3,0-0.6-0.1-0.8-0.3c-0.2-0.2-0.3-0.5-0.3-0.8
		c0-0.4,0.1-0.6,0.3-0.8c0.2-0.2,0.5-0.3,0.8-0.3c0.3,0,0.6,0.1,0.8,0.3C131,41,131.1,41.3,131.1,41.6z M130.9,52h-1.9v-8h1.9V52z
		 M122.5,47.1c0.2-0.2,0.5-0.5,0.8-0.8c0.3-0.3,0.5-0.6,0.8-0.8c0.3-0.3,0.5-0.6,0.7-0.8c0.2-0.3,0.4-0.5,0.6-0.7h2.2
		c-0.5,0.6-1,1.2-1.6,1.8c-0.6,0.6-1.1,1.2-1.7,1.8c0.3,0.3,0.6,0.6,1,0.9c0.3,0.4,0.7,0.7,1,1.2c0.3,0.4,0.6,0.8,0.9,1.2
		c0.3,0.4,0.5,0.8,0.7,1.1h-2.1c-0.2-0.3-0.4-0.6-0.6-1c-0.2-0.3-0.5-0.7-0.8-1c-0.3-0.3-0.6-0.6-0.8-0.9c-0.3-0.3-0.6-0.5-0.8-0.7
		V52h-1.9V40.4l1.9-0.3V47.1z M115.6,50.7c0.5,0,0.8-0.1,1.1-0.2c0.2-0.1,0.3-0.3,0.3-0.6c0-0.3-0.1-0.5-0.4-0.7
		c-0.2-0.2-0.6-0.4-1.2-0.6c-0.3-0.1-0.6-0.3-0.9-0.4c-0.3-0.1-0.5-0.3-0.7-0.5c-0.2-0.2-0.4-0.4-0.5-0.7c-0.1-0.3-0.2-0.6-0.2-1
		c0-0.7,0.3-1.3,0.8-1.7c0.5-0.4,1.3-0.6,2.2-0.6c0.5,0,0.9,0,1.3,0.1c0.4,0.1,0.8,0.2,1,0.3l-0.3,1.5c-0.2-0.1-0.5-0.2-0.8-0.3
		c-0.3-0.1-0.7-0.1-1.1-0.1c-0.4,0-0.7,0.1-0.9,0.2c-0.2,0.1-0.4,0.3-0.4,0.6c0,0.1,0,0.3,0.1,0.4c0,0.1,0.1,0.2,0.2,0.3
		c0.1,0.1,0.3,0.2,0.4,0.3c0.2,0.1,0.4,0.2,0.7,0.3c0.4,0.2,0.8,0.3,1.1,0.5c0.3,0.2,0.6,0.3,0.8,0.5c0.2,0.2,0.3,0.4,0.4,0.7
		c0.1,0.3,0.1,0.6,0.1,0.9c0,0.8-0.3,1.3-0.9,1.7c-0.6,0.4-1.4,0.6-2.4,0.6c-0.7,0-1.3-0.1-1.7-0.2c-0.4-0.1-0.7-0.2-0.9-0.3
		l0.3-1.5c0.3,0.1,0.6,0.2,1,0.3C114.7,50.6,115.1,50.7,115.6,50.7z M111.4,41.6c0,0.3-0.1,0.6-0.3,0.8c-0.2,0.2-0.5,0.3-0.8,0.3
		c-0.3,0-0.6-0.1-0.8-0.3c-0.2-0.2-0.3-0.5-0.3-0.8c0-0.4,0.1-0.6,0.3-0.8c0.2-0.2,0.5-0.3,0.8-0.3c0.3,0,0.6,0.1,0.8,0.3
		C111.3,41,111.4,41.3,111.4,41.6z M108.4,54.8c-0.1,0-0.3,0-0.6,0c-0.2,0-0.5-0.1-0.6-0.1l0.2-1.5c0.2,0.1,0.5,0.1,0.8,0.1
		c0.4,0,0.7-0.1,0.9-0.4c0.2-0.3,0.3-0.6,0.3-1.1V44h1.9v7.8c0,1-0.2,1.8-0.7,2.3C110,54.6,109.3,54.8,108.4,54.8z M105.6,47.2
		c0-0.3,0-0.5-0.1-0.7c-0.1-0.2-0.2-0.4-0.3-0.6c-0.1-0.2-0.3-0.3-0.5-0.4c-0.2-0.1-0.4-0.1-0.7-0.1c-0.3,0-0.5,0.1-0.8,0.2
		c-0.2,0.1-0.4,0.2-0.5,0.4c-0.1,0.2-0.3,0.4-0.3,0.6c-0.1,0.2-0.1,0.5-0.2,0.7H105.6z M100.2,48c0-0.7,0.1-1.3,0.3-1.9
		c0.2-0.5,0.5-1,0.8-1.3c0.3-0.4,0.7-0.6,1.2-0.8c0.5-0.2,0.9-0.3,1.4-0.3c1.1,0,2,0.3,2.6,1c0.6,0.7,0.9,1.7,0.9,3.1
		c0,0.1,0,0.2,0,0.3c0,0.1,0,0.2,0,0.3h-5.3c0.1,0.6,0.3,1.1,0.7,1.5c0.4,0.4,1,0.5,1.8,0.5c0.5,0,0.9,0,1.2-0.1
		c0.4-0.1,0.7-0.2,0.9-0.3l0.2,1.5c-0.1,0.1-0.2,0.1-0.4,0.2c-0.2,0.1-0.4,0.1-0.6,0.2c-0.2,0-0.5,0.1-0.7,0.1c-0.3,0-0.5,0-0.8,0
		c-0.7,0-1.3-0.1-1.8-0.3c-0.5-0.2-1-0.5-1.3-0.9c-0.3-0.4-0.6-0.8-0.8-1.3C100.3,49.2,100.2,48.6,100.2,48z M98.7,48
		c0,0.6-0.1,1.2-0.2,1.7c-0.2,0.5-0.4,1-0.7,1.3c-0.3,0.4-0.7,0.7-1.1,0.9c-0.4,0.2-0.9,0.3-1.5,0.3c-0.4,0-0.7,0-1-0.1
		c-0.3-0.1-0.6-0.2-0.8-0.3v3.1h-1.9V44.2c0.4-0.1,0.8-0.2,1.4-0.3c0.6-0.1,1.1-0.1,1.7-0.1c0.6,0,1.2,0.1,1.7,0.3
		c0.5,0.2,0.9,0.5,1.3,0.8c0.4,0.4,0.6,0.8,0.8,1.3C98.6,46.8,98.7,47.3,98.7,48z M96.8,48c0-0.8-0.2-1.5-0.6-1.9
		c-0.4-0.5-1-0.7-1.8-0.7c-0.2,0-0.4,0-0.5,0c-0.2,0-0.4,0-0.6,0.1v4.6c0.2,0.1,0.4,0.2,0.7,0.3c0.3,0.1,0.6,0.1,0.9,0.1
		c0.7,0,1.2-0.2,1.5-0.7C96.7,49.4,96.8,48.8,96.8,48z M87.7,48c0-0.8-0.2-1.4-0.5-1.9c-0.3-0.5-0.8-0.7-1.4-0.7
		c-0.6,0-1.1,0.2-1.4,0.7c-0.3,0.5-0.5,1.1-0.5,1.9c0,0.8,0.2,1.4,0.5,1.9c0.3,0.5,0.8,0.7,1.4,0.7c0.6,0,1.1-0.2,1.4-0.7
		C87.5,49.4,87.7,48.8,87.7,48z M89.6,48c0,0.6-0.1,1.2-0.3,1.7c-0.2,0.5-0.4,1-0.8,1.3c-0.3,0.4-0.7,0.7-1.2,0.9
		c-0.5,0.2-1,0.3-1.6,0.3c-0.6,0-1.1-0.1-1.6-0.3c-0.5-0.2-0.9-0.5-1.2-0.9c-0.3-0.4-0.6-0.8-0.8-1.3c-0.2-0.5-0.3-1.1-0.3-1.7
		c0-0.6,0.1-1.2,0.3-1.7c0.2-0.5,0.5-1,0.8-1.3c0.3-0.4,0.7-0.7,1.2-0.9c0.5-0.2,1-0.3,1.5-0.3s1.1,0.1,1.6,0.3
		c0.5,0.2,0.9,0.5,1.2,0.9c0.3,0.4,0.6,0.8,0.8,1.3C89.5,46.8,89.6,47.3,89.6,48z M80.7,45.6c-0.2-0.1-0.4-0.1-0.6-0.2
		c-0.3-0.1-0.6-0.1-0.9-0.1c-0.2,0-0.4,0-0.7,0.1c-0.2,0-0.4,0.1-0.5,0.1V52h-1.9v-7.6c0.4-0.1,0.8-0.3,1.3-0.4
		c0.5-0.1,1.1-0.2,1.8-0.2c0.1,0,0.3,0,0.4,0c0.2,0,0.3,0,0.5,0.1c0.2,0,0.3,0.1,0.5,0.1c0.2,0,0.3,0.1,0.4,0.1L80.7,45.6z
		 M73.8,51.7c-0.4,0.1-0.8,0.2-1.4,0.3c-0.6,0.1-1.2,0.1-1.9,0.1c-0.6,0-1.2-0.1-1.6-0.3c-0.4-0.2-0.8-0.4-1-0.8
		c-0.3-0.3-0.4-0.7-0.6-1.2c-0.1-0.5-0.2-1-0.2-1.5V44H69v4.2c0,0.9,0.1,1.5,0.4,1.8c0.3,0.4,0.7,0.6,1.3,0.6c0.2,0,0.5,0,0.7,0
		c0.3,0,0.4,0,0.6-0.1V44h1.9V51.7z M58.6,52V41.4h6.8V43h-4.9v2.6h4.4v1.6h-4.4v3.1h5.3V52H58.6z M121.7,32c0-0.3,0-0.5-0.1-0.7
		c-0.1-0.2-0.2-0.4-0.3-0.6c-0.1-0.2-0.3-0.3-0.5-0.4c-0.2-0.1-0.4-0.1-0.7-0.1c-0.3,0-0.5,0.1-0.8,0.2c-0.2,0.1-0.4,0.2-0.5,0.4
		c-0.1,0.2-0.3,0.4-0.3,0.6c-0.1,0.2-0.1,0.5-0.2,0.7H121.7z M116.3,32.9c0-0.7,0.1-1.3,0.3-1.9c0.2-0.5,0.5-1,0.8-1.3
		c0.3-0.4,0.7-0.6,1.2-0.8c0.4-0.2,0.9-0.3,1.4-0.3c1.1,0,2,0.3,2.6,1c0.6,0.7,0.9,1.7,0.9,3.1c0,0.1,0,0.2,0,0.3c0,0.1,0,0.2,0,0.3
		h-5.3c0.1,0.6,0.3,1.1,0.7,1.5c0.4,0.4,1,0.5,1.8,0.5c0.4,0,0.9,0,1.2-0.1c0.4-0.1,0.7-0.2,0.9-0.3l0.2,1.5
		c-0.1,0.1-0.2,0.1-0.4,0.2c-0.2,0.1-0.4,0.1-0.6,0.2c-0.2,0-0.5,0.1-0.7,0.1c-0.3,0-0.5,0-0.8,0c-0.7,0-1.3-0.1-1.8-0.3
		c-0.5-0.2-1-0.5-1.3-0.9c-0.3-0.4-0.6-0.8-0.8-1.3C116.4,34,116.3,33.5,116.3,32.9z M115.2,30.1c-0.2,0.2-0.5,0.5-0.8,0.9
		c-0.3,0.4-0.7,0.8-1.1,1.3c-0.4,0.5-0.8,1-1.1,1.5c-0.4,0.5-0.7,1-1,1.5h4.1v1.5h-6.4v-1.2c0.2-0.4,0.5-0.9,0.8-1.3
		c0.3-0.5,0.7-1,1-1.4c0.4-0.5,0.7-0.9,1.1-1.4c0.4-0.4,0.7-0.8,0.9-1.1h-3.7v-1.5h6.1V30.1z M104.6,35.5c0.5,0,0.8-0.1,1.1-0.2
		c0.2-0.1,0.3-0.3,0.3-0.6c0-0.3-0.1-0.5-0.4-0.7c-0.2-0.2-0.6-0.4-1.2-0.6c-0.3-0.1-0.6-0.3-0.9-0.4c-0.3-0.1-0.5-0.3-0.7-0.5
		c-0.2-0.2-0.4-0.4-0.5-0.7c-0.1-0.3-0.2-0.6-0.2-1c0-0.7,0.3-1.3,0.8-1.7c0.5-0.4,1.3-0.6,2.2-0.6c0.5,0,0.9,0,1.3,0.1
		c0.4,0.1,0.8,0.2,1,0.3l-0.3,1.5c-0.2-0.1-0.5-0.2-0.8-0.3c-0.3-0.1-0.7-0.1-1.1-0.1c-0.4,0-0.7,0.1-0.9,0.2
		c-0.2,0.1-0.4,0.3-0.4,0.6c0,0.1,0,0.3,0.1,0.4c0,0.1,0.1,0.2,0.2,0.3c0.1,0.1,0.3,0.2,0.4,0.3c0.2,0.1,0.4,0.2,0.7,0.3
		c0.4,0.2,0.8,0.3,1.1,0.5c0.3,0.2,0.6,0.3,0.8,0.5c0.2,0.2,0.3,0.4,0.4,0.7c0.1,0.3,0.1,0.6,0.1,0.9c0,0.8-0.3,1.3-0.9,1.7
		c-0.6,0.4-1.4,0.6-2.4,0.6c-0.7,0-1.3-0.1-1.7-0.2c-0.4-0.1-0.7-0.2-0.9-0.3l0.3-1.5c0.3,0.1,0.6,0.2,1,0.3
		C103.7,35.5,104.1,35.5,104.6,35.5z M100.2,36.6c-0.4,0.1-0.8,0.2-1.4,0.3C98.2,37,97.6,37,96.9,37c-0.6,0-1.2-0.1-1.6-0.3
		c-0.4-0.2-0.8-0.4-1-0.8c-0.3-0.3-0.4-0.7-0.6-1.2c-0.1-0.5-0.2-1-0.2-1.5v-4.5h1.9V33c0,0.9,0.1,1.5,0.4,1.8
		c0.3,0.4,0.7,0.6,1.3,0.6c0.2,0,0.5,0,0.7,0c0.3,0,0.4,0,0.6-0.1v-6.5h1.9V36.6z M91.3,36.6c-0.4,0.1-0.8,0.2-1.4,0.3
		C89.3,37,88.7,37,88.1,37c-0.6,0-1.2-0.1-1.7-0.3c-0.5-0.2-0.9-0.5-1.3-0.8s-0.6-0.8-0.8-1.3c-0.2-0.5-0.3-1.1-0.3-1.7
		c0-0.6,0.1-1.2,0.2-1.7c0.2-0.5,0.4-1,0.7-1.3c0.3-0.4,0.7-0.7,1.1-0.9c0.4-0.2,0.9-0.3,1.5-0.3c0.4,0,0.7,0,1,0.1
		c0.3,0.1,0.6,0.2,0.8,0.3v-3.8l1.9-0.3V36.6z M86,32.8c0,0.8,0.2,1.5,0.6,1.9c0.4,0.5,0.9,0.7,1.6,0.7c0.3,0,0.5,0,0.8,0
		c0.2,0,0.4-0.1,0.5-0.1v-4.6c-0.2-0.1-0.4-0.2-0.7-0.3c-0.3-0.1-0.6-0.1-0.9-0.1c-0.7,0-1.2,0.2-1.5,0.7C86.1,31.4,86,32,86,32.8z
		 M75.5,29.1c0.4-0.1,0.8-0.2,1.4-0.3c0.6-0.1,1.2-0.1,1.9-0.1c0.7,0,1.2,0.1,1.6,0.3c0.4,0.2,0.8,0.4,1.1,0.8
		c0.3,0.3,0.4,0.7,0.6,1.2c0.1,0.5,0.2,1,0.2,1.5v4.5h-1.9v-4.2c0-0.4,0-0.8-0.1-1.1c-0.1-0.3-0.1-0.5-0.3-0.7
		c-0.1-0.2-0.3-0.3-0.5-0.4c-0.2-0.1-0.5-0.1-0.8-0.1c-0.2,0-0.5,0-0.7,0c-0.3,0-0.4,0.1-0.6,0.1v6.5h-1.9V29.1z M73.2,36.6
		c-0.4,0.1-0.8,0.2-1.4,0.3C71.2,37,70.6,37,69.9,37c-0.6,0-1.2-0.1-1.6-0.3c-0.4-0.2-0.8-0.4-1-0.8c-0.3-0.3-0.4-0.7-0.6-1.2
		c-0.1-0.5-0.2-1-0.2-1.5v-4.5h1.9V33c0,0.9,0.1,1.5,0.4,1.8c0.3,0.4,0.7,0.6,1.3,0.6c0.2,0,0.5,0,0.7,0c0.3,0,0.4,0,0.6-0.1v-6.5
		h1.9V36.6z M58.6,36.8V26.2h6.7v1.6h-4.8v2.7h4.2v1.6h-4.2v4.6H58.6z"/>
	<polygon class="st0" points="43.8,74 14.5,69 14.5,24.3 43.8,14.8 	"/>
	<g>
		<defs>
			<polygon id="SVGID_1_" points="43.8,74 14.5,69 14.5,24.3 43.8,14.8 			"/>
		</defs>
		<clipPath id="SVGID_2_">
			<use xlink:href="#SVGID_1_"  style="overflow:visible;"/>
		</clipPath>
	</g>
	<path class="st1" d="M14.5,57.8V46.3c1.5,0.4,3.1,0.6,4.2-0.1c2.4-1.4,6-5.8,6-5.8s-1.9,4.7-1.2,6.4c0.8,1.8,5.2,1.9,5.2,1.9
		s-5.1,3.1-7.4,5.2c-2.4,2.1-4.1,9.8-4.1,9.8S16,58.8,14.5,57.8"/>
	<g>
		<defs>
			<path id="SVGID_3_" d="M14.5,57.8V46.3c1.5,0.4,3.1,0.6,4.2-0.1c2.4-1.4,6-5.8,6-5.8s-1.9,4.7-1.2,6.4c0.8,1.8,5.2,1.9,5.2,1.9
				s-5.1,3.1-7.4,5.2c-2.4,2.1-4.1,9.8-4.1,9.8S16,58.8,14.5,57.8"/>
		</defs>
		<clipPath id="SVGID_4_">
			<use xlink:href="#SVGID_3_"  style="overflow:visible;"/>
		</clipPath>
	</g>
	<path class="st2" d="M43.8,37.4c-1,0.6-2,1.2-2.8,1.3c-2.4,0.5-4.9-2.3-4.9-2.3s0.6,4-0.9,6.5c-1.6,2.6-6.6,5.8-6.6,5.8
		s5.5-1.1,6.6,0.7c1.1,1.9,1.3,8.3,1.3,8.3s2.8-7.8,5.4-8.9c0.5-0.2,1.1-0.4,1.8-0.6V37.4z"/>
	<path class="st3" d="M24.7,40.4c0,0,2.8-4.5,2.7-6.1c-0.2-1.5-3.1-2.1-3.1-2.1s3.8-1,5.5-2.5c1.6-1.5,3-4.5,3-4.5s0.4,2.5,1.8,2.9
		c1.5,0.4,5.5-1.2,5.5-1.2s-3.1,3-4.4,4.6c-1.3,1.7,0.5,4.9,0.5,4.9s-3.3-1.2-5.2-0.8C29.2,36,24.7,40.4,24.7,40.4"/>
</g>
</svg>
