<?xml version="1.0" encoding="utf-8"?>
<!-- Generator: Adobe Illustrator 24.0.2, SVG Export Plug-In . SVG Version: 6.00 Build 0)  -->
<svg version="1.1" xmlns="http://www.w3.org/2000/svg" xmlns:xlink="http://www.w3.org/1999/xlink" x="0px" y="0px"
	 viewBox="0 0 496.6 165.6" style="enable-background:new 0 0 496.6 165.6;" xml:space="preserve">
<style type="text/css">
	.st0{fill:#FFFFFF;}
	.st1{fill:#B61F2B;}
	.st2{fill:#878787;}
	.st3{display:none;}
	.st4{display:inline;}
	.st5{fill:none;}
	.st6{fill:none;stroke:#000000;stroke-width:0.3;}
</style>
<g id="znak">
	<g>
		<g>
			<path d="M222.5,58c-1,0-1.9,0-2.7,0.1v8.1h2c1.1,0,2.1-0.1,2.9-0.2c0.8-0.1,1.6-0.3,2.1-0.6c0.6-0.3,1-0.7,1.3-1.3
				c0.3-0.5,0.4-1.2,0.4-2c0-0.8-0.1-1.4-0.4-2c-0.3-0.5-0.7-1-1.3-1.3c-0.5-0.3-1.2-0.5-1.9-0.7C224.2,58,223.4,58,222.5,58
				 M222.2,54c3.6,0,6.4,0.7,8.3,2c1.9,1.3,2.9,3.4,2.9,6.1c0,3.4-1.7,5.7-5,6.9c0.5,0.6,1,1.2,1.6,2c0.6,0.8,1.2,1.7,1.8,2.6
				c0.6,0.9,1.2,1.9,1.7,2.9c0.6,1,1.1,1.9,1.5,2.9h-5.1c-0.5-0.9-1-1.7-1.5-2.6c-0.5-0.9-1.1-1.7-1.6-2.6c-0.5-0.8-1.1-1.6-1.6-2.4
				c-0.5-0.7-1-1.4-1.5-2c-0.3,0-0.6,0-0.9,0H222h-2.2v9.5h-4.6V54.6c1.1-0.2,2.3-0.4,3.6-0.5C220.1,54.1,221.2,54,222.2,54"/>
			<path d="M251.7,63.5c-0.5,0.5-1.1,1.2-1.9,2.1c-0.8,0.9-1.6,1.9-2.5,3.1c-0.9,1.1-1.8,2.3-2.7,3.5c-0.9,1.2-1.7,2.4-2.4,3.5h9.8
				v3.7h-15.1v-2.7c0.5-1,1.2-2,2-3.2c0.8-1.1,1.6-2.3,2.5-3.4c0.8-1.1,1.7-2.2,2.5-3.3c0.8-1,1.6-1.9,2.2-2.7h-8.7v-3.7h14.4V63.5z
				"/>
			<path d="M267,68c0-0.6-0.1-1.2-0.3-1.7c-0.2-0.5-0.4-1-0.7-1.4c-0.3-0.4-0.7-0.7-1.2-0.9c-0.5-0.2-1-0.3-1.7-0.3
				c-0.7,0-1.3,0.1-1.8,0.4c-0.5,0.3-0.9,0.6-1.3,1c-0.4,0.4-0.6,0.9-0.8,1.4c-0.2,0.5-0.3,1.1-0.4,1.6H267z M254.3,70
				c0-1.7,0.2-3.1,0.7-4.4c0.5-1.3,1.2-2.3,2-3.1c0.8-0.8,1.8-1.5,2.8-1.9c1.1-0.4,2.1-0.6,3.3-0.6c2.6,0,4.6,0.8,6.1,2.4
				c1.5,1.6,2.2,4,2.2,7.2c0,0.2,0,0.5,0,0.8c0,0.3,0,0.6-0.1,0.8h-12.5c0.1,1.5,0.7,2.7,1.6,3.5c1,0.8,2.3,1.3,4.1,1.3
				c1.1,0,2-0.1,2.9-0.3c0.9-0.2,1.6-0.4,2.1-0.6l0.6,3.6c-0.2,0.1-0.6,0.3-1,0.4c-0.4,0.1-0.9,0.3-1.4,0.4
				c-0.5,0.1-1.1,0.2-1.8,0.3c-0.6,0.1-1.3,0.1-1.9,0.1c-1.7,0-3.1-0.2-4.3-0.7c-1.2-0.5-2.2-1.2-3-2.1c-0.8-0.9-1.4-1.9-1.8-3.1
				C254.5,72.7,254.3,71.4,254.3,70"/>
			<path d="M275,69.9c0-1.4,0.2-2.7,0.7-3.9c0.4-1.2,1.1-2.3,1.9-3.2c0.8-0.9,1.8-1.6,3-2.1c1.2-0.5,2.5-0.8,3.9-0.8
				c1.8,0,3.5,0.3,5.1,1l-0.9,3.6c-0.5-0.2-1.1-0.4-1.7-0.5c-0.6-0.1-1.3-0.2-2-0.2c-1.7,0-3,0.5-3.9,1.6c-0.9,1.1-1.3,2.6-1.3,4.5
				c0,1.9,0.4,3.4,1.3,4.5c0.8,1.1,2.3,1.6,4.3,1.6c0.8,0,1.5-0.1,2.2-0.2c0.7-0.1,1.4-0.3,1.9-0.5l0.6,3.6
				c-0.5,0.2-1.2,0.5-2.2,0.6c-1,0.2-2,0.3-3,0.3c-1.6,0-3-0.2-4.2-0.7c-1.2-0.5-2.2-1.2-3-2.1c-0.8-0.9-1.4-1.9-1.8-3.2
				C275.2,72.7,275,71.3,275,69.9"/>
			<path d="M306.4,63.5c-0.5,0.5-1.1,1.2-1.9,2.1c-0.8,0.9-1.6,1.9-2.5,3.1c-0.9,1.1-1.8,2.3-2.7,3.5c-0.9,1.2-1.7,2.4-2.4,3.5h9.8
				v3.7h-15.1v-2.7c0.5-1,1.2-2,2-3.2c0.8-1.1,1.6-2.3,2.5-3.4c0.8-1.1,1.7-2.2,2.5-3.3c0.8-1,1.6-1.9,2.2-2.7H292v-3.7h14.4V63.5z"
				/>
			<path d="M323.2,70c0-2-0.4-3.5-1.3-4.6c-0.9-1.1-2.3-1.6-4.3-1.6c-0.4,0-0.8,0-1.3,0.1c-0.4,0-0.9,0.1-1.3,0.2v10.8
				c0.4,0.3,0.9,0.5,1.5,0.7c0.6,0.2,1.3,0.3,2,0.3c1.6,0,2.8-0.5,3.5-1.6C322.9,73.3,323.2,71.8,323.2,70 M327.7,69.9
				c0,1.4-0.2,2.8-0.6,4c-0.4,1.2-0.9,2.2-1.6,3.1c-0.7,0.9-1.6,1.5-2.6,2c-1.1,0.5-2.2,0.7-3.6,0.7c-0.9,0-1.7-0.1-2.5-0.3
				c-0.7-0.2-1.4-0.5-1.8-0.7v7.4h-4.4V61c0.9-0.2,2-0.5,3.3-0.7c1.3-0.2,2.7-0.3,4.1-0.3c1.5,0,2.8,0.2,4,0.7c1.2,0.5,2.2,1.1,3,2
				c0.8,0.9,1.5,1.9,1.9,3.1C327.5,67,327.7,68.4,327.7,69.9"/>
			<path d="M344.9,69.9c0-1.9-0.4-3.4-1.2-4.5c-0.8-1.1-1.9-1.6-3.4-1.6c-1.4,0-2.6,0.5-3.4,1.6c-0.8,1.1-1.2,2.6-1.2,4.5
				c0,1.9,0.4,3.4,1.2,4.5c0.8,1.1,1.9,1.7,3.4,1.7c1.5,0,2.6-0.6,3.4-1.7C344.5,73.3,344.9,71.8,344.9,69.9 M349.4,69.9
				c0,1.5-0.2,2.9-0.7,4.1c-0.4,1.2-1.1,2.3-1.8,3.2c-0.8,0.9-1.8,1.5-2.9,2c-1.1,0.5-2.4,0.7-3.7,0.7c-1.3,0-2.6-0.2-3.7-0.7
				c-1.1-0.5-2.1-1.2-2.9-2c-0.8-0.9-1.4-1.9-1.9-3.2c-0.5-1.2-0.7-2.6-0.7-4.1c0-1.5,0.2-2.9,0.7-4.1c0.4-1.2,1.1-2.3,1.9-3.1
				c0.8-0.9,1.8-1.5,2.9-2c1.1-0.5,2.3-0.7,3.6-0.7c1.3,0,2.6,0.2,3.7,0.7c1.1,0.5,2.1,1.1,2.9,2c0.8,0.9,1.4,1.9,1.9,3.1
				C349.1,67,349.4,68.4,349.4,69.9"/>
			<path d="M358.6,76.2c1.2,0,2-0.1,2.5-0.4c0.5-0.3,0.8-0.8,0.8-1.4c0-0.6-0.3-1.1-0.9-1.6c-0.6-0.4-1.5-0.9-2.8-1.3
				c-0.8-0.3-1.5-0.6-2.2-0.9c-0.7-0.3-1.2-0.7-1.7-1.1c-0.5-0.4-0.9-1-1.1-1.6c-0.3-0.6-0.4-1.4-0.4-2.3c0-1.7,0.6-3.1,1.9-4.1
				c1.3-1,3-1.5,5.2-1.5c1.1,0,2.2,0.1,3.2,0.3c1,0.2,1.8,0.4,2.3,0.6l-0.8,3.5c-0.5-0.2-1.1-0.4-1.8-0.6c-0.7-0.2-1.6-0.3-2.6-0.3
				c-0.9,0-1.6,0.2-2.2,0.5c-0.6,0.3-0.8,0.8-0.8,1.4c0,0.3,0.1,0.6,0.2,0.8c0.1,0.2,0.3,0.5,0.6,0.7c0.3,0.2,0.6,0.4,1.1,0.6
				c0.4,0.2,1,0.4,1.6,0.6c1,0.4,1.9,0.8,2.6,1.1c0.7,0.4,1.3,0.8,1.8,1.3c0.5,0.5,0.8,1,1,1.6c0.2,0.6,0.3,1.3,0.3,2.2
				c0,1.8-0.7,3.2-2,4.1c-1.3,0.9-3.3,1.4-5.7,1.4c-1.7,0-3-0.1-4-0.4c-1-0.3-1.7-0.5-2.1-0.7l0.8-3.7c0.7,0.3,1.4,0.5,2.3,0.8
				C356.4,76.1,357.5,76.2,358.6,76.2"/>
			<path d="M383,70c0-2-0.4-3.5-1.3-4.6c-0.9-1.1-2.3-1.6-4.3-1.6c-0.4,0-0.8,0-1.3,0.1c-0.4,0-0.9,0.1-1.3,0.2v10.8
				c0.4,0.3,0.9,0.5,1.5,0.7c0.6,0.2,1.3,0.3,2,0.3c1.6,0,2.8-0.5,3.5-1.6C382.6,73.3,383,71.8,383,70 M387.5,69.9
				c0,1.4-0.2,2.8-0.6,4c-0.4,1.2-0.9,2.2-1.6,3.1c-0.7,0.9-1.6,1.5-2.6,2c-1,0.5-2.2,0.7-3.6,0.7c-0.9,0-1.7-0.1-2.5-0.3
				c-0.7-0.2-1.4-0.5-1.8-0.7v7.4h-4.4V61c0.9-0.2,2-0.5,3.3-0.7c1.3-0.2,2.7-0.3,4.1-0.3c1.5,0,2.8,0.2,4,0.7c1.2,0.5,2.2,1.1,3,2
				c0.8,0.9,1.5,1.9,1.9,3.1C387.3,67,387.5,68.4,387.5,69.9"/>
			<path d="M404.6,69.9c0-1.9-0.4-3.4-1.2-4.5c-0.8-1.1-1.9-1.6-3.4-1.6c-1.4,0-2.6,0.5-3.4,1.6c-0.8,1.1-1.2,2.6-1.2,4.5
				c0,1.9,0.4,3.4,1.2,4.5c0.8,1.1,1.9,1.7,3.4,1.7c1.5,0,2.6-0.6,3.4-1.7C404.2,73.3,404.6,71.8,404.6,69.9 M409.1,69.9
				c0,1.5-0.2,2.9-0.7,4.1c-0.4,1.2-1.1,2.3-1.8,3.2c-0.8,0.9-1.8,1.5-2.9,2c-1.1,0.5-2.4,0.7-3.7,0.7c-1.4,0-2.6-0.2-3.7-0.7
				c-1.1-0.5-2.1-1.2-2.9-2c-0.8-0.9-1.4-1.9-1.9-3.2c-0.5-1.2-0.7-2.6-0.7-4.1c0-1.5,0.2-2.9,0.7-4.1c0.4-1.2,1.1-2.3,1.9-3.1
				c0.8-0.9,1.8-1.5,2.9-2c1.1-0.5,2.3-0.7,3.7-0.7c1.3,0,2.6,0.2,3.7,0.7c1.1,0.5,2.1,1.1,2.9,2c0.8,0.9,1.4,1.9,1.9,3.1
				C408.9,67,409.1,68.4,409.1,69.9"/>
			<path d="M420.2,79.7c-1.3,0-2.4-0.2-3.2-0.4c-0.9-0.3-1.5-0.6-2-1.1c-0.5-0.5-0.9-1.1-1.1-1.8c-0.2-0.7-0.3-1.6-0.3-2.5V55.2
				l4.4-0.7V73c0,0.5,0,1,0.1,1.3c0.1,0.4,0.2,0.7,0.5,0.9c0.2,0.3,0.5,0.4,0.9,0.6c0.4,0.1,0.9,0.2,1.4,0.3L420.2,79.7z"/>
			<path d="M428.8,79.4h-4.4V60.4h4.4V79.4z M429.3,54.9c0,0.8-0.3,1.5-0.8,2c-0.5,0.5-1.2,0.7-1.9,0.7c-0.7,0-1.4-0.2-1.9-0.7
				c-0.5-0.5-0.8-1.1-0.8-2c0-0.8,0.3-1.5,0.8-2c0.5-0.5,1.2-0.7,1.9-0.7c0.7,0,1.4,0.2,1.9,0.7C429,53.4,429.3,54,429.3,54.9"/>
			<path d="M434.2,55.2l4.4-0.7v5.9h6.7v3.7h-6.7v7.7c0,1.5,0.2,2.6,0.7,3.3c0.5,0.7,1.3,1,2.5,1c0.8,0,1.5-0.1,2.1-0.3
				c0.6-0.2,1.1-0.3,1.5-0.5l0.7,3.5c-0.5,0.2-1.2,0.4-2,0.7c-0.8,0.2-1.8,0.3-2.9,0.3c-1.4,0-2.5-0.2-3.4-0.5
				c-0.9-0.4-1.6-0.9-2.2-1.6c-0.5-0.7-0.9-1.5-1.1-2.5c-0.2-1-0.3-2.1-0.3-3.3V55.2z"/>
			<path d="M456.2,76.3c1.4,0,2.4-0.1,3.1-0.2v-4.8c-0.2-0.1-0.6-0.1-1.1-0.2c-0.5-0.1-1-0.1-1.5-0.1c-0.5,0-1,0-1.5,0.1
				c-0.5,0.1-0.9,0.2-1.3,0.4c-0.4,0.2-0.7,0.5-1,0.8c-0.2,0.3-0.4,0.8-0.4,1.3c0,1,0.3,1.8,1,2.2C454.2,76.1,455.1,76.3,456.2,76.3
				 M455.8,60c1.5,0,2.7,0.2,3.7,0.5c1,0.4,1.8,0.9,2.4,1.5c0.6,0.7,1,1.4,1.3,2.4c0.2,0.9,0.4,1.9,0.4,3.1v11.5
				c-0.7,0.1-1.7,0.3-3.1,0.5c-1.4,0.2-2.9,0.3-4.6,0.3c-1.1,0-2.2-0.1-3.1-0.3c-0.9-0.2-1.7-0.6-2.4-1.1c-0.7-0.5-1.2-1.1-1.6-1.9
				c-0.4-0.8-0.6-1.7-0.6-2.9c0-1.1,0.2-2,0.6-2.8c0.4-0.7,1-1.4,1.7-1.8c0.7-0.5,1.6-0.8,2.5-1c1-0.2,1.9-0.3,3-0.3
				c0.5,0,1,0,1.5,0.1c0.5,0.1,1.1,0.2,1.7,0.3v-0.7c0-0.5-0.1-1-0.2-1.4c-0.1-0.5-0.3-0.9-0.6-1.2c-0.3-0.4-0.7-0.6-1.2-0.8
				c-0.5-0.2-1.1-0.3-1.9-0.3c-1,0-1.9,0.1-2.8,0.2c-0.8,0.1-1.5,0.3-2.1,0.5l-0.5-3.5c0.6-0.2,1.4-0.4,2.4-0.6
				C453.5,60.1,454.6,60,455.8,60"/>
			<path d="M222.7,91.5c-1.2,0-2.1,0-2.9,0.1v8.5h2.2c2.2,0,3.9-0.3,5.1-0.9c1.2-0.6,1.8-1.8,1.8-3.5c0-0.8-0.2-1.5-0.5-2.1
				c-0.3-0.6-0.7-1-1.3-1.3c-0.6-0.3-1.2-0.5-2-0.7C224.3,91.6,223.5,91.5,222.7,91.5 M222.3,87.6c3.6,0,6.4,0.7,8.4,2
				c1.9,1.3,2.9,3.4,2.9,6.2c0,1.5-0.3,2.7-0.8,3.8c-0.5,1-1.3,1.9-2.3,2.6c-1,0.7-2.2,1.2-3.6,1.5c-1.4,0.3-3.1,0.5-4.9,0.5h-2.3
				v8.8h-4.6V88.2c1.1-0.2,2.2-0.4,3.5-0.5C220.1,87.6,221.3,87.6,222.3,87.6"/>
			<path d="M249.6,103.4c0-1.9-0.4-3.4-1.2-4.5c-0.8-1.1-1.9-1.6-3.4-1.6c-1.4,0-2.6,0.5-3.4,1.6c-0.8,1.1-1.2,2.6-1.2,4.5
				c0,1.9,0.4,3.4,1.2,4.5c0.8,1.1,1.9,1.7,3.4,1.7c1.4,0,2.6-0.6,3.4-1.7C249.2,106.9,249.6,105.3,249.6,103.4 M254.1,103.4
				c0,1.5-0.2,2.9-0.7,4.1c-0.4,1.2-1,2.3-1.8,3.2c-0.8,0.9-1.8,1.5-2.9,2c-1.1,0.5-2.4,0.7-3.7,0.7c-1.4,0-2.6-0.2-3.7-0.7
				c-1.1-0.5-2.1-1.2-2.9-2c-0.8-0.9-1.4-1.9-1.9-3.2c-0.4-1.2-0.7-2.6-0.7-4.1c0-1.5,0.2-2.9,0.7-4.1c0.4-1.2,1.1-2.3,1.9-3.1
				c0.8-0.9,1.8-1.5,2.9-2c1.1-0.5,2.3-0.7,3.6-0.7c1.3,0,2.6,0.2,3.7,0.7c1.1,0.5,2.1,1.1,2.9,2c0.8,0.9,1.4,1.9,1.9,3.1
				C253.8,100.6,254.1,101.9,254.1,103.4"/>
			<path d="M265.2,113.3c-1.3,0-2.4-0.2-3.2-0.4c-0.9-0.3-1.5-0.6-2-1.1c-0.5-0.5-0.9-1.1-1.1-1.8c-0.2-0.7-0.3-1.6-0.3-2.5V88.8
				l4.4-0.7v18.4c0,0.5,0,1,0.1,1.3c0.1,0.4,0.2,0.7,0.5,0.9c0.2,0.3,0.5,0.4,0.9,0.6c0.4,0.1,0.8,0.2,1.4,0.3L265.2,113.3z"/>
			<path d="M274.1,109.8c1.2,0,2-0.1,2.5-0.4c0.5-0.3,0.8-0.8,0.8-1.4c0-0.6-0.3-1.2-0.8-1.6c-0.6-0.4-1.5-0.9-2.8-1.3
				c-0.8-0.3-1.5-0.6-2.2-0.9c-0.7-0.3-1.2-0.7-1.7-1.1c-0.5-0.4-0.9-1-1.1-1.6c-0.3-0.6-0.4-1.4-0.4-2.3c0-1.7,0.6-3.1,1.9-4.1
				c1.3-1,3-1.5,5.2-1.5c1.1,0,2.2,0.1,3.2,0.3c1,0.2,1.8,0.4,2.3,0.6l-0.8,3.5c-0.5-0.2-1.1-0.4-1.8-0.6c-0.8-0.2-1.6-0.3-2.6-0.3
				c-0.9,0-1.6,0.1-2.2,0.4c-0.6,0.3-0.8,0.8-0.8,1.4c0,0.3,0.1,0.6,0.2,0.8c0.1,0.2,0.3,0.5,0.6,0.7c0.3,0.2,0.6,0.4,1,0.6
				c0.4,0.2,1,0.4,1.6,0.6c1,0.4,1.9,0.8,2.6,1.1c0.7,0.4,1.3,0.8,1.8,1.3c0.5,0.5,0.8,1,1,1.6c0.2,0.6,0.3,1.3,0.3,2.2
				c0,1.8-0.7,3.2-2,4.1c-1.3,0.9-3.3,1.4-5.7,1.4c-1.7,0-3-0.1-4-0.4c-1-0.3-1.7-0.5-2.1-0.7l0.8-3.7c0.7,0.3,1.4,0.5,2.3,0.8
				C271.9,109.7,272.9,109.8,274.1,109.8"/>
			<path d="M290.2,101.4c0.6-0.6,1.1-1.2,1.8-1.9c0.6-0.7,1.2-1.3,1.8-2c0.6-0.7,1.2-1.3,1.7-1.9c0.5-0.6,1-1.2,1.4-1.6h5.2
				c-1.2,1.3-2.5,2.7-3.8,4.2c-1.3,1.4-2.7,2.9-4,4.2c0.7,0.6,1.5,1.3,2.3,2.2c0.8,0.9,1.6,1.8,2.3,2.7c0.7,1,1.4,1.9,2.1,2.9
				c0.7,1,1.2,1.9,1.6,2.7h-5.1c-0.4-0.7-0.9-1.5-1.5-2.3c-0.6-0.8-1.2-1.6-1.8-2.4c-0.7-0.8-1.3-1.5-2-2.2c-0.7-0.7-1.3-1.3-2-1.8
				v8.7h-4.4V88.8l4.4-0.7V101.4z"/>
			<path d="M312.5,109.8c1.4,0,2.4-0.1,3.1-0.2v-4.8c-0.2-0.1-0.6-0.1-1.1-0.2c-0.5-0.1-1-0.1-1.5-0.1c-0.5,0-1,0-1.5,0.1
				c-0.5,0.1-0.9,0.2-1.3,0.4c-0.4,0.2-0.7,0.5-1,0.8c-0.2,0.4-0.4,0.8-0.4,1.3c0,1,0.3,1.8,1,2.2
				C310.5,109.6,311.4,109.8,312.5,109.8 M312.1,93.5c1.4,0,2.7,0.2,3.7,0.5c1,0.4,1.8,0.9,2.4,1.5c0.6,0.7,1,1.4,1.3,2.4
				c0.3,0.9,0.4,1.9,0.4,3.1v11.5c-0.7,0.1-1.7,0.3-3.1,0.5c-1.4,0.2-2.9,0.3-4.6,0.3c-1.1,0-2.2-0.1-3.1-0.3
				c-0.9-0.2-1.7-0.6-2.4-1.1c-0.7-0.5-1.2-1.1-1.6-1.9c-0.4-0.8-0.6-1.7-0.6-2.9c0-1.1,0.2-2,0.6-2.8c0.4-0.7,1-1.4,1.7-1.8
				c0.7-0.5,1.6-0.8,2.5-1c1-0.2,1.9-0.3,3-0.3c0.5,0,1,0,1.5,0.1c0.5,0.1,1.1,0.2,1.7,0.3V101c0-0.5-0.1-1-0.2-1.4
				c-0.1-0.5-0.3-0.9-0.6-1.2c-0.3-0.3-0.7-0.6-1.2-0.8c-0.5-0.2-1.1-0.3-1.9-0.3c-1,0-1.9,0.1-2.8,0.2c-0.8,0.1-1.5,0.3-2.1,0.5
				l-0.5-3.5c0.6-0.2,1.4-0.4,2.4-0.6C309.8,93.6,310.9,93.5,312.1,93.5"/>
		</g>
		<g>
			<rect x="33" y="33.1" class="st0" width="149.1" height="49.8"/>
			<rect x="33" y="82.8" class="st1" width="149.1" height="49.8"/>
		</g>
		<path class="st2" d="M33.5,33.5h148.2v98.6H33.5V33.5z M33,132.6h149.1V33.1H33V132.6z"/>
	</g>
</g>
<g id="ramka" class="st3">
	<g class="st4">
		<rect x="0" y="0" class="st5" width="496.5" height="165.6"/>
		<line class="st6" x1="0" y1="-37.4" x2="0" y2="-1.4"/>
		<line class="st6" x1="-37.4" y1="0" x2="-1.4" y2="0"/>
		<line class="st6" x1="-37.3" y1="165.6" x2="-1.3" y2="165.6"/>
		<line class="st6" x1="0" y1="203" x2="0" y2="167"/>
		<line class="st6" x1="495.1" y1="-37.4" x2="495.1" y2="-1.4"/>
		<line class="st6" x1="534.9" y1="1" x2="498.9" y2="1"/>
		<line class="st6" x1="534.9" y1="165.6" x2="498.9" y2="165.6"/>
		<line class="st6" x1="496.6" y1="203" x2="496.6" y2="167"/>
	</g>
</g>
</svg>
