<?xml version="1.0" encoding="utf-8"?>
<!-- Generator: Adobe Illustrator 24.0.2, SVG Export Plug-In . SVG Version: 6.00 Build 0)  -->
<svg version="1.1" xmlns="http://www.w3.org/2000/svg" xmlns:xlink="http://www.w3.org/1999/xlink" x="0px" y="0px"
	 viewBox="0 0 496.6 165.6" style="enable-background:new 0 0 496.6 165.6;" xml:space="preserve">
<style type="text/css">
	.st0{display:none;}
	.st1{display:inline;}
	.st2{fill:#FFFFFF;}
	.st3{fill:#B61F2B;}
	.st4{fill:#878787;}
	.st5{display:inline;fill:none;}
	.st6{display:inline;fill:none;stroke:#000000;stroke-width:0.3;}
	.st7{fill-rule:evenodd;clip-rule:evenodd;fill:#FFD100;}
	.st8{fill-rule:evenodd;clip-rule:evenodd;fill:#3DAE2B;}
	.st9{fill-rule:evenodd;clip-rule:evenodd;fill:#3CB4E5;}
	.st10{fill-rule:evenodd;clip-rule:evenodd;fill:#5B6670;}
	.st11{fill:#5F6A77;}
	.st12{font-family:'Aller-Bold';}
	.st13{font-size:23.7454px;}
	.st14{fill:none;stroke:#FFFFFF;stroke-width:0.216;stroke-miterlimit:22.9256;}
</style>
<g id="znak" class="st0">
	<g class="st1">
		<g>
			<path d="M222.5,58c-1,0-1.9,0-2.7,0.1v8.1h2c1.1,0,2.1-0.1,2.9-0.2c0.8-0.1,1.6-0.3,2.1-0.6c0.6-0.3,1-0.7,1.3-1.3
				c0.3-0.5,0.4-1.2,0.4-2c0-0.8-0.1-1.4-0.4-2c-0.3-0.5-0.7-1-1.3-1.3c-0.5-0.3-1.2-0.5-1.9-0.7C224.2,58,223.4,58,222.5,58
				 M222.2,54c3.6,0,6.4,0.7,8.3,2c1.9,1.3,2.9,3.4,2.9,6.1c0,3.4-1.7,5.7-5,6.9c0.5,0.6,1,1.2,1.6,2c0.6,0.8,1.2,1.7,1.8,2.6
				c0.6,0.9,1.2,1.9,1.7,2.9c0.6,1,1.1,1.9,1.5,2.9h-5.1c-0.5-0.9-1-1.7-1.5-2.6c-0.5-0.9-1.1-1.7-1.6-2.6c-0.5-0.8-1.1-1.6-1.6-2.4
				c-0.5-0.7-1-1.4-1.5-2c-0.3,0-0.6,0-0.9,0H222h-2.2v9.5h-4.6V54.6c1.1-0.2,2.3-0.4,3.6-0.5C220.1,54.1,221.2,54,222.2,54"/>
			<path d="M251.7,63.5c-0.5,0.5-1.1,1.2-1.9,2.1c-0.8,0.9-1.6,1.9-2.5,3.1c-0.9,1.1-1.8,2.3-2.7,3.5c-0.9,1.2-1.7,2.4-2.4,3.5h9.8
				v3.7h-15.1v-2.7c0.5-1,1.2-2,2-3.2c0.8-1.1,1.6-2.3,2.5-3.4c0.8-1.1,1.7-2.2,2.5-3.3c0.8-1,1.6-1.9,2.2-2.7h-8.7v-3.7h14.4V63.5z
				"/>
			<path d="M267,68c0-0.6-0.1-1.2-0.3-1.7c-0.2-0.5-0.4-1-0.7-1.4c-0.3-0.4-0.7-0.7-1.2-0.9c-0.5-0.2-1-0.3-1.7-0.3
				c-0.7,0-1.3,0.1-1.8,0.4c-0.5,0.3-0.9,0.6-1.3,1c-0.4,0.4-0.6,0.9-0.8,1.4c-0.2,0.5-0.3,1.1-0.4,1.6H267z M254.3,70
				c0-1.7,0.2-3.1,0.7-4.4c0.5-1.3,1.2-2.3,2-3.1c0.8-0.8,1.8-1.5,2.8-1.9c1.1-0.4,2.1-0.6,3.3-0.6c2.6,0,4.6,0.8,6.1,2.4
				c1.5,1.6,2.2,4,2.2,7.2c0,0.2,0,0.5,0,0.8c0,0.3,0,0.6-0.1,0.8h-12.5c0.1,1.5,0.7,2.7,1.6,3.5c1,0.8,2.3,1.3,4.1,1.3
				c1.1,0,2-0.1,2.9-0.3c0.9-0.2,1.6-0.4,2.1-0.6l0.6,3.6c-0.2,0.1-0.6,0.3-1,0.4c-0.4,0.1-0.9,0.3-1.4,0.4
				c-0.5,0.1-1.1,0.2-1.8,0.3c-0.6,0.1-1.3,0.1-1.9,0.1c-1.7,0-3.1-0.2-4.3-0.7c-1.2-0.5-2.2-1.2-3-2.1c-0.8-0.9-1.4-1.9-1.8-3.1
				C254.5,72.7,254.3,71.4,254.3,70"/>
			<path d="M275,69.9c0-1.4,0.2-2.7,0.7-3.9c0.4-1.2,1.1-2.3,1.9-3.2c0.8-0.9,1.8-1.6,3-2.1c1.2-0.5,2.5-0.8,3.9-0.8
				c1.8,0,3.5,0.3,5.1,1l-0.9,3.6c-0.5-0.2-1.1-0.4-1.7-0.5c-0.6-0.1-1.3-0.2-2-0.2c-1.7,0-3,0.5-3.9,1.6c-0.9,1.1-1.3,2.6-1.3,4.5
				c0,1.9,0.4,3.4,1.3,4.5c0.8,1.1,2.3,1.6,4.3,1.6c0.8,0,1.5-0.1,2.2-0.2c0.7-0.1,1.4-0.3,1.9-0.5l0.6,3.6
				c-0.5,0.2-1.2,0.5-2.2,0.6c-1,0.2-2,0.3-3,0.3c-1.6,0-3-0.2-4.2-0.7c-1.2-0.5-2.2-1.2-3-2.1c-0.8-0.9-1.4-1.9-1.8-3.2
				C275.2,72.7,275,71.3,275,69.9"/>
			<path d="M306.4,63.5c-0.5,0.5-1.1,1.2-1.9,2.1c-0.8,0.9-1.6,1.9-2.5,3.1c-0.9,1.1-1.8,2.3-2.7,3.5c-0.9,1.2-1.7,2.4-2.4,3.5h9.8
				v3.7h-15.1v-2.7c0.5-1,1.2-2,2-3.2c0.8-1.1,1.6-2.3,2.5-3.4c0.8-1.1,1.7-2.2,2.5-3.3c0.8-1,1.6-1.9,2.2-2.7H292v-3.7h14.4V63.5z"
				/>
			<path d="M323.2,70c0-2-0.4-3.5-1.3-4.6c-0.9-1.1-2.3-1.6-4.3-1.6c-0.4,0-0.8,0-1.3,0.1c-0.4,0-0.9,0.1-1.3,0.2v10.8
				c0.4,0.3,0.9,0.5,1.5,0.7c0.6,0.2,1.3,0.3,2,0.3c1.6,0,2.8-0.5,3.5-1.6C322.9,73.3,323.2,71.8,323.2,70 M327.7,69.9
				c0,1.4-0.2,2.8-0.6,4c-0.4,1.2-0.9,2.2-1.6,3.1c-0.7,0.9-1.6,1.5-2.6,2c-1.1,0.5-2.2,0.7-3.6,0.7c-0.9,0-1.7-0.1-2.5-0.3
				c-0.7-0.2-1.4-0.5-1.8-0.7v7.4h-4.4V61c0.9-0.2,2-0.5,3.3-0.7c1.3-0.2,2.7-0.3,4.1-0.3c1.5,0,2.8,0.2,4,0.7c1.2,0.5,2.2,1.1,3,2
				c0.8,0.9,1.5,1.9,1.9,3.1C327.5,67,327.7,68.4,327.7,69.9"/>
			<path d="M344.9,69.9c0-1.9-0.4-3.4-1.2-4.5c-0.8-1.1-1.9-1.6-3.4-1.6c-1.4,0-2.6,0.5-3.4,1.6c-0.8,1.1-1.2,2.6-1.2,4.5
				c0,1.9,0.4,3.4,1.2,4.5c0.8,1.1,1.9,1.7,3.4,1.7c1.5,0,2.6-0.6,3.4-1.7C344.5,73.3,344.9,71.8,344.9,69.9 M349.4,69.9
				c0,1.5-0.2,2.9-0.7,4.1c-0.4,1.2-1.1,2.3-1.8,3.2c-0.8,0.9-1.8,1.5-2.9,2c-1.1,0.5-2.4,0.7-3.7,0.7c-1.3,0-2.6-0.2-3.7-0.7
				c-1.1-0.5-2.1-1.2-2.9-2c-0.8-0.9-1.4-1.9-1.9-3.2c-0.5-1.2-0.7-2.6-0.7-4.1c0-1.5,0.2-2.9,0.7-4.1c0.4-1.2,1.1-2.3,1.9-3.1
				c0.8-0.9,1.8-1.5,2.9-2c1.1-0.5,2.3-0.7,3.6-0.7c1.3,0,2.6,0.2,3.7,0.7c1.1,0.5,2.1,1.1,2.9,2c0.8,0.9,1.4,1.9,1.9,3.1
				C349.1,67,349.4,68.4,349.4,69.9"/>
			<path d="M358.6,76.2c1.2,0,2-0.1,2.5-0.4c0.5-0.3,0.8-0.8,0.8-1.4c0-0.6-0.3-1.1-0.9-1.6c-0.6-0.4-1.5-0.9-2.8-1.3
				c-0.8-0.3-1.5-0.6-2.2-0.9c-0.7-0.3-1.2-0.7-1.7-1.1c-0.5-0.4-0.9-1-1.1-1.6c-0.3-0.6-0.4-1.4-0.4-2.3c0-1.7,0.6-3.1,1.9-4.1
				c1.3-1,3-1.5,5.2-1.5c1.1,0,2.2,0.1,3.2,0.3c1,0.2,1.8,0.4,2.3,0.6l-0.8,3.5c-0.5-0.2-1.1-0.4-1.8-0.6c-0.7-0.2-1.6-0.3-2.6-0.3
				c-0.9,0-1.6,0.2-2.2,0.5c-0.6,0.3-0.8,0.8-0.8,1.4c0,0.3,0.1,0.6,0.2,0.8c0.1,0.2,0.3,0.5,0.6,0.7c0.3,0.2,0.6,0.4,1.1,0.6
				c0.4,0.2,1,0.4,1.6,0.6c1,0.4,1.9,0.8,2.6,1.1c0.7,0.4,1.3,0.8,1.8,1.3c0.5,0.5,0.8,1,1,1.6c0.2,0.6,0.3,1.3,0.3,2.2
				c0,1.8-0.7,3.2-2,4.1c-1.3,0.9-3.3,1.4-5.7,1.4c-1.7,0-3-0.1-4-0.4c-1-0.3-1.7-0.5-2.1-0.7l0.8-3.7c0.7,0.3,1.4,0.5,2.3,0.8
				C356.4,76.1,357.5,76.2,358.6,76.2"/>
			<path d="M383,70c0-2-0.4-3.5-1.3-4.6c-0.9-1.1-2.3-1.6-4.3-1.6c-0.4,0-0.8,0-1.3,0.1c-0.4,0-0.9,0.1-1.3,0.2v10.8
				c0.4,0.3,0.9,0.5,1.5,0.7c0.6,0.2,1.3,0.3,2,0.3c1.6,0,2.8-0.5,3.5-1.6C382.6,73.3,383,71.8,383,70 M387.5,69.9
				c0,1.4-0.2,2.8-0.6,4c-0.4,1.2-0.9,2.2-1.6,3.1c-0.7,0.9-1.6,1.5-2.6,2c-1,0.5-2.2,0.7-3.6,0.7c-0.9,0-1.7-0.1-2.5-0.3
				c-0.7-0.2-1.4-0.5-1.8-0.7v7.4h-4.4V61c0.9-0.2,2-0.5,3.3-0.7c1.3-0.2,2.7-0.3,4.1-0.3c1.5,0,2.8,0.2,4,0.7c1.2,0.5,2.2,1.1,3,2
				c0.8,0.9,1.5,1.9,1.9,3.1C387.3,67,387.5,68.4,387.5,69.9"/>
			<path d="M404.6,69.9c0-1.9-0.4-3.4-1.2-4.5c-0.8-1.1-1.9-1.6-3.4-1.6c-1.4,0-2.6,0.5-3.4,1.6c-0.8,1.1-1.2,2.6-1.2,4.5
				c0,1.9,0.4,3.4,1.2,4.5c0.8,1.1,1.9,1.7,3.4,1.7c1.5,0,2.6-0.6,3.4-1.7C404.2,73.3,404.6,71.8,404.6,69.9 M409.1,69.9
				c0,1.5-0.2,2.9-0.7,4.1c-0.4,1.2-1.1,2.3-1.8,3.2c-0.8,0.9-1.8,1.5-2.9,2c-1.1,0.5-2.4,0.7-3.7,0.7c-1.4,0-2.6-0.2-3.7-0.7
				c-1.1-0.5-2.1-1.2-2.9-2c-0.8-0.9-1.4-1.9-1.9-3.2c-0.5-1.2-0.7-2.6-0.7-4.1c0-1.5,0.2-2.9,0.7-4.1c0.4-1.2,1.1-2.3,1.9-3.1
				c0.8-0.9,1.8-1.5,2.9-2c1.1-0.5,2.3-0.7,3.7-0.7c1.3,0,2.6,0.2,3.7,0.7c1.1,0.5,2.1,1.1,2.9,2c0.8,0.9,1.4,1.9,1.9,3.1
				C408.9,67,409.1,68.4,409.1,69.9"/>
			<path d="M420.2,79.7c-1.3,0-2.4-0.2-3.2-0.4c-0.9-0.3-1.5-0.6-2-1.1c-0.5-0.5-0.9-1.1-1.1-1.8c-0.2-0.7-0.3-1.6-0.3-2.5V55.2
				l4.4-0.7V73c0,0.5,0,1,0.1,1.3c0.1,0.4,0.2,0.7,0.5,0.9c0.2,0.3,0.5,0.4,0.9,0.6c0.4,0.1,0.9,0.2,1.4,0.3L420.2,79.7z"/>
			<path d="M428.8,79.4h-4.4V60.4h4.4V79.4z M429.3,54.9c0,0.8-0.3,1.5-0.8,2c-0.5,0.5-1.2,0.7-1.9,0.7c-0.7,0-1.4-0.2-1.9-0.7
				c-0.5-0.5-0.8-1.1-0.8-2c0-0.8,0.3-1.5,0.8-2c0.5-0.5,1.2-0.7,1.9-0.7c0.7,0,1.4,0.2,1.9,0.7C429,53.4,429.3,54,429.3,54.9"/>
			<path d="M434.2,55.2l4.4-0.7v5.9h6.7v3.7h-6.7v7.7c0,1.5,0.2,2.6,0.7,3.3c0.5,0.7,1.3,1,2.5,1c0.8,0,1.5-0.1,2.1-0.3
				c0.6-0.2,1.1-0.3,1.5-0.5l0.7,3.5c-0.5,0.2-1.2,0.4-2,0.7c-0.8,0.2-1.8,0.3-2.9,0.3c-1.4,0-2.5-0.2-3.4-0.5
				c-0.9-0.4-1.6-0.9-2.2-1.6c-0.5-0.7-0.9-1.5-1.1-2.5c-0.2-1-0.3-2.1-0.3-3.3V55.2z"/>
			<path d="M456.2,76.3c1.4,0,2.4-0.1,3.1-0.2v-4.8c-0.2-0.1-0.6-0.1-1.1-0.2c-0.5-0.1-1-0.1-1.5-0.1c-0.5,0-1,0-1.5,0.1
				c-0.5,0.1-0.9,0.2-1.3,0.4c-0.4,0.2-0.7,0.5-1,0.8c-0.2,0.3-0.4,0.8-0.4,1.3c0,1,0.3,1.8,1,2.2C454.2,76.1,455.1,76.3,456.2,76.3
				 M455.8,60c1.5,0,2.7,0.2,3.7,0.5c1,0.4,1.8,0.9,2.4,1.5c0.6,0.7,1,1.4,1.3,2.4c0.2,0.9,0.4,1.9,0.4,3.1v11.5
				c-0.7,0.1-1.7,0.3-3.1,0.5c-1.4,0.2-2.9,0.3-4.6,0.3c-1.1,0-2.2-0.1-3.1-0.3c-0.9-0.2-1.7-0.6-2.4-1.1c-0.7-0.5-1.2-1.1-1.6-1.9
				c-0.4-0.8-0.6-1.7-0.6-2.9c0-1.1,0.2-2,0.6-2.8c0.4-0.7,1-1.4,1.7-1.8c0.7-0.5,1.6-0.8,2.5-1c1-0.2,1.9-0.3,3-0.3
				c0.5,0,1,0,1.5,0.1c0.5,0.1,1.1,0.2,1.7,0.3v-0.7c0-0.5-0.1-1-0.2-1.4c-0.1-0.5-0.3-0.9-0.6-1.2c-0.3-0.4-0.7-0.6-1.2-0.8
				c-0.5-0.2-1.1-0.3-1.9-0.3c-1,0-1.9,0.1-2.8,0.2c-0.8,0.1-1.5,0.3-2.1,0.5l-0.5-3.5c0.6-0.2,1.4-0.4,2.4-0.6
				C453.5,60.1,454.6,60,455.8,60"/>
			<path d="M222.7,91.5c-1.2,0-2.1,0-2.9,0.1v8.5h2.2c2.2,0,3.9-0.3,5.1-0.9c1.2-0.6,1.8-1.8,1.8-3.5c0-0.8-0.2-1.5-0.5-2.1
				c-0.3-0.6-0.7-1-1.3-1.3c-0.6-0.3-1.2-0.5-2-0.7C224.3,91.6,223.5,91.5,222.7,91.5 M222.3,87.6c3.6,0,6.4,0.7,8.4,2
				c1.9,1.3,2.9,3.4,2.9,6.2c0,1.5-0.3,2.7-0.8,3.8c-0.5,1-1.3,1.9-2.3,2.6c-1,0.7-2.2,1.2-3.6,1.5c-1.4,0.3-3.1,0.5-4.9,0.5h-2.3
				v8.8h-4.6V88.2c1.1-0.2,2.2-0.4,3.5-0.5C220.1,87.6,221.3,87.6,222.3,87.6"/>
			<path d="M249.6,103.4c0-1.9-0.4-3.4-1.2-4.5c-0.8-1.1-1.9-1.6-3.4-1.6c-1.4,0-2.6,0.5-3.4,1.6c-0.8,1.1-1.2,2.6-1.2,4.5
				c0,1.9,0.4,3.4,1.2,4.5c0.8,1.1,1.9,1.7,3.4,1.7c1.4,0,2.6-0.6,3.4-1.7C249.2,106.9,249.6,105.3,249.6,103.4 M254.1,103.4
				c0,1.5-0.2,2.9-0.7,4.1c-0.4,1.2-1,2.3-1.8,3.2c-0.8,0.9-1.8,1.5-2.9,2c-1.1,0.5-2.4,0.7-3.7,0.7c-1.4,0-2.6-0.2-3.7-0.7
				c-1.1-0.5-2.1-1.2-2.9-2c-0.8-0.9-1.4-1.9-1.9-3.2c-0.4-1.2-0.7-2.6-0.7-4.1c0-1.5,0.2-2.9,0.7-4.1c0.4-1.2,1.1-2.3,1.9-3.1
				c0.8-0.9,1.8-1.5,2.9-2c1.1-0.5,2.3-0.7,3.6-0.7c1.3,0,2.6,0.2,3.7,0.7c1.1,0.5,2.1,1.1,2.9,2c0.8,0.9,1.4,1.9,1.9,3.1
				C253.8,100.6,254.1,101.9,254.1,103.4"/>
			<path d="M265.2,113.3c-1.3,0-2.4-0.2-3.2-0.4c-0.9-0.3-1.5-0.6-2-1.1c-0.5-0.5-0.9-1.1-1.1-1.8c-0.2-0.7-0.3-1.6-0.3-2.5V88.8
				l4.4-0.7v18.4c0,0.5,0,1,0.1,1.3c0.1,0.4,0.2,0.7,0.5,0.9c0.2,0.3,0.5,0.4,0.9,0.6c0.4,0.1,0.8,0.2,1.4,0.3L265.2,113.3z"/>
			<path d="M274.1,109.8c1.2,0,2-0.1,2.5-0.4c0.5-0.3,0.8-0.8,0.8-1.4c0-0.6-0.3-1.2-0.8-1.6c-0.6-0.4-1.5-0.9-2.8-1.3
				c-0.8-0.3-1.5-0.6-2.2-0.9c-0.7-0.3-1.2-0.7-1.7-1.1c-0.5-0.4-0.9-1-1.1-1.6c-0.3-0.6-0.4-1.4-0.4-2.3c0-1.7,0.6-3.1,1.9-4.1
				c1.3-1,3-1.5,5.2-1.5c1.1,0,2.2,0.1,3.2,0.3c1,0.2,1.8,0.4,2.3,0.6l-0.8,3.5c-0.5-0.2-1.1-0.4-1.8-0.6c-0.8-0.2-1.6-0.3-2.6-0.3
				c-0.9,0-1.6,0.1-2.2,0.4c-0.6,0.3-0.8,0.8-0.8,1.4c0,0.3,0.1,0.6,0.2,0.8c0.1,0.2,0.3,0.5,0.6,0.7c0.3,0.2,0.6,0.4,1,0.6
				c0.4,0.2,1,0.4,1.6,0.6c1,0.4,1.9,0.8,2.6,1.1c0.7,0.4,1.3,0.8,1.8,1.3c0.5,0.5,0.8,1,1,1.6c0.2,0.6,0.3,1.3,0.3,2.2
				c0,1.8-0.7,3.2-2,4.1c-1.3,0.9-3.3,1.4-5.7,1.4c-1.7,0-3-0.1-4-0.4c-1-0.3-1.7-0.5-2.1-0.7l0.8-3.7c0.7,0.3,1.4,0.5,2.3,0.8
				C271.9,109.7,272.9,109.8,274.1,109.8"/>
			<path d="M290.2,101.4c0.6-0.6,1.1-1.2,1.8-1.9c0.6-0.7,1.2-1.3,1.8-2c0.6-0.7,1.2-1.3,1.7-1.9c0.5-0.6,1-1.2,1.4-1.6h5.2
				c-1.2,1.3-2.5,2.7-3.8,4.2c-1.3,1.4-2.7,2.9-4,4.2c0.7,0.6,1.5,1.3,2.3,2.2c0.8,0.9,1.6,1.8,2.3,2.7c0.7,1,1.4,1.9,2.1,2.9
				c0.7,1,1.2,1.9,1.6,2.7h-5.1c-0.4-0.7-0.9-1.5-1.5-2.3c-0.6-0.8-1.2-1.6-1.8-2.4c-0.7-0.8-1.3-1.5-2-2.2c-0.7-0.7-1.3-1.3-2-1.8
				v8.7h-4.4V88.8l4.4-0.7V101.4z"/>
			<path d="M312.5,109.8c1.4,0,2.4-0.1,3.1-0.2v-4.8c-0.2-0.1-0.6-0.1-1.1-0.2c-0.5-0.1-1-0.1-1.5-0.1c-0.5,0-1,0-1.5,0.1
				c-0.5,0.1-0.9,0.2-1.3,0.4c-0.4,0.2-0.7,0.5-1,0.8c-0.2,0.4-0.4,0.8-0.4,1.3c0,1,0.3,1.8,1,2.2
				C310.5,109.6,311.4,109.8,312.5,109.8 M312.1,93.5c1.4,0,2.7,0.2,3.7,0.5c1,0.4,1.8,0.9,2.4,1.5c0.6,0.7,1,1.4,1.3,2.4
				c0.3,0.9,0.4,1.9,0.4,3.1v11.5c-0.7,0.1-1.7,0.3-3.1,0.5c-1.4,0.2-2.9,0.3-4.6,0.3c-1.1,0-2.2-0.1-3.1-0.3
				c-0.9-0.2-1.7-0.6-2.4-1.1c-0.7-0.5-1.2-1.1-1.6-1.9c-0.4-0.8-0.6-1.7-0.6-2.9c0-1.1,0.2-2,0.6-2.8c0.4-0.7,1-1.4,1.7-1.8
				c0.7-0.5,1.6-0.8,2.5-1c1-0.2,1.9-0.3,3-0.3c0.5,0,1,0,1.5,0.1c0.5,0.1,1.1,0.2,1.7,0.3V101c0-0.5-0.1-1-0.2-1.4
				c-0.1-0.5-0.3-0.9-0.6-1.2c-0.3-0.3-0.7-0.6-1.2-0.8c-0.5-0.2-1.1-0.3-1.9-0.3c-1,0-1.9,0.1-2.8,0.2c-0.8,0.1-1.5,0.3-2.1,0.5
				l-0.5-3.5c0.6-0.2,1.4-0.4,2.4-0.6C309.8,93.6,310.9,93.5,312.1,93.5"/>
		</g>
		<g>
			<rect x="33" y="33.1" class="st2" width="149.1" height="49.8"/>
			<rect x="33" y="82.8" class="st3" width="149.1" height="49.8"/>
		</g>
		<path class="st4" d="M33.5,33.5h148.2v98.6H33.5V33.5z M33,132.6h149.1V33.1H33V132.6z"/>
	</g>
</g>
<g id="ramka">
	<g class="st0">
		<rect x="0" y="0" class="st5" width="496.5" height="165.6"/>
		<line class="st6" x1="0" y1="-37.4" x2="0" y2="-1.4"/>
		<line class="st6" x1="-37.4" y1="0" x2="-1.4" y2="0"/>
		<line class="st6" x1="-37.3" y1="165.6" x2="-1.3" y2="165.6"/>
		<line class="st6" x1="0" y1="203" x2="0" y2="167"/>
		<line class="st6" x1="495.1" y1="-37.4" x2="495.1" y2="-1.4"/>
		<line class="st6" x1="534.9" y1="1" x2="498.9" y2="1"/>
		<line class="st6" x1="534.9" y1="165.6" x2="498.9" y2="165.6"/>
		<line class="st6" x1="496.6" y1="203" x2="496.6" y2="167"/>
	</g>
	<g>
		<path class="st7" d="M110.6,57.2c3.8,0,6.9,3.1,6.9,6.9c0,3.8-3.1,6.9-6.9,6.9c-3.8,0-6.9-3.1-6.9-6.9
			C103.7,60.3,106.8,57.2,110.6,57.2L110.6,57.2L110.6,57.2z"/>
		<path class="st8" d="M129.4,62.9c2,2.2,4.1,4.4,6.1,6.6c-9,10-18.1,18.4-27.3,22.8c-6.6,3-13.5,3.7-21,0.9
			c-5.6-2.7-9.6-5.8-13.1-9c-4.6-4.1-9.1-7.5-13.3-5.9c2.7-1.6,6.7-0.6,11.8,3.1c8.4,6.3,16.3,9.5,23.5,8.3
			c8.2-1.2,15.4-6.5,22.2-13.4C122.5,71.9,126.3,67.5,129.4,62.9L129.4,62.9L129.4,62.9z"/>
		<path class="st9" d="M100.4,84.1c-5.9-14.9-4.8-28.1-0.5-40.6c-11.3,5.2-21.8,12.7-30.7,24.7c2.5,0.1,5.4,1.2,9.3,4.7
			c2.4,2.6,5.3,4.2,8.9,4.8c-2.7,0.7-7.3-1.1-13.2-4.7c-4.1-2.1-7.3-2.2-10-1.4c4.6-0.8,8.2,1.1,11.6,3.7c6,5,11.6,7.4,16.7,6.5
			c-3.8,1.8-9,1.3-17.3-3.9c-6.7-4-11.6-4.3-15.2-2.1c4.1-2.2,8.8-1.5,14.6,3.5c0.7,0.5,1.5,1.1,2.2,1.6
			C84.8,87.4,92.7,87.2,100.4,84.1L100.4,84.1L100.4,84.1z"/>
		<path class="st10" d="M69.2,108.8c-1.2-1.6-0.7-7.2,1.4-8.4c1,0.5,1.4,1.5,1.8,2.6c0.8-1.2,1.9-2.1,3.3-2.7
			c0.2,1.4,0.5,2.9,0.7,4.3c1.2-1.7,2.4-3.4,3.7-5c0.2-0.2,0.5-0.5,0.7-0.7c0.8-0.3,1.4-0.2,1.9,0.3c-0.4,1-1,1.6-2,2
			c-1.9,4.1-4.9,11-8.3,5.4C71.6,108,70.5,108.7,69.2,108.8L69.2,108.8L69.2,108.8z"/>
		<path class="st10" d="M85.8,102.9c0.3-0.6,0.7-1.1,1.4-1.6c0.2,0.4,0.5,0.7,0.1,1.3C87,103,86.5,103.1,85.8,102.9L85.8,102.9
			L85.8,102.9z M79.2,108.3c0.2-0.3,0.3-0.5,0.5-0.8c3-3.3,5.9-6.1,8.8-7.9c0.7-0.4,1.2-0.5,1.7-0.4c-0.1,2.9-0.8,6.1-1.4,9.2
			c-1.3,0.5-2.1,0.5-2.9,0.5c0.2-1.1,0.5-2.1,0.7-3.2c-0.6-0.2-1.2-0.5-1.8-0.7c-1.4,1.3-2.7,2.6-4.1,3.9
			C80.2,108.6,79.7,108.4,79.2,108.3L79.2,108.3L79.2,108.3z"/>
		<path class="st10" d="M95.4,103.3c0.8-0.5,1.4-1,1.8-1.5c0.2,1-0.1,1.9-1.4,2.7C95.3,104.3,95.2,103.9,95.4,103.3L95.4,103.3
			L95.4,103.3z M95.1,100.2c-0.7,1.9-1.5,3.8-2.2,5.8c-0.4,1.1-0.8,2.3-1.2,3.4c0.4,0,0.9,0,1.3,0c1.3-0.8,1.6-1.5,1.8-2.3
			c2.3,1.2,4.2,0.8,6.1-0.1c0-0.2-0.1-0.4-0.1-0.5c-1.5,0-2.8-0.3-3.6-1.2c0.6-0.6,1.3-1.2,1.9-1.8c1.7-2,2-2.8-0.8-3.1
			C97.1,100.4,96.1,100.3,95.1,100.2L95.1,100.2L95.1,100.2z"/>
		<path class="st10" d="M101.9,108.4c0.7-2.5,1.5-4.9,2.2-7.4c0.9-0.5,1.9-0.8,3.1-0.7c0.5,1.1,1.1,2.3,1.6,3.4
			c1.6-1.7,3.3-3.4,4.9-5.1c0.4-0.1,0.6-0.1,0.8,0.1c0.2,2.7,0.4,5.4,0.5,8.2c-0.7,1-1.9,1.4-3.6,1.5c0-1.6,0-3.3,0-4.9
			c-2,2-4.1,3.3-5.9,0.7c-0.6,1.7-1.2,3.4-2.3,5C102.8,108.9,102.3,108.6,101.9,108.4L101.9,108.4L101.9,108.4z"/>
		<path class="st10" d="M116.7,100.5c1.2-0.8,2.3-1.2,3.5-1.3c-0.2,4.2-0.3,8.3,0.3,8.6c-1.4,1.1-3,1.3-4.6,1
			C116.2,106,116.5,103.2,116.7,100.5L116.7,100.5L116.7,100.5z"/>
		<path class="st10" d="M128.9,102.9c0.3-0.6,0.7-1.1,1.4-1.6c0.3,0.5,0.3,1,0.1,1.6C129.8,103,129.4,103,128.9,102.9L128.9,102.9z
			 M122.3,108.2c3.2-5.3,6.5-9,10.2-9.2c0.8-0.1,1.2,0.2,1.1,0.9c0.1,1.3,0,2.8-0.4,4.3c-0.5,1.4-0.9,2.8-1.4,4.1
			c-0.9,0.3-1.9,0.5-2.8,0.5c0.2-1.1,0.5-2.3,0.7-3.4c-0.6-0.2-1.2-0.4-1.8-0.5c-1.4,1.4-2.8,2.7-4.1,3.8
			C123.3,108.5,122.8,108.4,122.3,108.2L122.3,108.2L122.3,108.2z"/>
		<path class="st10" d="M68.3,121.9c1.2-3.2,2.5-6.1,3.9-8.7c0.5,0.2,1,0.3,1.5,0.5c0.6,1.2,1.2,2.4,1.8,3.5
			c1.7-1.5,2.6-2.8,3.2-4.1c0.4-0.6,1-1,1.7-1.2c0.2,0.1,0.4,0.2,0.5,0.3c-0.2,2.3-0.4,4.7-0.8,7.3c0.3,0.3,0.7,0.5,1.2,0.5
			c-0.3,0.7-0.8,1.4-1.4,2.2c-0.7-0.2-1.4-0.3-2.1-0.5c0-1.6,0-3.2,0-4.8c-2.1,2.2-4.1,3-5.8,0.7c-1,2.1-2,3.6-3,4.8
			C68.7,122.3,68.5,122.1,68.3,121.9L68.3,121.9L68.3,121.9z"/>
		<path class="st10" d="M88.1,116.6c0.3-0.6,0.8-1.1,1.5-1.7c0.2,0.5,0.3,1-0.1,1.6C89.2,116.7,88.7,116.7,88.1,116.6L88.1,116.6
			L88.1,116.6z M81.5,122c2.3-4.2,5-7.3,8.4-9c0.8-0.3,1.6-0.5,2.8-0.3c0.8,1.9,0.1,3.9-0.4,5.8c-0.4,1.2-0.7,2.3-1.1,3.5
			c-1.2,0.2-2.2,0.3-2.9,0.3c0.2-1.1,0.5-2.1,0.7-3.2c-0.6-0.2-1.2-0.5-1.8-0.7c-1.6,1.8-2.9,3-4.1,3.7
			C82.6,122.2,82.1,122.1,81.5,122L81.5,122L81.5,122z"/>
		<path class="st10" d="M94.2,115.1c1-1,2.7-1.8,7.3-1.9c1.6,0.3,1.9,0.8,0.9,1.6c-1.4,1.9-2.7,3.7-3.5,5.2c1.7,0.6,3.8,0.4,6-0.3
			c0.4-2.5,0.9-4.6,1.6-6.4c0.5-0.3,1-0.6,1.5-1c0.4,0,0.8,0,1.2,0.1c-0.3,2.5-0.6,5-0.9,7.5c0.8-1.4,1.8-3.5,3-6.3
			c0.2-0.2,0.4-0.3,0.6-0.5c0.9-0.5,1.9-0.6,2.8-0.7c-1.2,2.8-2.8,5.6-5.4,8.4c-2.2,1.9-3.9,2.4-4.5,0c-1.8,0.8-3.4,1.7-8.2,1.2
			c-1.3-0.4-1.5-1-0.8-1.8c1.2-1.7,2.4-3.4,3.7-5c-1-0.2-2-0.3-3.5,0.1C95.2,115.4,94.6,115.4,94.2,115.1L94.2,115.1L94.2,115.1z"/>
		<path class="st10" d="M117.3,116.1c0.6-0.4,1.3-0.9,1.9-1.3c0,1-0.2,1.9-1.5,2.7C117.2,117.5,117,117,117.3,116.1L117.3,116.1
			L117.3,116.1z M115.2,116.3c1.8-1.1,3.5-2.2,5.3-3.3c1.5,0.3,2.2,1,1.1,2.8c-0.9,0.8-1.7,1.7-2.6,2.5c0.6,1.7,2,1.6,3.5,1.3
			c0.1,0.1,0.2,0.3,0.3,0.4c-2.1,1-4.2,1.1-6.2,0.1c-0.2,0.9-0.7,1.7-1.9,2.4c-0.3,0-0.7,0-1-0.1
			C114.1,120.3,114.6,118.3,115.2,116.3L115.2,116.3L115.2,116.3z"/>
		<path class="st10" d="M127.5,113.1c-0.1,1.2,0.2,2.3,1,3.3c1-0.7,2-1.5,3-2.2c0.6-0.5,1.3-1.1,1.9-1.6c0.5,0.2,0.9,0.4,1.4,0.6
			c-2.3,1.9-4.6,3.9-4.8,8.1c-0.6,0.3-1.3,0.7-1.9,1c-0.9,0.4-1.3,0.1-1.3-0.7c0.1-0.7,0.3-1.4,0.4-2.2c-2.3-0.9-3.5-2.6-2.7-5.6
			C125.5,113.3,126.5,113.1,127.5,113.1L127.5,113.1L127.5,113.1z"/>
		<path class="st10" d="M135.9,119.8h0.3c0.4,0,0.7-0.1,0.7-0.4c0-0.3-0.2-0.5-0.6-0.5c-0.2,0-0.3,0-0.4,0V119.8L135.9,119.8z
			 M135.9,121.3h-0.5v-2.7c0.3,0,0.6-0.1,0.9-0.1c0.5,0,0.7,0.1,0.8,0.2c0.2,0.1,0.3,0.3,0.3,0.6c0,0.3-0.2,0.5-0.5,0.6v0
			c0.2,0.1,0.4,0.3,0.4,0.7c0.1,0.4,0.1,0.6,0.2,0.7H137c-0.1-0.1-0.1-0.3-0.2-0.7c-0.1-0.3-0.2-0.4-0.6-0.4h-0.3V121.3L135.9,121.3
			z M136.3,117.8c-1.2,0-2,1-2,2.1c0,1.2,0.9,2.1,2.1,2.1c1.1,0,2-0.9,2-2.1C138.4,118.7,137.5,117.8,136.3,117.8L136.3,117.8
			L136.3,117.8z M136.3,117.3c1.5,0,2.6,1.1,2.6,2.6c0,1.5-1.1,2.6-2.6,2.6c-1.5,0-2.6-1.1-2.6-2.6
			C133.7,118.4,134.9,117.3,136.3,117.3L136.3,117.3L136.3,117.3z"/>
		<text transform="matrix(1 0 0 1 159.788 121.7145)" class="st11 st12 st13">Zdrowe</text>
		<text transform="matrix(1 0 0 1 248.5458 121.7145)" class="st11 st12 st13">życie, czysty zysk</text>
		<polygon class="st14" points="460.6,22.1 38.6,22.1 38.6,143.5 460.6,143.5 460.6,22.1 		"/>
	</g>
</g>
</svg>
