<?xml version="1.0" encoding="utf-8"?>
<!-- Generator: Adobe Illustrator 24.0.2, SVG Export Plug-In . SVG Version: 6.00 Build 0)  -->
<svg version="1.1" id="warstwa_1" xmlns="http://www.w3.org/2000/svg" xmlns:xlink="http://www.w3.org/1999/xlink" x="0px" y="0px"
	 viewBox="0 0 268.3 194.5" style="enable-background:new 0 0 268.3 194.5;" xml:space="preserve">
<style type="text/css">
	.st0{fill:#FFFFFF;}
</style>
<g>
	<g>
		<path id="XMLID_1_" class="st0" d="M182.4,48.1v62.6H85.9V48.1H182.4 M185.2,45.4h-102v68h102V45.4L185.2,45.4z"/>
		<polygon id="XMLID_2325_" class="st0" points="132,60.2 134.1,58.6 136.3,60.2 135.5,57.6 137.7,56.1 135,56.1 134.1,53.5 
			133.3,56.1 130.6,56.1 132.8,57.6 		"/>
		<polygon id="XMLID_2322_" class="st0" points="120.8,63.2 123,61.6 125.1,63.2 124.3,60.6 126.5,59.1 123.8,59.1 123,56.5 
			122.2,59.1 119.5,59.1 121.7,60.6 		"/>
		<polygon id="XMLID_106_" class="st0" points="114.8,64.7 114,67.2 111.3,67.2 113.5,68.8 112.7,71.3 114.8,69.8 117,71.3 
			116.2,68.8 118.4,67.2 115.7,67.2 		"/>
		<polygon id="XMLID_105_" class="st0" points="111.9,80.9 114,82.5 113.2,79.9 115.4,78.4 112.7,78.4 111.9,75.8 111,78.4 
			108.3,78.4 110.5,79.9 109.7,82.5 		"/>
		<polygon id="XMLID_102_" class="st0" points="115.7,89.5 114.8,87 114,89.5 111.3,89.5 113.5,91.1 112.7,93.6 114.8,92.1 
			117,93.6 116.2,91.1 118.4,89.5 		"/>
		<polygon id="XMLID_101_" class="st0" points="123.8,97.7 123,95.1 122.2,97.7 119.5,97.7 121.7,99.3 120.9,101.8 123,100.2 
			125.2,101.8 124.3,99.3 126.5,97.7 		"/>
		<polygon id="XMLID_100_" class="st0" points="135,100.7 134.1,98.1 133.3,100.7 130.6,100.7 132.8,102.2 132,104.8 134.1,103.2 
			136.3,104.8 135.5,102.2 137.7,100.7 		"/>
		<polygon id="XMLID_99_" class="st0" points="146.1,97.7 145.3,95.1 144.4,97.7 141.7,97.7 143.9,99.3 143.1,101.8 145.3,100.2 
			147.4,101.8 146.6,99.3 148.8,97.7 		"/>
		<polygon id="XMLID_98_" class="st0" points="154.3,89.5 153.4,87 152.6,89.5 149.9,89.5 152.1,91.1 151.3,93.6 153.4,92.1 
			155.6,93.6 154.8,91.1 157,89.5 		"/>
		<polygon id="XMLID_97_" class="st0" points="159.9,78.3 157.2,78.3 156.4,75.8 155.6,78.3 152.9,78.3 155.1,79.9 154.2,82.4 
			156.4,80.9 158.5,82.4 157.7,79.9 		"/>
		<polygon id="XMLID_90_" class="st0" points="151.3,71.3 153.4,69.7 155.6,71.3 154.8,68.8 157,67.2 154.3,67.2 153.4,64.6 
			152.6,67.2 149.9,67.2 152.1,68.8 		"/>
		<polygon id="XMLID_88_" class="st0" points="145.3,56.5 144.5,59.1 141.8,59.1 144,60.6 143.1,63.2 145.3,61.6 147.5,63.2 
			146.6,60.6 148.8,59.1 146.1,59.1 		"/>
	</g>
	<g>
		<g>
			<path class="st0" d="M52,149.2c-1.2,0-2.2-0.2-3-0.5c-0.8-0.3-1.5-0.8-2.1-1.4c-0.5-0.6-1-1.3-1.2-2.1c-0.3-0.8-0.4-1.7-0.4-2.7
				v-10.6h3.1v10.3c0,0.8,0.1,1.4,0.3,2c0.2,0.5,0.4,1,0.7,1.3c0.3,0.3,0.7,0.6,1.1,0.8c0.4,0.2,0.9,0.2,1.5,0.2
				c0.5,0,1-0.1,1.5-0.2c0.4-0.2,0.8-0.4,1.1-0.8c0.3-0.3,0.6-0.8,0.7-1.3c0.2-0.5,0.3-1.2,0.3-2v-10.3h3.1v10.6
				c0,1-0.1,1.9-0.4,2.7c-0.3,0.8-0.7,1.5-1.2,2.1c-0.5,0.6-1.2,1.1-2.1,1.4C54.2,149,53.2,149.2,52,149.2z"/>
			<path class="st0" d="M62.4,136.7c0.6-0.2,1.3-0.3,2.2-0.5c0.9-0.1,1.9-0.2,3-0.2c1,0,1.9,0.1,2.6,0.4c0.7,0.3,1.3,0.7,1.7,1.2
				c0.4,0.5,0.7,1.1,0.9,1.9c0.2,0.7,0.3,1.5,0.3,2.4v7.2h-3v-6.8c0-0.7,0-1.3-0.1-1.8c-0.1-0.5-0.2-0.9-0.4-1.2
				c-0.2-0.3-0.5-0.5-0.8-0.7c-0.4-0.1-0.8-0.2-1.3-0.2c-0.4,0-0.8,0-1.2,0.1c-0.4,0-0.7,0.1-0.9,0.1v10.4h-3V136.7z"/>
			<path class="st0" d="M80,132.6c0,0.6-0.2,1-0.5,1.3c-0.4,0.3-0.8,0.5-1.3,0.5c-0.5,0-0.9-0.2-1.3-0.5c-0.4-0.3-0.5-0.8-0.5-1.3
				c0-0.6,0.2-1,0.5-1.4c0.4-0.3,0.8-0.5,1.3-0.5c0.5,0,0.9,0.2,1.3,0.5C79.8,131.6,80,132,80,132.6z M79.6,149.2h-3v-12.8h3V149.2z
				"/>
			<path class="st0" d="M87.6,135.8c1,0,1.8,0.1,2.5,0.4c0.7,0.2,1.2,0.6,1.6,1c0.4,0.4,0.7,1,0.9,1.6c0.2,0.6,0.3,1.3,0.3,2.1v7.8
				c-0.5,0.1-1.1,0.2-2.1,0.4c-0.9,0.1-2,0.2-3.1,0.2c-0.8,0-1.5-0.1-2.1-0.2c-0.6-0.1-1.2-0.4-1.6-0.7c-0.5-0.3-0.8-0.8-1.1-1.3
				c-0.3-0.5-0.4-1.2-0.4-1.9c0-0.7,0.1-1.4,0.4-1.9c0.3-0.5,0.7-0.9,1.2-1.2c0.5-0.3,1.1-0.5,1.7-0.7c0.6-0.1,1.3-0.2,2-0.2
				c0.3,0,0.7,0,1,0.1c0.4,0,0.7,0.1,1.2,0.2v-0.5c0-0.3,0-0.7-0.1-1c-0.1-0.3-0.2-0.6-0.4-0.8c-0.2-0.2-0.5-0.4-0.8-0.6
				c-0.3-0.1-0.8-0.2-1.3-0.2c-0.7,0-1.3,0-1.9,0.1c-0.6,0.1-1,0.2-1.4,0.3l-0.4-2.4c0.4-0.1,0.9-0.3,1.6-0.4
				C86,135.8,86.7,135.8,87.6,135.8z M87.8,146.8c0.9,0,1.6,0,2.1-0.1v-3.3c-0.2,0-0.4-0.1-0.7-0.1c-0.3,0-0.7-0.1-1-0.1
				c-0.3,0-0.7,0-1,0.1c-0.3,0-0.6,0.1-0.9,0.3c-0.3,0.1-0.5,0.3-0.7,0.6c-0.2,0.2-0.2,0.5-0.2,0.9c0,0.7,0.2,1.2,0.7,1.5
				C86.4,146.7,87,146.8,87.8,146.8z"/>
			<path class="st0" d="M102,149.2v-17h10.9v2.6h-7.8v4.2h7v2.6h-7v5h8.4v2.6H102z"/>
			<path class="st0" d="M126.2,148.5c-0.6,0.1-1.3,0.3-2.2,0.5c-0.9,0.2-1.9,0.2-3,0.2c-1,0-1.9-0.1-2.6-0.4
				c-0.7-0.3-1.3-0.7-1.7-1.2c-0.4-0.5-0.7-1.1-0.9-1.9s-0.3-1.5-0.3-2.4v-7.2h3v6.7c0,1.4,0.2,2.4,0.6,2.9c0.4,0.6,1.1,0.9,2.1,0.9
				c0.4,0,0.7,0,1.1,0c0.4,0,0.7-0.1,0.9-0.1v-10.4h3V148.5z"/>
			<path class="st0" d="M137.1,139c-0.2-0.1-0.6-0.2-1-0.3c-0.4-0.1-0.9-0.1-1.5-0.1c-0.3,0-0.7,0-1,0.1c-0.4,0.1-0.6,0.1-0.8,0.2
				v10.3h-3v-12.2c0.6-0.2,1.3-0.4,2.1-0.6c0.9-0.2,1.8-0.3,2.9-0.3c0.2,0,0.4,0,0.7,0c0.3,0,0.5,0.1,0.8,0.1c0.3,0,0.5,0.1,0.8,0.1
				s0.4,0.1,0.6,0.2L137.1,139z"/>
			<path class="st0" d="M151.2,142.4c0,1-0.1,1.9-0.4,2.8c-0.3,0.8-0.7,1.5-1.3,2.1c-0.5,0.6-1.2,1-2,1.4c-0.8,0.3-1.6,0.5-2.5,0.5
				s-1.8-0.2-2.5-0.5c-0.8-0.3-1.4-0.8-1.9-1.4c-0.5-0.6-1-1.3-1.3-2.1c-0.3-0.8-0.5-1.8-0.5-2.8c0-1,0.2-1.9,0.5-2.8
				c0.3-0.8,0.7-1.5,1.3-2.1c0.5-0.6,1.2-1,2-1.4c0.8-0.3,1.6-0.5,2.5-0.5c0.9,0,1.7,0.2,2.5,0.5c0.8,0.3,1.4,0.8,2,1.4
				c0.5,0.6,1,1.3,1.3,2.1C151,140.5,151.2,141.4,151.2,142.4z M148.1,142.4c0-1.3-0.3-2.3-0.8-3c-0.5-0.7-1.3-1.1-2.3-1.1
				c-1,0-1.7,0.4-2.3,1.1c-0.5,0.7-0.8,1.8-0.8,3c0,1.3,0.3,2.3,0.8,3.1c0.5,0.8,1.3,1.1,2.3,1.1c1,0,1.7-0.4,2.3-1.1
				C147.8,144.7,148.1,143.7,148.1,142.4z"/>
			<path class="st0" d="M165.6,142.8c0,1-0.1,1.9-0.4,2.7c-0.3,0.8-0.6,1.5-1.1,2.1c-0.5,0.6-1.1,1-1.8,1.4
				c-0.7,0.3-1.5,0.5-2.4,0.5c-0.6,0-1.2-0.1-1.7-0.2c-0.5-0.1-0.9-0.3-1.3-0.5v5h-3v-17c0.6-0.2,1.4-0.3,2.2-0.5
				c0.9-0.1,1.8-0.2,2.8-0.2c1,0,1.9,0.2,2.7,0.5c0.8,0.3,1.5,0.8,2,1.3c0.6,0.6,1,1.3,1.3,2.1C165.5,140.8,165.6,141.7,165.6,142.8
				z M162.6,142.8c0-1.3-0.3-2.4-0.9-3.1c-0.6-0.7-1.6-1.1-2.9-1.1c-0.3,0-0.6,0-0.9,0c-0.3,0-0.6,0.1-0.9,0.2v7.3
				c0.3,0.2,0.6,0.3,1,0.5c0.4,0.2,0.9,0.2,1.4,0.2c1.1,0,1.9-0.4,2.4-1.1C162.3,145,162.6,144.1,162.6,142.8z"/>
			<path class="st0" d="M167.8,142.5c0-1.1,0.2-2.1,0.5-3c0.3-0.9,0.8-1.6,1.3-2.1c0.6-0.6,1.2-1,1.9-1.3c0.7-0.3,1.5-0.4,2.2-0.4
				c1.8,0,3.1,0.5,4.1,1.6c1,1.1,1.5,2.7,1.5,4.9c0,0.2,0,0.3,0,0.6c0,0.2,0,0.4,0,0.6h-8.5c0.1,1,0.4,1.8,1.1,2.4
				c0.6,0.6,1.6,0.8,2.8,0.8c0.7,0,1.4-0.1,2-0.2c0.6-0.1,1.1-0.3,1.4-0.4l0.4,2.4c-0.2,0.1-0.4,0.2-0.7,0.3c-0.3,0.1-0.6,0.2-1,0.2
				c-0.4,0.1-0.8,0.1-1.2,0.2c-0.4,0-0.9,0.1-1.3,0.1c-1.1,0-2.1-0.2-2.9-0.5c-0.8-0.3-1.5-0.8-2.1-1.4c-0.5-0.6-0.9-1.3-1.2-2.1
				C168,144.4,167.8,143.5,167.8,142.5z M176.5,141.2c0-0.4-0.1-0.8-0.2-1.2c-0.1-0.4-0.3-0.7-0.5-1c-0.2-0.3-0.5-0.5-0.8-0.6
				c-0.3-0.2-0.7-0.2-1.1-0.2c-0.5,0-0.9,0.1-1.2,0.3c-0.3,0.2-0.6,0.4-0.9,0.7c-0.2,0.3-0.4,0.6-0.6,1c-0.1,0.4-0.2,0.7-0.3,1.1
				H176.5z"/>
			<path class="st0" d="M180.8,153.7c-0.2,0-0.5,0-0.9-0.1c-0.4,0-0.7-0.1-1-0.2l0.4-2.4c0.4,0.1,0.8,0.2,1.3,0.2
				c0.7,0,1.2-0.2,1.4-0.6c0.3-0.4,0.4-1,0.4-1.8v-12.4h3v12.5c0,1.7-0.4,2.9-1.2,3.7C183.4,153.3,182.3,153.7,180.8,153.7z
				 M185.7,132.6c0,0.6-0.2,1-0.5,1.3c-0.4,0.3-0.8,0.5-1.3,0.5c-0.5,0-0.9-0.2-1.3-0.5c-0.4-0.3-0.5-0.8-0.5-1.3
				c0-0.6,0.2-1,0.5-1.4c0.4-0.3,0.8-0.5,1.3-0.5c0.5,0,0.9,0.2,1.3,0.5C185.5,131.6,185.7,132,185.7,132.6z"/>
			<path class="st0" d="M192.2,146.7c0.8,0,1.4-0.1,1.7-0.3c0.4-0.2,0.5-0.5,0.5-1c0-0.4-0.2-0.8-0.6-1.1c-0.4-0.3-1-0.6-1.9-0.9
				c-0.5-0.2-1-0.4-1.5-0.6c-0.5-0.2-0.8-0.5-1.2-0.8c-0.3-0.3-0.6-0.7-0.8-1.1c-0.2-0.4-0.3-0.9-0.3-1.5c0-1.2,0.4-2.1,1.3-2.8
				c0.9-0.7,2-1,3.5-1c0.8,0,1.5,0.1,2.2,0.2c0.7,0.1,1.2,0.3,1.5,0.4l-0.5,2.4c-0.3-0.1-0.7-0.3-1.3-0.4c-0.5-0.1-1.1-0.2-1.8-0.2
				c-0.6,0-1.1,0.1-1.5,0.3c-0.4,0.2-0.6,0.5-0.6,0.9c0,0.2,0,0.4,0.1,0.6c0.1,0.2,0.2,0.3,0.4,0.5c0.2,0.1,0.4,0.3,0.7,0.4
				c0.3,0.1,0.7,0.3,1.1,0.4c0.7,0.3,1.3,0.5,1.8,0.8c0.5,0.3,0.9,0.5,1.2,0.9c0.3,0.3,0.6,0.7,0.7,1.1c0.1,0.4,0.2,0.9,0.2,1.5
				c0,1.2-0.5,2.2-1.4,2.8c-0.9,0.6-2.2,0.9-3.9,0.9c-1.1,0-2-0.1-2.7-0.3c-0.7-0.2-1.2-0.3-1.4-0.5l0.5-2.5c0.4,0.2,1,0.4,1.6,0.5
				C190.8,146.7,191.5,146.7,192.2,146.7z"/>
			<path class="st0" d="M203.1,141.3c0.4-0.4,0.8-0.8,1.2-1.3c0.4-0.4,0.8-0.9,1.3-1.4c0.4-0.4,0.8-0.9,1.2-1.3
				c0.4-0.4,0.7-0.8,0.9-1.1h3.5c-0.8,0.9-1.7,1.9-2.6,2.8c-0.9,1-1.8,1.9-2.7,2.9c0.5,0.4,1,0.9,1.5,1.5c0.5,0.6,1.1,1.2,1.6,1.9
				c0.5,0.7,1,1.3,1.4,2c0.4,0.7,0.8,1.3,1.1,1.8H208c-0.3-0.5-0.6-1-1-1.6c-0.4-0.6-0.8-1.1-1.2-1.6c-0.4-0.5-0.9-1-1.3-1.5
				c-0.5-0.5-0.9-0.9-1.4-1.2v5.9h-3v-16.5l3-0.5V141.3z"/>
			<path class="st0" d="M217.8,135.8c1,0,1.8,0.1,2.5,0.4c0.7,0.2,1.2,0.6,1.6,1c0.4,0.4,0.7,1,0.9,1.6c0.2,0.6,0.3,1.3,0.3,2.1v7.8
				c-0.5,0.1-1.2,0.2-2.1,0.4c-0.9,0.1-2,0.2-3.1,0.2c-0.8,0-1.5-0.1-2.1-0.2c-0.6-0.1-1.2-0.4-1.6-0.7c-0.5-0.3-0.8-0.8-1.1-1.3
				c-0.3-0.5-0.4-1.2-0.4-1.9c0-0.7,0.1-1.4,0.4-1.9c0.3-0.5,0.7-0.9,1.2-1.2c0.5-0.3,1.1-0.5,1.7-0.7c0.6-0.1,1.3-0.2,2-0.2
				c0.3,0,0.7,0,1,0.1c0.4,0,0.7,0.1,1.2,0.2v-0.5c0-0.3,0-0.7-0.1-1c-0.1-0.3-0.2-0.6-0.4-0.8c-0.2-0.2-0.5-0.4-0.8-0.6
				c-0.3-0.1-0.8-0.2-1.3-0.2c-0.7,0-1.3,0-1.9,0.1c-0.6,0.1-1,0.2-1.4,0.3l-0.4-2.4c0.4-0.1,0.9-0.3,1.6-0.4
				C216.2,135.8,216.9,135.8,217.8,135.8z M218,146.8c0.9,0,1.6,0,2.1-0.1v-3.3c-0.2,0-0.4-0.1-0.7-0.1c-0.3,0-0.7-0.1-1-0.1
				c-0.3,0-0.7,0-1,0.1c-0.3,0-0.6,0.1-0.9,0.3c-0.3,0.1-0.5,0.3-0.7,0.6c-0.2,0.2-0.2,0.5-0.2,0.9c0,0.7,0.2,1.2,0.7,1.5
				C216.6,146.7,217.2,146.8,218,146.8z"/>
		</g>
	</g>
</g>
</svg>
